<mxfile host="Electron" modified="2023-08-22T16:43:16.828Z" agent="Mozilla/5.0 (Macintosh; Intel Mac OS X 10_15_7) AppleWebKit/537.36 (KHTML, like Gecko) draw.io/21.6.8 Chrome/114.0.5735.289 Electron/25.5.0 Safari/537.36" etag="DJEX37JBSsC1BsMmjqyu" version="21.6.8" type="device">
  <diagram name="支持H2" id="iE9boMzKe6Uyc7oeocPT">
    <mxGraphModel dx="1834" dy="1210" grid="1" gridSize="10" guides="1" tooltips="1" connect="1" arrows="1" fold="1" page="0" pageScale="1" pageWidth="827" pageHeight="1169" math="0" shadow="0">
      <root>
        <mxCell id="0" />
        <mxCell id="1" parent="0" />
        <mxCell id="XbV55jV9nf3fcCRUYuJB-2" value="" style="shape=image;imageAspect=0;aspect=fixed;verticalLabelPosition=bottom;verticalAlign=top;image=data:image/png,iVBORw0KGgoAAAANSUhEUgAAChgAAAF6CAYAAADhk8CZAAAMQGlDQ1BJQ0MgUHJvZmlsZQAASImVVwdYU8kWnluSkEBoAQSkhN4E6QSQEkILIL0IohKSAKGEGAgq9rKo4NrFAjZ0VUSx0+yIYmERbNgXCyrKuliwK29SQNd95XvzfXPnv/+c+c+Zc2fuvQOA2imOSJSLqgOQJywUx4YE0Mclp9BJTwEJ6AMqcAJEDrdAxIyOjgCwDLV/L+9uAETaXrWXav2z/78WDR6/gAsAEg1xOq+AmwfxYQDwSq5IXAgAUcqbTSkUSTGsQEsMA4R4kRRnynGlFKfL8X6ZTXwsC+IWAJRUOBxxJgCqHZCnF3EzoYZqP8SOQp5ACIAaHWLfvLx8HsRpEFtDGxHEUn1G+g86mX/TTB/W5HAyh7F8LrKiFCgoEOVypv2f6fjfJS9XMuTDElaVLHForHTOMG83c/LDpVgF4j5hemQUxJoQfxDwZPYQo5QsSWiC3B414BawYM6ADsSOPE5gOMQGEAcLcyMjFHx6hiCYDTFcIehUQSE7HmJdiBfxC4LiFDZbxPmxCl9oXYaYxVTw5zlimV+pr/uSnASmQv91Fp+t0MdUi7PikyCmQGxeJEiMhFgVYoeCnLhwhc2Y4ixW5JCNWBIrjd8c4li+MCRAro8VZYiDYxX2pXkFQ/PFtmQJ2JEKfLAwKz5Unh+shcuRxQ/ngnXwhcyEIR1+wbiIobnw+IFB8rljz/jChDiFzgdRYUCsfCxOEeVGK+xxU35uiJQ3hdi1oChOMRZPLIQLUq6PZ4gKo+PlceLF2ZywaHk8+HIQAVggENCBBNZ0kA+ygaC9r74P3sl7ggEHiEEm4AN7BTM0IknWI4TXOFAM/oSIDwqGxwXIevmgCPJfh1n51R5kyHqLZCNywBOI80A4yIX3Etko4bC3RPAYMoJ/eOfAyoXx5sIq7f/3/BD7nWFCJkLBSIY80tWGLIlBxEBiKDGYaIPr4764Nx4Br/6wOuMM3HNoHt/tCU8InYSHhOuEbsKtSYJ54p+iHAu6oX6wIhfpP+YCt4SabngA7gPVoTKug+sDe9wV+mHiftCzG2RZirilWaH/pP23GfzwNBR2ZEcySh5B9idb/zxS1VbVbVhFmusf8yOPNX0436zhnp/9s37IPg+24T9bYouwQ1grdhq7gB3D6gEdO4k1YG3YcSkeXl2PZatryFusLJ4cqCP4h7+hJyvNZIFjjWOv4xd5XyF/qvQdDVj5omliQWZWIZ0Jvwh8OlvIdRhFd3Z0dgFA+n2Rv77exMi+G4hO23du/h8A+JwcHBw8+p0LOwnAAQ+4/Ru/c9YM+OlQBuB8I1ciLpJzuPRCgG8JNbjT9IARMAPWcD7OwB14A38QBMJAFIgHyWAijD4LrnMxmAJmgLmgBJSB5WAN2AA2g21gF9gLDoJ6cAycBufAJdABroM7cPX0gBegH7wDnxEEISFUhIboIcaIBWKHOCMMxBcJQiKQWCQZSUMyESEiQWYg85EyZCWyAdmKVCMHkEbkNHIB6URuIQ+QXuQ18gnFUBVUCzVELdHRKANlouFoPDoBzUQno8XoAnQpug6tQvegdehp9BJ6He1GX6ADGMCUMR3MBLPHGBgLi8JSsAxMjM3CSrFyrAqrxZrgc76KdWN92EeciNNwOm4PV3AonoBz8cn4LHwJvgHfhdfhLfhV/AHej38jUAkGBDuCF4FNGEfIJEwhlBDKCTsIRwhn4V7qIbwjEok6RCuiB9yLycRs4nTiEuJG4j7iKWIn8RFxgEQi6ZHsSD6kKBKHVEgqIa0n7SGdJF0h9ZA+KCkrGSs5KwUrpSgJleYplSvtVjqhdEXpqdJnsjrZguxFjiLzyNPIy8jbyU3ky+Qe8meKBsWK4kOJp2RT5lLWUWopZyl3KW+UlZVNlT2VY5QFynOU1ynvVz6v/ED5o4qmiq0KSyVVRaKyVGWnyimVWypvqFSqJdWfmkItpC6lVlPPUO9TP6jSVB1U2ao81dmqFap1qldUX6qR1SzUmGoT1YrVytUOqV1W61Mnq1uqs9Q56rPUK9Qb1bvUBzRoGk4aURp5Gks0dmtc0HimSdK01AzS5Gku0NymeUbzEQ2jmdFYNC5tPm077SytR4uoZaXF1srWKtPaq9Wu1a+tqe2qnag9VbtC+7h2tw6mY6nD1snVWaZzUOeGzqcRhiOYI/gjFo+oHXFlxHvdkbr+unzdUt19utd1P+nR9YL0cvRW6NXr3dPH9W31Y/Sn6G/SP6vfN1JrpPdI7sjSkQdH3jZADWwNYg2mG2wzaDMYMDQyDDEUGa43PGPYZ6Rj5G+UbbTa6IRRrzHN2NdYYLza+KTxc7o2nUnPpa+jt9D7TQxMQk0kJltN2k0+m1qZJpjOM91nes+MYsYwyzBbbdZs1m9ubD7WfIZ5jfltC7IFwyLLYq1Fq8V7SyvLJMuFlvWWz6x0rdhWxVY1VnetqdZ+1pOtq6yv2RBtGDY5NhttOmxRWzfbLNsK28t2qJ27ncBuo13nKMIoz1HCUVWjuuxV7Jn2RfY19g8cdBwiHOY51Du8HG0+OmX0itGto785ujnmOm53vOOk6RTmNM+pyem1s60z17nC+ZoL1SXYZbZLg8srVztXvusm15tuNLexbgvdmt2+unu4i91r3Xs9zD3SPCo9uhhajGjGEsZ5T4JngOdsz2OeH73cvQq9Dnr95W3vneO92/vZGKsx/DHbxzzyMfXh+Gz16fal+6b5bvHt9jPx4/hV+T30N/Pn+e/wf8q0YWYz9zBfBjgGiAOOBLxnebFmsk4FYoEhgaWB7UGaQQlBG4LuB5sGZwbXBPeHuIVMDzkVSggND10R2sU2ZHPZ1ez+MI+wmWEt4SrhceEbwh9G2EaII5rGomPDxq4aezfSIlIYWR8FothRq6LuRVtFT44+GkOMiY6piHkS6xQ7I7Y1jhY3KW533Lv4gPhl8XcSrBMkCc2JaompidWJ75MCk1YmdY8bPW7muEvJ+smC5IYUUkpiyo6UgfFB49eM70l1Sy1JvTHBasLUCRcm6k/MnXh8ktokzqRDaYS0pLTdaV84UZwqzkA6O70yvZ/L4q7lvuD581bzevk+/JX8pxk+GSsznmX6ZK7K7M3yyyrP6hOwBBsEr7JDszdnv8+JytmZM5iblLsvTykvLa9RqCnMEbbkG+VPze8U2YlKRN2TvSavmdwvDhfvKEAKJhQ0FGrBH/k2ibXkF8mDIt+iiqIPUxKnHJqqMVU4tW2a7bTF054WBxf/Nh2fzp3ePMNkxtwZD2YyZ26dhcxKn9U822z2gtk9c0Lm7JpLmZsz9/d5jvNWzns7P2l+0wLDBXMWPPol5JeaEtUScUnXQu+FmxfhiwSL2he7LF6/+Fspr/RimWNZedmXJdwlF391+nXdr4NLM5a2L3Nftmk5cblw+Y0Vfit2rdRYWbzy0aqxq+pW01eXrn67ZtKaC+Wu5ZvXUtZK1navi1jXsN58/fL1XzZkbbheEVCxr9KgcnHl+428jVc2+W+q3Wy4uWzzpy2CLTe3hmytq7KsKt9G3Fa07cn2xO2tvzF+q96hv6Nsx9edwp3du2J3tVR7VFfvNti9rAatkdT07knd07E3cG9DrX3t1n06+8r2g/2S/c8PpB24cTD8YPMhxqHawxaHK4/QjpTWIXXT6vrrs+q7G5IbOhvDGpubvJuOHHU4uvOYybGK49rHl52gnFhwYvBk8cmBU6JTfaczTz9qntR858y4M9daYlraz4afPX8u+NyZVmbryfM+549d8LrQeJFxsf6S+6W6Nre2I7+7/X6k3b297rLH5YYOz46mzjGdJ674XTl9NfDquWvsa5euR17vvJFw42ZXalf3Td7NZ7dyb726XXT78505dwl3S++p3yu/b3C/6g+bP/Z1u3cffxD4oO1h3MM7j7iPXjwuePylZ8ET6pPyp8ZPq585PzvWG9zb8Xz8854Xohef+0r+1Piz8qX1y8N/+f/V1j+uv+eV+NXg6yVv9N7sfOv6tnkgeuD+u7x3n9+XftD7sOsj42Prp6RPTz9P+UL6su6rzdemb+Hf7g7mDQ6KOGKO7FcAgxXNyADg9U4AqMkA0OD5jDJefv6TFUR+ZpUh8J+w/IwoK+4A1ML/95g++HfTBcD+7fD4BfXVUgGIpgIQ7wlQF5fhOnRWk50rpYUIzwFb2F/T89LBvynyM+cPcf/cAqmqK/i5/RecLHxoYRV3KwAAAGxlWElmTU0AKgAAAAgABAEaAAUAAAABAAAAPgEbAAUAAAABAAAARgEoAAMAAAABAAIAAIdpAAQAAAABAAAATgAAAAAAAACQAAAAAQAAAJAAAAABAAKgAgAEAAAAAQAAChigAwAEAAAAAQAAAXoAAAAAsjSurAAAAAlwSFlzAAAWJQAAFiUBSVIk8AAAQABJREFUeAHs3Qd8VUXe8PF/kpuekA5JSEhooQjSQWkigqygwro2fF1R7AUUHhVcrCh2UJ9V1N21PbZVYe1llSIS6UondEJCSCG9d94zJ95z780tBEhCQn7z+VzvnJk5c2a+54Z9P5/3//zH7bhWRCsbf0+StKPHVFX8fL3l4ouG6fXW8p/snAJ9qeFhQa1lyawTAQQQQAABBBBAAAEEEEAAAQQQQAABBBBAAAEEEEAAAQQQQAABBBBAAAEEEGjRAsRltejX0+SLc1dPqKioksysXONh0VHhRp0KAggggAACCCCAAAIIIIAAAggggAACCCCAAAIIIIAAAggggAACCCCAAAIIIIAAAgi0PQE9wDA55ahUV9fou3d3d5P4TtFtT4IdI4AAAggggAACCCCAAAIIIIAAAggggAACCCCAAAIIIIAAAggggAACCCCAAAIIIICAIaAHGJqPRlatYaFBEhDgawygggACCCCAAAIIIIAAAggggAACCCCAAAIIIIAAAggggAACCCCAAAIIIIAAAggggAACbU/AXR2NXFhUauw8Nqa9UaeCAAIIIIAAAggggAACCCCAAAIIIIAAAggggAACCCCAAAIIIIAAAggggAACCCCAAAJtU8D9cGqGsXNfHy+J7djBuKaCAAIIIIAAAggggAACCCCAAAIIIIAAAggggAACCCCAAAIIIIAAAggggAACCCCAAAJtU0DLYJhn7DwqMlzc3NyMayoIIIAAAggggAACCCCAAAIIIIAAAggggAACCCCAAAIIIIAAAggggAACCCCAAAIIINA2Bdxramr0navAwvi4qLapwK4RQAABBBBAAAEEEEAAAQQQQAABBBBAAAEEEEAAAQQQQAABBBBAAAEEEEAAAQQQQMBGwDTl0tE2DVwggAACCCCAAAIIIIAAAggggAACCCCAAAIIIIAAAggggAACCCCAAAIIIIAAAggggAAC7hAggAACCCCAAAIIIIAAAggggAACCCCAAAIIIIAAAggggAACCCCAAAIIIIAAAggggAAC9QUIMKwvwjUCCCCAAAIIIIAAAggggAACCCCAAAIIIIAAAggggAACCCCAAAIIIIAAAggggAACCAgBhvwIEEAAAQQQQAABBBBAAAEEEEAAAQQQQAABBBBAAAEEEEAAAQQQQAABBBBAAAEEEEDAToAAQzsSGhBAAAEEEEAAAQQQQAABBBBAAAEEEEAAAQQQQAABBBBAAAEEEEAAAQQQQAABBBBAgABDfgMIIIAAAggggAACCCCAAAIIIIAAAggggAACCCCAAAIIIIAAAggggAACCCCAAAIIIGAnQIChHQkNCCCAAAIIIIAAAggggAACCCCAAAIIIIAAAggggAACCCCAAAIIIIAAAggggAACCCBAgCG/AQQQQAABBBBAAAEEEEAAAQQQQAABBBBAAAEEEEAAAQQQQAABBBBAAAEEEEAAAQQQsBMgwNCOhAYEEEAAAQQQQAABBBBAAAEEEEAAAQQQQAABBBBAAAEEEEAAAQQQQAABBBBAAAEEECDAkN8AAggggAACCCCAAAIIIIAAAggggAACCCCAAAIIIIAAAggggAACCCCAAAIIIIAAAgjYCRBgaEdCAwIIIIAAAggggAACCCCAAAIIIIAAAggggAACCCCAAAIIIIAAAggggAACCCCAAAIIEGDIbwABBBBAAAEEEEAAAQQQQAABBBBAAAEEEEAAAQQQQAABBBBAAAEEEEAAAQQQQAABBOwECDC0I6EBAQQQQAABBBBAAAEEEEAAAQQQQAABBBBAAAEEEEAAAQQQQAABBBBAAAEEEEAAAQQIMOQ3gAACCCCAAAIIIIAAAggggAACCCCAAAIIIIAAAggggAACCCCAAAIIIIAAAggggAACdgIEGNqR0IAAAggggAACCCCAAAIIIIAAAggggAACCCCAAAIIIIAAAggggAACCCCAAAIIIIAAAgQY8htAAAEEEEAAAQQQQAABBBBAAAEEEEAAAQQQQAABBBBAAAEEEEAAAQQQQAABBBBAAAE7AQIM7UhoQAABBBBAAAEEEEAAAQQQQAABBBBAAAEEEEAAAQQQQAABBBBAAAEEEEAAAQQQQAABAgz5DSCAAAIIIIAAAggggAACCCCAAAIIIIAAAggggAACCCCAAAIIIIAAAggggAACCCCAgJ0AAYZ2JDQggAACCCCAAAIIIIAAAggggAACCCCAAAIIIIAAAggggAACCCCAAAIIIIAAAggggAABhvwGEEAAAQQQQAABBBBAAAEEEEAAAQQQQAABBBBAAAEEEEAAAQQQQAABBBBAAAEEEEDAToAAQzsSGhBAAAEEEEAAAQQQQAABBBBAAAEEEEAAAQQQQAABBBBAAAEEEEAAAQQQQAABBBBAgABDfgMIIIAAAggggAACCCCAAAIIIIAAAggggAACCCCAAAIIIIAAAggggAACCCCAAAIIIGAnQIChHQkNCCCAAAIIIIAAAggggAACCCCAAAIIIIAAAggggAACCCCAAAIIIIAAAggggAACCCBAgCG/AQQQQAABBBBAAAEEEEAAAQQQQAABBBBAAAEEEEAAAQQQQAABBBBAAAEEEEAAAQQQsBMgwNCOhAYEEEAAAQQQQAABBBBAAAEEEEAAAQQQQAABBBBAAAEEEEAAAQQQQAABBBBAAAEEECDAkN8AAggggAACCCCAAAIIIIAAAggggAACCCCAAAIIIIAAAggggAACCCCAAAIIIIAAAgjYCRBgaEdCAwIIIIAAAggggAACCCCAAAIIIIAAAggggAACCCCAAAIIIIAAAggggAACCCCAAAIIEGDIbwABBBBAAAEEEEAAAQQQQAABBBBAAAEEEEAAAQQQQAABBBBAAAEEEEAAAQQQQAABBOwECDC0Izn7G7LzKiQ1o/Ts3yg7RAABBBBAAAEEEEAAAQQQQAABBBBAAAEEEEAAAQQQQAABBBBAAAEEEEAAAQQQOGUB0ynfyY2tUuDa2Wtk2S/pcvy4yDm9guTHt8aKjzdxpq3yZbJoBBBAAAEEEEAAAQQQQAABBBBAAAEEEEAAAQQQQAABBBBAAAEEEEAAAQQQQKAJBYgsa0Lcljb1uq3Z8tOquuBCtbadSQXyxfLUlrZM1oMAAggggAACCCCAAAIIIIAAAggggAACCCCAAAIIIIAAAggggAACCCCAAAIIINACBExFxaWSnZMv+QXF+nKCgwIkPCxYAgP8WsDyWEJjCnh4uNlNV1RSbddGAwIIIIAAAggggAACCCCAAAIIIIAAAggggAACCCCAAAIIIIAAAggggAACCCCAAAKm5T9vslE4/MdVgL+vDOzfQ0JD2tn0c9F6BYb0CZNxoyNl+eoM/Yjk3j2DZOqkuNa7IVaOAAIIIIAAAggggAACCCCAAAIIIIAAAggggAACCCCAAAIIIIAAAggggAACCCDQZAImZzMXl5TJ2g07pF/fbhIT3d7ZMNpbmcAnL42Q7LwKKa+skZgOZKlsZa+P5SKAAAIIIIAAAggggAACCCCAAAIIIIAAAggggAACCCCAAAIIIIAAAggggAACzSZg8vDwkNiY9qKORlZFHZV8JC1LqqtrpKqqWn7fsleC2gVwZHKzvZKmf1B4iHfTP4QnIIAAAggggAACCCCAAAIIIIAAAggggAACCCCAAAIIIIAAAggggAACCCCAAAIItGoB04jz+todgxwXGylr1m2Xqupqqa2tlUPJR+XcPt1a9UYdLb6q+rikZ5dJfmGluGkDVOBdhzAfcXdXV6dWqmuOS1pmqRw9VioRIT7SOSZAPE5jPrUKlXEwJaNUO9b4uCTEBUqgv+epLa4J7qqoqpXU9BKpqKyVAD+TxEb5y6lu95i2z5y8cv345k7RAeLv63HaK1a/3/3790t8fLx4eXmd9nxMgAACCCCAAAIIIIAAAggggAACCCCAAAIIIIAAAggggAACCCCAAAIIIIAAAgi0FQFTaEg7u72GBAdKx44Rknw4Xe9TxyWfLaX2uMgXy1PluX8kyYGDRXowm/XePDzc5PwhETLn1p4yvH+EdZdNPelAgYy9foXeFhDoKbu+myTvf3VInn1zl+RkVxhjPT3d5dJx0bJo7kBpF+A6MHD6vPXy/Yqj+r0zbkyQKyfEyuzntmhHVR8z5lOVmBg/ef6B/jJhZJRNe/2LC6etkN17C+o321ynJk4Rk7bnE5XNSXkycfrP+rCgIC/Z+d1EefHtJHn1vX1SWlpt3O7l5S5TJ8fJk/f2a3CA4Juf7Jfn3kySgoJKYx6TyU2uv6KzPH5PH7lixq+yQ3u+Ki89MlCunRhnjHNVWbp0qcyYMUPy8vLE29tb7rnnHnnqqadc3UIfAggggAACCCCAAAIIIIAAAggggAACCCCAAAIIIIAAAggggAACCCCAAAIIIIDAHwLuziR8fSzZ3mpqap0Na3Xt0+aulVvnbJD9B+yDC9VmarQMhInrsuSym3+R1z7a53R/WpyiVGpZ+9QnN6dCnvnnTnlgwWab4EJ1c5WW4e/z74/IsKt+lJT0UqfzqY5Kbax5zgOpxTLptl/sggvVuCNHSuW6e9fIvJe3qUunpaqqxpjPPG/9b6c31+uw3u+xY+Uy76Vt8vzrSTbBheoWNf97nx3S9vtfybUKGKw3nX6pJWSUa2evkb89v9UmuFB1VmvZJd/99KBcd/9aKSmrMvZRqyJEG1Bqamrkvvvu04ML1fCKigpZuHChpKfXBc02YAqGIIAAAggggAACCCCAAAIIIIAAAggggAACCCCAAAIIIIAAAggggAACCCCAAAJtWsBpgGF2jiXznZ+fz1mB9Mn3h+W7ZXUZAs0bCtSyD44dFalnLfStdyTvY4u2yfa9+eahLr9f+dcevb9rlwC5YmKsXDCig/hpRwabS1ZWuTz4whbz5Qm/v9CCElXgYnCwl4y/IEqfs0eCbbbJN97fJ+u2Zp9wrqYY8K+P9+vTqjX9ZVLdfr29LUcap6eXaQGQW10++rP/pshPqywBf25aIsXB/cPkyktjZciAMP2o6jVa9sY9ewtdzuOo89ixY5KdbW+zZUvD34GjeWlDAAEEEEAAAQQQQAABBBBAAAEEEEAAAQQQQAABBBBAAAEEEEAAAQQQQAABBNqKgClpT7L06hFv7Pe4llZuZ9JBOZZdF1jnpkV9xcVGGv2tufL5sjRj+dHRfvLBi+dL34Rgcf/jhGCVHS9x8zGZOnONlJfX6Mcnr9yQqY8xbnRRWfTIAJk2pYsxIiunXKbNXScbfs/R21Qw3e/aUb8De4UYY1xVJoyNkjcfHyKB/pajlb/+OU1ue2iDntFP3Tvnxa2y6v2LHE6z6oNxdkdAb9mdJxNuWOlw/Mk0umto/3h2iEwZG2vcdiSzVK6d9ask7akLCPz0qxR55M4+Et3e1xhjXXn05e3GpQqk/Ojl82VY33Cj7bdduTJ11hq7rJDGABeVyMhIGTVqlKxevdoY5e/vL2PGjDGuqSCAAAIIIIAAAggggAACCCCAAAIIIIAAAggggAACCCCAAAIIIIAAAggggAACCDgXcN+zL0V++XWL5BcUS05uofy8+nfZf9ASiNc5LkrCw4Kcz9CKepL2WzLhzb6ph/TrYQkuVNtQQXOjB7WXhfMGyP139NI/w84Na9AO/3plvE1wobqpfZiPvLVgmHh5WRJFbtaC5hpS/PxNsvjRwTbBheq+y8Z0lJnTexhT7NpdIFXaccKOioe2H5OH7cfL07IWR/c0tO2uad1tggvVfTEd/ORfTw21mWLPIYu5dYcKvlRHLZvL/Pv62gQXqvZBvUPl2Qf6mYec9PeHH34oCxYs0AMNZ82aJYmJieLr6zjY8aQn5wYEEEAAAQQQQAABBBBAAAEEEEAAAQQQQAABBBBAAAEEEEAAAQQQQAABBBBA4CwX0M/wzc0rlFVaYKF1mJoKtuscFy19z+l61hAE+luO8FXZ8W66wpJt0HqT106Ms75sUN06c6H1DSp733mDI+SXNZl6877kYutup/Xhg8IlONDLYf9UbX0vvpGk96msi6kZJdIlJsDh2KZqVGtwVHp2CZLISF/JyCjTu/cmF8mFwzrYDT2UZuswZVyM3RjVMGVsjNxp2ijVToIoHd70R2NERITMnj1b/7gaRx8CCCCAAAIIIIAAAggggAACCCCAAAIIIIAAAggggAACCCCAAAIIIIAAAggggIC9gJHOzjq4UA0724IL1Z56d7NkYlzyTaosejdJVCa9xiidY/ydTtM9zhL8l5ZV6nScdUd8R+fzddQyBWonVxslM6cumM9oaIZKbJTz9XWOtey3pKzK4WrSsy1rVscj+/vqsa52Y1Wga6wLW7sbaEAAAQQQQAABBBBAAAEEEEAAAQQQQAABBBBAAAEEEEAAAQQQQAABBBBAAAEEEGgUASOqy9vbU1QKw4rKuoCwA4fSpLqmRvr37a4Fs1lFszXKY8/MJNP/0kWWfpuqP7yqqlYW/H2XPPNakvRMaKcFH6pPkAzuEyrDzg3XjxY+mVX6+hiUdrf5+1n6jteP5LQbXdfgZ3VP/SGeJjeZ/KcYycyp0LuCAhxnOqx/X2Ne+3pbskHWn9ekre9ExdrBXzsO2lWx9nM1jj4EEEAAAQQQQAABBBBAAAEEEEAAAQQQQAABBBBAAAEEEEAAAQQQQAABBBBAAIHGEzB5uLtL924xktCtkz7r7r2HZf/BNKmtrZXDKRlSVFQq5w3pI15eroPAGm9JTTfTef3CZd6M3npQoTpaWBX1vWt3gf4RqQs+DAryktuv6yqzb+wlKpivJZa3nhrWEpfFmhBAAAEEEEAAAQQQQAABBBBAAAEEEEAAAQQQQAABBBBAAAEEEEAAAQQQQAABBM4SAffzhvbRMvjFi7sWaKg+vXt2FtXm5+utbzE3r1D27k85S7YretDgsg/GyjWTO0lgoJa10UEpKKiU519PkqvuS3TQS1NjC1hnM3Q09/ETDXB0E20IIIAAAggggAACCCCAAAIIIIAAAggggAACCCCAAAIIIIAAAggggAACCCCAAAKnJeAeER5sN0F7ra1P7y5Ge8qRDKN+NlT69QiWxY8OkYMrLpONX06QD18eLg/d3Vs6xwfYbG/12ixZ8uPZE1xps7kzfOHjaTliOTu7XFzFEGYcKz/Dq+XxCCCAAAIIIIAAAggggAACCCCAAAIIIIAAAggggAACCCCAAAIIIIAAAggggEDbE3B3tuXoqAjx8qw7FrmyslqKikudDW217e7ubtIlJkD+NCpK7p/eSzYtnSBfvzVaTFbHIq9cn9Wg/ZWVVzsdV1pq6XNrmScuO117U3V0ibUEc1ZW1kpqhuPfV25BheRkVzTVMpgXAQQQQAABBBBAAAEEEEAAAQQQQAABBBBAAAEEEEAAAQQQQAABBBBAAAEEEEDAiYDTAEM1vtYqrVxpadvIIje8f4RMnhBjcO05VGTUXVWS00qcdu9LKTb6Yjr4GfW2XImN8rfZ/jP/2Glzbb5Y8MYuc5VvBBBAAAEEEEAAAQQQQAABBBBAAAEEEEAAAQQQQAABBBBAAAEEEEAAAQQQQACBZhRwGmCojkWurq4xlhIY0LoD41LSS2XCzT/L+Ol1n7zCSmNv9Svd4wKNJjdpWMrBD78+bNxjXcnMKZf1v2UbTd3iLJn7jMY2WPHz8ZCLL4wydv7pVyly6yMbZG9yoZSUVevfdz6xUd799KAxRlWsYl5t2h1d5ObmyuLFi2X8+PEyf/58OXjQdi5H99CGAAIIIIAAAggggAACCCCAAAIIIIAAAggggAACCCCAAAIIIIAAAggggAACCCBQJ2A6mpEt0ZHhNh6qbccuSzBWgL+v+Pn52IxpbRf+vh6yaUuOsey5C7fIgvv6SXiIt9GmKlv35Mur/7fPaDuvf6hRd1VRgXCDzgmRayfGGcNy8ivk5oc3SHm5JVBzQO+GzWdMchZXnpnVT1asVoGsx/Vd/ue7VFEf66KOlPb1NYn5mOmTOWL6+uuvl5UrV+rTJSYmyuuvvy4pKSni6elp/QjqCCCAAAIIIIAAAggggAACCCCAAAIIIIAAAggggAACCCCAAAIIIIAAAggggAACDgRMGzbtkpDgQCOAUB2FnJdvORbYTYvo6tbVcmSwgzlaRVNYsLf0PSdYtu/M19e75JtUUZ/YWH/p1ytYqqprJflIiezZW2jsRwWzTb6oYXv38nKXux/ZJK99uE9iovxE3fvrhmwpLq4y5ht/QZQM7BViXDdl5Y1P9svDL2y1e0T9DICRw/5jNyYgwFOSf77crr2xG+I7+suHLw2X2x/ZKPn5jjNKPvdQf3lryUGb99KQdWRmZhrBhebx+fn5snr1ahk7dqy5iW8EEEAAAQQQQAABBBBAAAEEEEAAAQQQQAABBBBAAAEEEEAAAQQQQAABBBBAAAEnAibVrgIKrYMKzWM9TSbp17ebxHRsb25q1d+fvDRCxly/XLKyyo19pKaWiPo4KrNv6ymDz2lYxsEHbu8pT76yU3btLtA/9ecLD/eR5+7vV7+5ya5VIGH9YEJHD3M0ptZRo6ObG6Ft3PBIWbfkYnn3Pwdli5Y9cs+BQgkO8pKeXQLl7qndpVfXIPnHJwdO+klhYWESEhIieXl5NvfGxDQsYNTmJi4QQAABBBBAAAEEEEAAAQQQQAABBBBAAAEEEEAAAQQQQAABBBBAAAEEEEAAgTYoYPLz9ZaysgqpO6RWREu8px1J6y0BAX7SMyFOQkPanTUsHcJ8ZO2n4+Wfnx6QNz7a7zBrnru7m5zbJ0Tmz+wjIwZENHjvd1/XQwL9PeWZN5IkL7fCuM/Dw00mXBglf394kAQHehntJ6r4eXucaIjLfl9vd5f9rjp9fOyf7aNlaGyqEqEdU/3Azb0adXqTFhy7cOFCmTlzppZFsljU9S233CIJCQmN+hwmQwABBBBAAAEEEEAAAQQQQAABBBBAAAEEEEAAAQQQQAABBBBAAAEEEEAAAQTOVgG341opL6+UnNy6o4PDQoPFx6fhgXAtBSY7p0BfSnhYUIOXlF9UKUezyqS4rFo8tMDCyHBf7eOj1080ya4DBTLq6mXGsKPr/izenu76UcuHj5bIkcxS6RDqI93iAsXT1HTBecYCztJKrRb5mnDxN0bQ5t+fGCTXXRrf4N3W1NRIWlqaREREaIGzvg2+j4EIIIAAAggggAACCCCAAAIIIIAAAggggAACCCCAAAIIIIAAAggggAACCCAgcipxWbidPQL6EckqoLBj9NlxDPLJvBqVUfBksgo2ZG4VTNitU6D+ach4xrgW2LAt2wguVCM7Rfu5vqFer4eHh3Tq1KleK5cIIIAAAggggAACCCCAAAIIIIAAAggggAACCCCAAAIIIIAAAggggAACCCCAAAInEtADDE80iH4EmkrguJahcMvuPLvpKyprZMX6TPn3NylGn5t2fve5CSHGNRUEEEAAAQQQQAABBBBAAAEEEEAAAQQQQAABBBBAAAEEEEAAAQQQQAABBBBAAIGmEyDAsOlsmbkBAtU1tTLu+hUNGCly17QEaRfg2aCxDEIAAQQQQAABBBBAAAEEEEAAAQQQQAABBBBAAAEEEEAAAQQQQAABBBBAAAEEEDg9AffTu527EWgegasv7ySP3HlO8zyMpyCAAAIIIIAAAggggAACCCCAAAIIIIAAAggggAACCCCAAAIIIIAAAggggAACCAgZDE/xRxAa5C3nD40w7nbXju+lnLyAm3busbWj9QyRYd6SEB8o40dEyYBeHI1sbUMdAQQQQAABBBBAAAEEEEAAAQQQQAABBBBAAAEEEEAAAQQQQAABBBBAAAEEEGhqAbfjWmnqhzTH/Nk5BfpjwsOCmuNxPAMBBBBAAAEEEEAAAQQQQAABBBBAAAEEEEAAAQQQQAABBBBAAAEEEEAAAQQQOOsFiMs661+xyw1yRLJLHjoRQAABBBBAAAEEEEAAAQQQQAABBBBAAAEEEEAAAQQQQAABBBBAAAEEEEAAAQQQaJsCBBi2zffOrhFAAAEEEEAAAQQQQAABBBBAAAEEEEAAAQQQQAABBBBAAAEEEEAAAQQQQAABBBBwKUCAoUseOhFAAAEEEEAAAQQQQAABBBBAAAEEEEAAAQQQQAABBBBAAAEEEEAAAQQQQAABBBBomwIEGLbN986uEUAAAQQQQAABBBBAAAEEEEAAAQQQQAABBBBAAAEEEEAAAQQQQAABBBBAAAEEEHApQIChSx46EUAAAQQQQAABBBBAAAEEEEAAAQQQQAABBBBAAAEEEEAAAQQQQAABBBBAAAEEEGibAgQYts33zq4RQAABBBBAAAEEEEAAAQQQQAABBBBAAAEEEEAAAQQQQAABBBBAAAEEEEAAAQQQcClAgKFLHjoRQAABBBBAAAEEEEAAAQQQQAABBBBAAAEEEEAAAQQQQAABBBBAAAEEEEAAAQQQaJsCBBi2zffOrhFAAAEEEEAAAQQQQAABBBBAAAEEEEAAAQQQQAABBBBAAAEEEEAAAQQQQAABBBBwKUCAoUseOhFAAAEEEEAAAQQQQAABBBBAAAEEEEAAAQQQQAABBBBAAAEEEEAAAQQQQAABBBBomwIEGLbN986uEUAAAQQQQAABBBBAAAEEEEAAAQQQQAABBBBAAAEEEEAAAQQQQAABBBBAAAEEEHApQIChSx46EUAAAQQQQAABBBBAAAEEEEAAAQQQQAABBBBAAAEEEEAAAQQQQAABBBBAAAEEEGibAgQYts33zq4RQAABBBBAAAEEEEAAAQQQQAABBBBAAAEEEEAAAQQQQAABBBBAAAEEEEAAAQQQcClAgKFLHjoRQAABBBBAAAEEEEAAAQQQQAABBBBAAAEEEEAAAQQQQAABBBBAAAEEEEAAAQQQaJsCBBi2zffOrhFAAAEEEEAAAQQQQAABBBBAAAEEEEAAAQQQQAABBBBAAAEEEEAAAQQQQAABBBBwKUCAoUseOhFAAAEEEEAAAQQQQAABBBBAAAEEEEAAAQQQQAABBBBAAAEEEEAAAQQQQAABBBBomwIEGLbN986uEUAAAQQQQAABBBBAAAEEEEAAAQQQQAABBBBAAAEEEEAAAQQQQAABBBBAAAEEEHApQIChSx46EUAAAQQQQAABBBBAAAEEEEAAAQQQQAABBBBAAAEEEEAAAQQQQAABBBBAAAEEEGibAgQYts33zq4RQAABBBBAAAEEEEAAAQQQQAABBBBAAAEEEEAAAQQQQAABBBBAAAEEEEAAAQQQcClAgKFLHjoRQAABBBBAAAEEEEAAAQQQQAABBBBAAAEEEEAAAQQQQAABBBBAAAEEEEAAAQQQaJsCBBi2zffOrhFAAAEEEEAAAQQQQAABBBBAAAEEEEAAAQQQQAABBBBAAAEEEEAAAQQQQAABBBBwKUCAoUseOhFAAAEEEEAAAQQQQAABBBBAAAEEEEAAAQQQQAABBBBAAAEEEEAAAQQQQAABBBBomwIEGLbN986uEUAAAQQQQAABBBBAAAEEEEAAAQQQQAABBBBAAAEEEEAAAQQQQAABBBBAAAEEEHApQIChSx46EUAAAQQQQAABBBBAAAEEEEAAAQQQQAABBBBAAAEEEEAAAQQQQAABBBBAAAEEEGibAqa2ue3Wveu5C7fK/pQifRO3X91Nxo+IbN0bYvUIIIAAAggggAACCCCAAAIIIIAAAggggAACCCCAAAIIIIAAAggggAACCCCAAAItTsCUnpkj+fmFUlZeqS3OTXx9vCQkOFAiO4S1uMWyoDqBtVuyZceufP3iktFRZ4TlixWpMvupLfqzB/YNkSWvjDwj6+ChCCCAAAIIIIAAAggggAACCCCAAAIIIIAAAggggAACCCCAAAIIIIAAAggggAACTSNgWr9xp8OZA/x9pf+5CRIeFuSwn8a2LZCeVSEFBSooVaSgqLptY7B7BBBAAAEEEEAAAQQQQAABBBBAAAEEEEAAAQQQQAABBBBAAAEEEEAAAQQQQOAsFHB3tqfikjLZsGmnZGXXZcpzNo52BBBAAAEEEEAAAQQQQAABBBBAAAEEEEAAAQQQQAABBBBAAAEEEEAAAQQQQAABBBA4+wRM7u5uEh0VIcFBAfru8guK5Wj6MamtPS6VVdWy8bddMnRQb4kIDz77ds+OEEAAAQQQQAABBBBAAAEEEEAAAQQQQAABBBBAAAEEEEAAAQQQQAABBBBAAAEEEEDAoYDpvCF9pH1EiE1nVkwHLbAwSaqqq6VKCzLcuz+FAEMboea5yMgul4NHiiQ82Fs6RQWIj7fThJMNXlB+UaXsSS6UAF9PiYv2lwA/U4PvbY6Bjbm+qurjkp5dJvmFleKmLT48xFs6hPmICqo91aLWdzSrTJ+rfajPqU7TpPdl51VISkapHD9+XBLiAiXQ3/OUnqfdLhma3+GjJRIUoP1eOgaIn4/HKc2lbiourdbsSuWYtj41X3R7XwkN8j7l+dSNtbW1sn//fomPjxcvL6/TmoubEUAAAQQQQAABBBBAAAEEEEAAAQQQQAABBBBAAAEEEEAAAQQQQAABBBBAwFbAVD+4UHWrtq5dOsruvYf10Tm5BVJRWSXeXqcWqGT7SK5cCWiJI+WV/9str7yzV4qKqoyhXl7ucsvUbjLv9nPEw+PkAg1VgNjDr2yTTdtyJSur3JhTVdq395G5t/eSv17e2Wng3YdfJ8v9T2+2ua+mRlvoH2XzthyJOv9z86XN94ihEbLklZE2bfUvTnd91vMpvy+Wp8pz/0iSAweLtCA7617R7Nzk/CERMufWnjK8f4Rtp5OrlPRSeeilrbLut2zJz680RvlpwZl9ewXL4zP7yNA+YUa7o8rPGzNl6sw1epe/Fly3/6dLHQ3T266+71dZvT5Lrz83t7/cMLmzw7HT562X71cc1ftm3JggV06IldnPbZG1G47ZjI+J8ZPnH+gvE0ZG2bQ7u0hOK5G5C7fqaygvr7EZ1rGjnzyk/V6umRgvDY3T3LEvX+a/tlNW/pqpZ0a1nrBf31B58Oae8qdRDVub9b1Lly6VGTNmSF5ennh7e8s999wjTz31lPUQ6ggggAACCCCAAAIIIIAAAggggAACCCCAAAIIIIAAAggggAACCCCAAAIIIHAaAk4j1bp27ihufyR6U8clFxWVnsZjuLUhAtVa0N5ld6ySp/53p01wobq3srJWFr+3V6Y/vE4LBGzIbHVjPv0hRUZes0y+W3bULrhQjVABh7Of3Cxjblgu5RW1DieuUcdla8+3/lgHGKogPus+63rGsTKHc5obG2N95rnU97S5a+XWORtk/wH74ELVr9aduC5LLrv5F3nto32qyWX5x6f7Zeif/ys/LD9qE1yobirVMvKt14IOL5n2s9z7zG92wYzWEx/XaC0utkF71uNUvbLaYp2dZxsQaj22ssoy7kBqsUy67Re74EI1/siRUrnu3jUy7+Vt1rc7rL/xyX457y8/yk+r0qV+cKG6IS2tVO559DcZO225lJS53ocav3FHjlxy8ypZvjrDLrhQ9W/dnivXz1ojH32TrC4bXGpqauS+++7TgwvVTRUVFbJw4UJJT09v8BwMRAABBBBAAAEEEEAAAQQQQAABBBBAAAEEEEAAAQQQQAABBBBAAAEEEEAAAdcCTkPVPD1NNkeOlpU7D3Ry/Qh6Gyrw1pIDsm5TtjFcBXgO7h8mV14aK0MGhOkZBv+7Il02b801xriqrFiXIXfO26gHwpnH+fp6yAUjOsio89uLysBnLjuTCmTuItsshea+pvpu7PV98v1hPZDSer2BgZ4ydlSknrVQ7d26PLZom2zfm2/dZFPftDNX/vb8Vu2YcEvgZVi4t5bdM0BiYvyNAFx10wdLkuXdzw/a3N+cF198f0RycyokONhLxl8QJVdMjJUeCe1slvDG+/tk3VbL78umU7tYvz1bHn7Bdr9qn+NGR8rQgWHiY3U88vad+TJLC6p0VdZvy5Ypt6+W0pJqfZjKwjlpfEeZMT1Brrqsk4SG1R2PrAJUZzz2m7z3RcP9jh07JtnZ9nvZsmWLqyXRhwACCCCAAAIIIIAAAggggAACCCCAAAIIIIAAAggggAACCCCAAAIIIIAAAichYIkwq3fTcS3qp7q6LjBIdfn7+dUbwWVjCqjsgQsW7zSmjIjwkY9eGi4De4UYbb/typWpWra3nOwKo81V5fV/HzC6VWDc288MlfP6RYhJOyZYlZz8CrnxofWy5o8jdd/XguTm3NJboiJ8jftURR2ffN2l8TZtb/x7nzy2aLveNqBfqPzwzzE2/eYLcxZM87X1d2Otzzzn58vSzFWJjvaTD148X/omBBtH+apMnImbj+lHFavsfCqwbeWGTH2McaNV5Y5HNxpZCQO0Y43//vhAufzCGGPE1j35cvPf1suh5GK97dGXtstlF3aU8JC6wDljYDNVJoyNkjcfHyKB/pajzL/+OU1ue2iDnj1RLWPOi1tl1fsXOVzRbQ9vstnva08MkkvHdDTGZudVyN3zN8myXzL0tqXfpsotV3d1ejz03U/8ZmRBVEGZn2lHZcdF+xvzFZVUya2PbNSzJarGOc9ulckXxUhwoJcxxlklMjJSRo0aJatXrzaG+Pv7y5gxY4xrKggggAACCCCAAAIIIIAAAggggAACCCCAAAIIIIAAAggggAACCCCAAAIIIHB6Ak4zGGZk5WrHydZlbvPw8JDQkMDTexJ3uxQ4dKRISootAZ2LHhpgE1yobh7UO1SefaCfy3nMnZk55bIysS4QTLX9c8FQGTmwvRFcqNrCgr3lnaeHiaen5Wewc1+B6rIpKkhQBSVafzw8LPe4iW2fzTj3P87ZtplRpDHXZ546aX+huSqzb+oh/XpYggtVh7u2ltGD2svCeQPk/jt66Z9h54YZ91hX0rLKjMBB1f7cnH42wYWqTc3/wQvn6fOqa3Vk8oZtOara7MXP3ySLHx1sE1yoFnGZFiA4c3oPYz27dhdIVbUWWVmvqP0eOVJitKr9WgcXqg4VOPm29ntRwa/msm6LfRZB1bdjX76N36uPDbYJLlRjVCDkYq1drV0VlSnym5WWIFG90cV/PvzwQ1mwYIEeaDhr1ixJTEwUX1/b4FgXt9OFAAIIIIAAAggggAACCCCAAAIIIIAAAggggAACCCCAAAIIIIAAAggggAACJxAwqSBC62AxNV61Je0+ZNwa4G8JKDIaqTSqwP7Uuix4alJvbw+5ZHS0w/mnjI2RO00bteyS9kFi1je0D/WRtLV/Npq8rYIIjUatooLGunQOkD1764Lzdh8qlHHDI62HNEm9KdYX6G85Allle7zpii4O137txDiH7daNuw9YAi1VAObVlzi+p2eXIOnfN1R+31oXWLj7UIFMvMDxu7Oev7HrwweFO838N1Xb74tvJOmPVFkcUzNKpEtMgM0StiTlGdeu9uvva5JxIzvIx58f1sdv3e34iOkDRyy/5/BwH6dZDkODvGTUsAhRR3+rsvew5T69wcV/IiIiZPbs2frHxTC6EEAAAQQQQAABBBBAAAEEEEAAAQQQQAABBBBAAAEEEEAAAQQQQAABBBBA4BQF3Fcl/i7pmTlSW1urf1RdtRUWlRpTRkdFGHUqTSNwNLPMmDiuk784O1pYZeGLjbEcM2vcVK+i7ldBheZPvW6by/ZhlgDSyqoam76mumiK9fXuFmQsd8k3qbLo3STJ0jI5nko5YBXwqd6Hk0SM+tTd4y3vY99JBMidyrqc3RPf0bKG+mM6dvCz+T1l5lh+a+axqRmWv/fO8QEu9/v0ff3k96//pH9efmigeQqb78xjFvdu2nyuStdYS3bUU31fruanDwEEEEAAAQQQQAABBBBAAAEEEEAAAQQQQAABBBBAAAEEEEAAAQQQQAABBE5NwKQCCddv3KkFINUdZXv8uG1mPG9vT+naueOpzc5dDRbQEssZJcDP06g7qvj71R0p66jPUdumnbmSpGXkU8FvJdoxvvXL+t8cH3Nbf1xTXTfW+qb/pYss/TZVX6Y6bnfB33fJM68lSc+EdtK7m/oEyeA+oTLs3HCbo6Id7euP08H1rnYBXo6GGG3BgZb+E2WWNG5q5Iqfi9+Ep8lNJv8pRjuWukJ/apCD/Vj/2Z/o99cuwFPUx1Wx9tu1t0Dumr/R6fAtSZYsiDU1Vn8ITu+gAwEEEEAAAQQQQAABBBBAAAEEEEAAAQQQQAABBBBAAAEEEEAAAQQQQAABBJpDwIhUMwcWenqapKrKEoQW27GDmEyWo2ebY1E8o3EE9iYXyqxnNsu6TWc2gNDZbhp7fef1C5d5M3rrQYXqKGBV1Peu3QX6R6Qu+DBIO5b39uu6yuwbe4kKvmsL5a2nhp2xbRYWVsknX6acsefzYAQQQAABBBBAAAEEEEAAAQQQQAABBBBAAAEEEEAAAQQQQAABBBBAAAEEEDg1AVNCt1gpK68QDw8PCQ4KkPyCYkk+nK7PprIXdtf6Ka1PICu3XCbeskry8iqNxavjlUNDvW2Oy1Wd+fmVWlBprTGuOSpNtT4VNHjR+VHy5if75LsV6VJUVGW3nYKCSnn+9SRZuyVHvnh1lF0/DY0r4Kkd1R0cbMny6Gr24HYNG+dqDvoQQAABBBBAAAEEEEAAAQQQQAABBBBAAAEEEEAAAQQQQAABBBBAAAEEEECgcQRMvXt2NmYqKi6VHbsOGtfqaGRvL9dHoRqDqbQogUde2WYEF/r4eMjLjw6UKRfFOszYN+We1bJ6bVazrr8p19evR7AsfnSI1D58XJKPlsjeQ0WyY1++/PvbFDmUXGzsU+15yY8pcuXFnYw2Ko0vcMH57eWTl0Y0/sTMiAACCCCAAAIIIIAAAggggAACCCCAAAIIIIAAAggggAACCCCAAAIIIIAAAk0q4G49+67dh6S6ukZvCgjwle5dyV5o7dOUdTerk3pLyuyz7lk/u7TMcoS1dbt1ffmvmcbl3Lt6y1UTOjkMLjQGNXOlOdanMjZ2iQmQP42Kkvun95JNSyfI12+N1o78tmCvXO84sNL66OSiEksWSEdMBcWW9+XhYZnbeqyH1TMrK2rleN0JztZDjHpxqfX7dTyfMbiRKiardReXWvbjaPoS7feXfqxM/5SU1f17UX+ch9W/LM7G1L+HawQQQAABBBBAAAEEEEAAAQQQQAABBBBAAAEEEEAAAQQQQAABBBBAAAEEEGhZAkYYUEZmjmRk5Bir69G9k3aUbvMENxkPbcOVqPY+xu4Pp5QY9fqVWi0wLfVIaf1mm+tc7Qhg66ORRw2KsOmvf5GW4Xq++uNP9/pMrm94/wiZPCHG2MIeLbuho9I1NsBoTj5cIsrdWdlvlRWxWyfLfdbj46L8jUt1HHVGdplxXb9y0Gq+zrGW++qPa8zrLjGW56gsj672O3fRFunzp+/0z62Prne4jPbh3kb7/mTHxsYAKggggAACCCCAAAIIIIAAAggggAACCCCAAAIIIIAAAggggAACCCCAAAIIINAiBYwAw6Q9yWKOoQoLDZLYjh1a5ILP1kV17xRobK28vEZ+/DXduLaufLsqTVSAmqsS6G8S60x6aZnOg9mS00rk4CHLscGu5rXu8/U2fjqy72ChVFW7XpP1vU2xvpT0Uplw888yfnrdJ6/QedbB7nEWazdxHETbPd4yRnkv1Y5SdlT2JhfK5u25RlfvrkFG3boSG+knnp4Ws0++P2zdbdRXrs+UAi1A1FzOcTKfub+xvnt0aWdMpfb72Q+O16eyES5LtGTHHNAzxLjPutIt1uJ37Fi5/LbLYmQ9TtX/34NrZehV/9U/7391qH630+vc3FxZvHixjB8/XubPny8HDx50OpYOBBBAAAEEEEAAAQQQQAABBBBAAAEEEEAAAQQQQAABBBBAAAEEEEAAAQQQOHkBPeJp34FUKSisy5qnshb26hF/8jNxx2kJdNaO8vXTAgPN5b4Fm2XHvnzzpf69fW++PPDsFps2RxeeJnfp0tmSSe/xv28X22N36+5KyyqTK2cmOprihG09rQLSioqq5MnXd4rKTNiQ0hTr8/f1kE1bcuT3rXWfuQu3SHZehd1ytu7Jl1f/b5/Rfl7/UKNuXenY3s/GcM5zW+W/ibZBn0kHCuSvD66Tmpq60FxfbQ1Dzw2znsaoq+Oazx9iyST5wpu7ZdmaDKNfVdT7nvHkb0ZbeLiPdLEK1DM6mqCi9htjlcXQ0X7V+7354fWSlVVurGD0UMuejEat0qd7sMTHWX6Ddz2+SVIcZMp8+z8H5YflR+XAwWL9ExFiyeRpPZ+j+vXXXy//8z//I4mJifLMM8/IiBEjtOBb18c7O5qHNgQQQAABBBBAAAEEEEAAAQQQQAABBBBAAAEEEEAAAQQQQAABBBBAAAEEEHAsYCqvqJT9B44YvVGR4RIe5jgLmzGISqML+Hp7yEN39pZHXtymz52pZR288LoVelBapHbcbGZOhazdeMwIZjvRAq6d1EmefGWnPkxlKOx32fcy/aouEhbiLR5asNvmpFxZ+m2qVFeb81aeaEbb/nN7hEhEhI+o7HSqvPbuXv1T/1TtF/42QG66oovtzdpVY68vLNhb+p4TLNt31gVlLvkmVdQnVjtiuF+vYD3DYvKREtmzt9BYi1rr5IssxyUbHVpF9b0xf4hMuGGlHNeIVFbB6+5dI9HRfhIZ4SsFRZWiHyVsdZbwE7P6Srjm66y8/NAAOe8vP0plZa2oLJXXzPhVX3OCli3xSEaZHiBpDlZUc7z22CAxeWgLaYai9vvPBUNk4o0/6/tVQaNqv127BIjKblhYXC2/b8uV0tJqYzUTxkbJsL7hxnX9yt8fHShX3vWrVFTUaP/GFMl5V/wo40ZHSpxmuFc7mnqDFhBaWGgJCOzeLVAmjIyqP43D68zMTFm5cqVNX35+vqxevVrGjh1r084FAggggAACCCCAAAIIIIAAAggggAACCCCAAAIIIIAAAggggAACCCCAAAIInJqASR2NXFFZF+RjMnlIb7IXnppkI9x129Xd5KvlabJxc44+W60WvPbr+iybmYdrGeNUcNvOpAKb9voXM//aU376NVPWbcrWu/LzK2XRP3fXHyZT/xwnJVrQ2Ff/TbPrc9Xg5+Mhr88fLFNnrrE5slkF41mXvEL7LIKqvynW98lLI2TM9cttMuylppaI+jgqs2/rKYPPcZzBUI0f1DtUnry/nzzx8nZjj0ePlor61C/XTomT6Vd0rd9scx0X7S+LHh4gs57cbMynAiLNQZHmwSrYb8b0HjJueKS5qVm+h/YJk0fv6yNP/e9OI5DVnFmw/gJ6JLSTNx8fUr/Z5np4/wj5z+sj5cq7E6VMO1pZBRp++5Pj31lcJ3/5cvFoPbDTZhInF2FhYRISEiJ5eXk2I2JiHAeM2gziAgEEEEAAAQQQQAABBBBAAAEEEEAAAQQQQAABBBBAAAEEEEAAAQQQQAABBBok4J56xBLAFhcbKQEBvg26kUGNL6Cy1X33jwvkobt7izpu17qYTG5y0zVd5N+LRoi/r+UoZZX50FHRkhTKF6+NlgUP9pPAQE+7IQEBnloQW4K8+OBAu76GNlw4tIOsXTpeplwSIypATB0D3NDSFOvrEOYjaz8dL3Pv6i3BwV4Ol6LW2P/cUPnqX6Plb7ed43CMdeOd13aTNUvGy0WjIm2OsFZjvLzcpV/fUPn6rdHy2iODGxQcN3VSvKxberGMOr+9qHdqXVRgYZ/ewfLj+2Plsbv6WHedsO7n5HdwwhvrDZh5fQ99vyPPs1+fGhqmZdNcqAVJJn44TgL97X9X9aaT8/qFy9f/vEBUYKzaX/3SoYOvPK39RhM/Hi/q/TW0mEwmWbhwofbvVd0xzOr6jjvukISEhIZOwTgEEEAAAQQQQAABBBBAAAEEEEAAAQQQQAABBBBAAAEEEEAAAQQQQAABBBA4gYDbca2cYEyr6M7Oqcvod7Yc76zeSmpGqeTkV+jH5MZ39G9QQJejl6Xmysotl4zscqmoqpGwIC+JjfQXL093R8Obva2p1pevZXo8mlUmxWXV+rHQkeG+Ehnuo9dPdZPH8iokW7MM1AI0o9v7yUnEVNo9srrmuBw+WizHciskpJ2XxMcEiHcLeSdqsTVaBs0j2m8wI7tMvL08RP0GgwMdB27abc5BQ15hpT5flbZvdUx3jBZcqI62Pp1SU1MjaWlp2nHdEVpQLsHRp2PJvQgggAACCCCAAAIIIIAAAggggAACCCCAAAIIIIAAAggggAACCCCAgCOBsy0uy9EeaXMuQIChcxt6EEAAAQQQQAABBBBAAAEEEEAAAQQQQAABBBBAAAEEEEAAAQQQQAABBBBAAIE2LUCAYZt+/dIyUti17XfA7hFAAAEEEEAAAQQQQAABBBBAAAEEEEAAAQQQQAABBBBAAAEEEEAAAQQQQAABBBBocQIEGLa4V8KCEEAAAQQQQAABBBBAAAEEEEAAAQQQQAABBBBAAAEEEEAAAQQQQAABBBBAAAEEEDjzAgQYnvl3wAoQQAABBBBAAAEEEEAAAQQQQAABBBBAAAEEEEAAAQQQQAABBBBAAAEEEEAAAQQQaHECBBi2uFfCghBAAAEEEEAAAQQQQAABBBBAAAEEEEAAAQQQQAABBBBAAAEEEEAAAQQQQAABBBA48wIEGJ75d8AKEEAAAQQQQAABBBBAAAEEEEAAAQQQQAABBBBAAAEEEEAAAQQQQAABBBBAAAEEEGhxAgQYtrhXwoIQQAABBBBAAAEEEEAAAQQQQAABBBBAAAEEEEAAAQQQQAABBBBAAAEEEEAAAQQQOPMCBBie+XfAChBAAAEEEEAAAQQQQAABBBBAAAEEEEAAAQQQQAABBBBAAAEEEEAAAQQQQAABBBBocQIEGLa4V8KCEEAAAQQQQAABBBBAAAEEEEAAAQQQQAABBBBAAAEEEEAAAQQQQAABBBBAAAEEEDjzAgQYnvl3wAoQQAABBBBAAAEEEEAAAQQQQAABBBBAAAEEEEAAAQQQQAABBBBAAAEEEEAAAQQQaHECBBi2uFfCghBAAAEEEEAAAQQQQAABBBBAAAEEEEAAAQQQQAABBBBAAAEEEEAAAQQQQAABBBA48wIEGJ75d8AKEEAAAQQQQAABBBBAAAEEEEAAAQQQQAABBBBAAAEEEEAAAQQQQAABBBBAAAEEEGhxAgQYtrhXwoIQQAABBBBAAAEEEEAAAQQQQAABBBBAAAEEEEAAAQQQQAABBBBAAAEEEEAAAQQQOPMCBBg20zvIzikQ9aEggAACCCCAAAIIIIAAAggggAACCCCAAAIIIIAAAggggAACCCCAAAIIIIAAAggg0BoECDBsDW+JNSKAAAIIIIAAAggggAACCCCAAAIIIIAAAggggAACCCCAAAIIIIAAAggggAACCCDQzAIEGDYzOI9DAAEEEEAAAQQQQAABBBBAAAEEEEAAAQQQQAABBBBAAAEEEEAAAQQQQAABBBBAoDUIEGDYGt4Sa0QAAQQQQAABBBBAAAEEEEAAAQQQQAABBBBAAAEEEEAAAQQQQAABBBBAAAEEEECgmQUIMGxmcB6HAAIIIIAAAggggAACCCCAAAIIIIAAAggggAACCCCAAAIIIIAAAggggAACCCCAQGsQIMCwNbwl1ogAAggggAACCCCAAAIIIIAAAggggAACCCCAAAIIIIAAAggggAACCCCAAAIIIIBAMwsQYNjM4DwOAQQQQAABBBBAAAEEEEAAAQQQQAABBBBAAAEEEEAAAQQQQAABBBBAAAEEEEAAgdYgQIBha3hLrBEBBBBAAAEEEEAAAQQQQAABBBBAAAEEEEAAAQQQQAABBBBAAAEEEEAAAQQQQACBZhYgwLCZwXkcAggggAACCCCAAAIIIIAAAggggAACCCCAAAIIIIAAAggggAACCCCAAAIIINF+9F8AAEAASURBVIAAAq1BgADD1vCWWCMCCCCAAAIIIIAAAggggAACCCCAAAIIIIAAAggggAACCCCAAAIIIIAAAggggAACzSxAgGEzg/M4BBBAAAEEEEAAAQQQQAABBBBAAAEEEEAAAQQQQAABBBBAAAEEEEAAAQQQQAABBFqDAAGGreEtsUYEEEAAAQQQQAABBBBAAAEEEEAAAQQQQAABBBBAAAEEEEAAAQQQQAABBBBAAAEEmlmAAMNmBudxCCCAAAIIIIAAAggggAACCCCAAAIIIIAAAggggAACCCCAAAIIIIAAAggggAACCLQGAQIMW8NbYo0IIIAAAggggAACCCCAAAIIIIAAAggggAACCCCAAAIIIIAAAggggAACCCCAAAIINLMAAYbNDM7jml8gO69CUjNKm//BPBEBBBBAAAEEWqxASUmJ5OXltdj1sTAEEEAAAQQQQAABBBBAAAEEEEAAAQQQQAABBBBAAAEEEECgJQgQYNgS3gJraDKBa2evkZ7jv5H+k76X0dcvk/KK2iZ7FhMjgAACCCDQnAK1tfxv2ql633jjjRIYGCihoaEyZswYqampOdWpuA8BBBBAAAEEEEAAAQQQQAABBBBAAAEEEEAAAQQQQAABBBA4qwVMZ/Xu2NwZEZi7cKvsTynSn3371d1k/IjIM7KOdVuz5adV6cazdyYVyBfLU+XaiXFGG5WWLXAorVgeeH7LCRf5ztPDJNDf84TjGIAAAgg0tUBmZqbMnj1bf0x4eLi88sorjfbI0tJSefXVVyUxMVE2btwoGRkZEh8fL4MHD9aD5G699Vbx8vJqtOc1ZCLr/dYf7+/vL506dZK+ffvKxRdfLL6+vvWHnJHr3bt3y3vvvWc8e9WqVbJ8+XJ9jUYjFQQQQAABBBBAAAEEEEAAAQQQQAABBBBAAAEEEEAAAQQQQAABXcCUdSxPCouKpai4TG8IDPCVdoEB0j4iBCIETklg7ZZs2bErX7/3ktFRpzRHY9zk4eFmN01RSbVdGw0tV0C9r5WJmSdcYEVlrRZgeMJhDEAAAQSaXEAdu/vRRx8Zz2msAMNvv/1Wpk2bJjk5OcbcqpKcnKx/lixZIs8//7x8/PHHMnz4cJsxTXlRf7/OnmUymeSdd96R66+/3tmQZmv38PCwe1ZhYaFdGw0IIIAAAggggAACCCCAAAIIIIAAAggggAACCCCAAAIIIIAAAiKmNeu3O3QIDgqQvud0k7DQdg77aUSgpQsM6RMm40ZHyvLVGXL8uEjvnkEydRLZC1v6e2N9CCCAAAK2AuvXr5dLL73UtlG7ateunVgHxqWkpMjo0aPlwIEDEhfXsv73rrq6Wv7617/q673rrrvs9tKcDd27d5cbbrhB3n//fe3/fXBcRo0aJZdffnlzLoFnIYAAAggggAACCCCAAAIIIIAAAggggAACCCCAAAIIIIAAAq1GwOkRyfkFxfLrum0yZFAvieoQ1mo2xEIRsBb45KURkp1XIeWVNRLTwc+6i3orEOgaGyjfvXOB3UqPHiuTWx7cYNdOAwIIIHC2CZSXl8tVV11lbCssLEw++OADueiii8TT01PKysr0437vvfdeqayslJqaGrn66qtl7dq14u7ubtzXXJXU1FRxc6vLIJyVlSXbt2+XefPmyZEjR/Ql3H333Xr/nXfe2VxLcvgcdUTy4sWLpaqqSoKDgx2OoREBBBBAAAEEEEAAAQQQQAABBBBAAAEEEEAAAQQQQAABBBBAQMtgqP4/nzvFdpDwsCDdIzunQFJSM6W2tlb/7Nh1QCLCgsVksj9ODkAEWoNAeIh3a1gma3Qg4O/rIcPODbfrSc0otWujAQEEEDgbBX788UdRQXuqqMC9jRs3SufOnY2t+vr6yh133CFRUVEyZcoUvX3Dhg2yf/9+SUhIMMY1VyUmJsZ4VMeOHWXAgAFyzTXXyKRJk2T58uV634MPPig333yzeHl5GWPPRMXf3/9MPJZnIoAAAggggAACCCCAAAIIIIAAAggggAACCCCAAAIIIIAAAq1KwDRUy1AYaZWhMCa6vUS2D5X1m3bpx8aVlJTLweQ0SejWqVVtjMU2vUBGtvbbOFIk4cHe0ikqQHy8GydTkso4mKIFkKljCxPiAiXQ37PpN3MGnlBcWi1Hs0rlmLbfoABPiW7vK6FBpx8M2VL91DHVGdllcvhoib7fuI4B4ufTsgKX84sqZU9yoQT4ekpctL8E+DlN8nrCX0xV9XFJ1/abX1gpKpeXCnTtEOajZRSry+x1wgnqDWjs+epN3yiXFVW1kppeIhWVtbpdbJS/nOJ29fU01vuoqq6Vzbvz5JyuwaKCVs2lpva4bNHa1b9h6n2fTGmKv18V2K+CwuLj48944JUjC5VJLzs7W8/2FhAQ4GjISbeVlJRIZmam/u99bGzsKe+7uLhYCgoK9Hk6dOigZ/Y76cU08Q0qs6DyU1kG/fz8RGUibEhRwYLmorL+WQcXmtvV9+TJk0Ud/btv3z69ec+ePWckwNB6Tea6t7e3nnUxOjpaf0fqfal9jRw50jykQd+N9Xtp0MPO4CD1G8nJyZHc3FwJDAyU8PBw/TdzuktqK36n68T9CCCAAAIIIIAAAggggAACCCCAAAIIIIAAAggggAACCCBgK2CyDi40d6m26KhwSTt6TG8qKiZbmNmmrX9r8Tjyyv/tllfe2StFRVUGh5eXu9wytZvMu/0c8fBoWKDh9Hnr5fsVR/U5ZtyYIFdOiJXZz22RtRvqfnfmyWNi/OT5B/rLhJFR5iaH3xdOWyG79xY47DM3piZOEZOH6wCvRe8myQtv7tZvCQvzlm1fTzxhkNQVMxNl7ca6dV95aaz8fd5g8yPtvnfsy5f5r+2Ulb+qTKEaqFXp1zdUHry5p/xplOu9qlsa289qGY1aTU4rkbkLt8rq9VlSXl5jM3fHjn7y0O295JqJ8Sc0trmxES9UwOPDr2yTTdtyJSur3Gbm9u19ZK62vr9e3rlBgYHqdX6xPFWe+0eSHDhYpAXS2Eyn/W24yflDImTOrT1leP8I204HV409n4NHnFLT5qQ8mTj9Z/3eoCAv2fndRHnx7SR59b19UqoFzpqL+ndh6uQ4efLefjaBfeZ+R9+n+z7Wb8+WKbet1qe+64buWoCySRa9tUdKiqvF29tD+3eqq8yf0VfeWnpAnl68S/LzK/Wx/c8NlU8WDdcDQR2ty9zWWH+/5vnM30uXLpUZM2ZIXl6etk5vueeee+Spp54yd5+xbxXgNGfOHPn2228lPT3dWEdQUJCMHj1aXnzxxQYFsan9vPPOO/r9zz//vFxxxRWijsr9/PPPjTlVpXfv3vq4oUOH2rQ7u/j0009FHQ2ckZFhDFFZ8R566CH529/+pgfd/fLLL3qfetbFF19sjGuuigqWf/PNN2Xu3Ll6EKT5uSrI8P7775eHH37YZUDk+vXrzbfI+eefb9QdVYYNG2YEGO7YsUMuu+wyR8POSFtkZKT06dNHPzJZLSA5OdlpgGFj/17GjRunHxntauMq6NF8tLOzcW+//bb+d6r6VaZGFcR5onLdddfJl19+qQ9Tv9Wnn37a6S0pKSn6cdIff/yxftS19UC1B/VvgnrHJyqN7Xei59GPAAIIIIAAAggggAACCCCAAAIIIIAAAggggAACCCCAAAJnt4DTSLCw0HbGzlUWQwoC1TXH5bI7VslT/7vTJrhQyVRqGcsWv7dXpj+8TgvEaphVpZbtTN2nPgdSi2XSbb/YBReqmY4cKZXr7l0j817e5nLiqqoaYz7zvPW/XU7wR+fE0dHGPOnpZbJ+m23AY/05cgsqZPXaLOOe4f3tj/Q137NxR45ccvMqWb46wy64UI3Zuj1Xrp+1Rj76Jtl8i9PvxvZz+qDT6Hjjk/1y3l9+lJ9WpdsFF6pp09JK5Z5Hf5Ox05ZLSZlt8OFpPLbBt376Q4qMvGaZfLfsqF1woZpEBRzOfnKzjLlhuZRX1J5w3mlz18qtc7SjSQ/YBxeqm2u0v6HEdVly2c2/yGsf1WUZczVpY8/n6lkn06fiJs1/W8eOlcu8l7bJ868n2QQXqvnUmPc+OyTDrvqv5BbUBfK5ek5jvI/j2msyr+3HxAxZ8PddenChem5FRY289u5eefs/B2XeC9uM4ELVt0ULML3lEUumONVWvzTm36/13Cqz3X333acHF6r2iooKWbhwoU1An/X45qp/9tlnoo64/de//mW3FpUt8Ouvv5YePXroAXInWpPKyFZaWqp/du/erQdJ1Q8uVHPs2rVL73vuuedONKXceOON+tG71sGF6ib1rCeeeEKmTp0qhYWFxnOV85koKqBMZR5UZtZFecyfP18PuisrK7Pusqn/5z//0f538Ij+ueqqq2z66l+oDJjm4uFhydZpbjvT3wMHDjSWoDJXOiuN/XtR2TfNvz9n387WYt0+YcIEY569e/dKUlKSdbddXT1LBcGan6mCcp0VlXmyf//+eqZHR7/VZcuW6QGm33//vbMpjPbG9jMmpoIAAggggAACCCCAAAIIIIAAAggggAACCCCAAAIIIIAAAm1SwGkomJ+vjwFSXW3JSGU0UmlzAm8tOSDrNmUb+3bTEgEO7h8mKmPfkAFheoa3/65Il81bc40xDa188f0Ryc2p0I7e9JLxF0TJFRNjpUeCJchVzfPG+/tk3VbL8xs698mO69klSLp0thz/+cl3KS6n+Obno0awoKenu1w6pqPD8eu3aZnVbl8tpSV1f08qu9uk8R1lxvQEueqyThKqZUtURWW9m/HYb/LeFwcdzuOosSX5mdenMsk9/MJWqdICSc0lJsZfxo2OlKEDw8TH6njk7TvzZdYzv5mHNcv3inUZcue8jVrgh+XfN1/t+NwLRnSQUee3146jtByPvDOpQOYu2uxyXZ98f1gPVLQeFBjoKWNHRepZC9Xc1uWxRdtk+9586yabemPPZzN5I1/86+O6oCb1N/uXSbG6ocoWaC4qUHfey1vNlw6/G/t9qIfs2l0g/fqGyOOz+2rfocZzH1iwWSIjfeXhmefIny6KNtpVoPBe7YhsR6Up/36PHTumH51b/7lbtmyp39Rs1ypQ7ZprrtECgy3/BwadOnWSwYMH6wFx1pneFixYIF988UWD1/bqq69KamqqREVFybRp02TmzJkyfPhwm/tVtj8ViOisqGCr9957z+hW67nkkktk1qxZMmnSJC1bqIeowLw1a9YYY85U5ZFHHtEfrbIJqoBClbkxNNTye1SBao8++qjT5akjclWgp/qo7JbOisrAt27dOqO7Z8+eRr2lVPz9/Y2lqMyODSmN8XtpyHMaMka9A+sgSZVp0FVZvny5kYlQvbsLL7zQ4XCVCVHNqzKYqqKyW95+++3y0ksvyezZs0UdH66KMps4caJ89dVX+nVD/tOS/BqyXsYggAACCCCAAAIIIIAAAggggAACCCCAAAIIIIAAAggggEDLE7BE0NRfm4oeoyDwh4DK3rZg8U7DIyLCRz56abgM7BVitP22K1ematn3crIrjLaTqUwYGyVvPj5EO9LU07jt65/T5LaHNugZyVTjnBe3yqr3LzL6rSurPhhndyTtlt15MuGGldbDGlS/dlInefrVXfrYL39MkxcfHOj0aOXPfkg15rxwZAeb9RsdWuXuJ34zsvh17RIgn70yUuKiLcEWRSVVcusjG/Vsf+q+Oc9ulckXxUhwoJf1NE7rp+vndOJT7Ljt4U3G+wgI8JTXnhhkE3yZnVchd8/fJMt+qTvadOm3qXLL1V1laJ+wU3ziyd32+r8PGDeEhXvL288MlfP6RRjvOSe/Qm58aL2s+ePI7veXJMucW3pLVISvcZ915fNlacZldLSffPDi+dI3Idg4+lkdh524+ZhMnblG/x2o2JqVGzL1McaNVpXGns9q6kavuru7yT+eHSJTxtYFwagHHMkslWtn/SpJe+oC9j79KkUeubOPRLd37NfY70OtQa1rySsj9L+hv14eL93HfmMEA7/55GAZ1rcu22i/yd/rmVLVPUmHCiUh3ja4WbU35d+vOjp21KhRsnr1avUovahArDFjxvxx1fxfV199tR7MpJ4cFhamBxCOHDnSWIg63lYdc7x5c13grcommJaWJtYBZMZgB5Xp06fL66+/Luo4Y3P59ddf9SOMVbY3Ve666y5ZsWKFudvm+7bbbjOuVaDizz//bHNU84EDB2Ts2LGijpw908XT01MSExNlyJAhxlKeffZZufzyy2Xlyrr/fVJHTaujktXR06dafvrpJ+NWk8nkNJjNGNSKKqf7e7H+2zJvW/1Gunfvbr5s8Lf6Xd5yyy36eHX0tcqWaR1waz3Ru+++a1yqo5KdBYiqbJsqQFQVFcT7ww8/6H935pufeeYZUb95c1Ct+vvMz8/XAvUt/8dA5rGOvk/Xz9GctCGAAAIIIIAAAggggAACCCCAAAIIIIAAAggggAACCCCAQNsRMDIYFhWXivpQEHAkcOhIkXHMqOpf9NAAm+BC1Taod6g8+0A/VT3p4udvksWPDrYLzrtMywY4c3oPYz6Vkayq2nHWIw8tmMjkYfvx0jIKnkr5y8WdjNsKC6vkl42Oj3JUQWjWWR1VYKKjsmNfvhxKrgseUP2vPjbYJrhQtanAysVau7JQRWX++2alJWhNb3Tyn8bwczL1KTWnZZVpAVslxr3PzelnE1yoOsJDtKC+p4eJClY1l3Vbmj5DpXpWZk65rNSOzzWXfy4YKiMHtjeCC1V7WLC3vKOtT2WlNJed+2yPODW3q++k/ZbMd7Nv6iH9eliCC1W/CnYbPai9LJw3QO6/o5f+GXau82DKxp5PraGpyl3TutsEF6rnxHTwk389NdTmkXu04D1HpSneh3rOOb2CjABdFairshmqorIrDjnHYj9ueKTerv6Trh2LXb809d+vet6HH34oKhOgCjRUWfhUQJqvr+NgzPrra+xrFbhkDhw0r806uFC1xcfH60ckm4/hVcf/btu2rUFLCQkJkddee80muFDdOGLECFGBdubyyy+/aAGhteZL47uoqEgOHTpkXKsjnBMSEoxrVenatasRjGXTcQYuXnjhBZvgQrWEgIAA/Z1bL+fgwYPWlydVV8Fpt956q3HPHXfcISrz4dlQTvf3ogxUAGD9jwr8PJUyefJk47asrCxxlmlUBcp++eWXxtibbrrJqFtXVBBs/b83FdRrXVQgrgrIVRaqqGPUVXbEhpTG8GvIcxiDAAIIIIAAAggggAACCCCAAAIIIIAAAggggAACCCCAAAJnr4AeObNtx35Zseo3/aPqFATqC+xPtQTHqeCcS0ZbjhW1HjtlbIyYTCef/XL4oHAjEMh6PlWfOjHOaFJZ4FIzLIFrRkcjV+I7+uvBSeZpP7XKUmhuU9/faBkW1ZpUUUf+Thju2OXAEYtfeLiP0yx9oUFeMmpYhD6f+s/ew5b7jEYHlcbyS8kolZ37C074cXaMrHlpW5LyzFU9QO/qSyzv0OjQKv6+JhmnZX00l627nR8ZbB7TGN/tQ30kbe2f5ei6us8F/5+984CXolbbeKRIL9JEBQVEUVBQVIpesWHvBSs2FAte27X3ju3DXq5d7NhFEbuiAmIDLIBgQZr0JkjnfHnCTU52zszu7E5md3bPE36HycxkUv7JJDvJm/fdsZlvtBCCtM1lTwgQkMPD9epUNXFAm2eQO1a25yv6tld/XTs2CQrmPD4k5Kp+vZm231H7HsyNwxSxdhMn/629Kcc46gMJ1K2dKkBUX2rShIN5cgh8alf3f0K9OPez2hr3+4t0mzZtqkyhfvDBB6J///6ikOZtbUE3aEjbd999kcUKDuZi9957b3N9/Pjxxp/OA1PBQZrXevXqZR5ds2aNmDdvnjnXnhkzZmivOtp5sG/stttuFYQY7fv58h911FG+SUHzoq1Bb9KkSb7hMl2EEOaxxx5rWMH8MtpQqbio7cU1hyZNmgi0Le2ee+457U05wow32jAcBEq9ZsB14D///FN7leCuV1hW34TA8eGHH65P05oQN4GkJ2n87LzRTwIkQAIkQAIkQAIkQAIkQAIkQAIkQAIkQAIkQAIkQAIkQAIkQAIkUBwElKq0adNnG1OI8Hfcpm1x5J65zBuBGbOWmbQ227SO1ARkTlM8ENpp2aJOira+lAABJxDoC3KbSE1oSE8L/syat0y0aVE3KLiz68cd1EpcPX6sim/IxzPE8ivXippSMMl2r7w3zZwesOfGomaN1Pv65qw55VrR2rZKn/fNW0Lr1F/q0dlS014Y54rf5QPGiPc/WZd2unShdXDCewcGBpkqBRW1ay3La8ly6cvm2P+CTuKSPlurcwhY5sOhPdWwNBOmS7NZ45riF7FO897KVeuERfzCt2/bwJgDfvWdqbKN1hG9D24t8HwuznV8yIOr+vWWp+VGwe9v65Z1xcyZ6/qPpctWeR9V53HUh29COV6M+/3NMVuxPQbTsdp17NhRe32PuA9zrnBhBQxtoTpvpBCOg6a5sv91+HPnzlXCl3a4WbPKNcpCSC9IEx3i6dChQ4p2ODuefPmbNfMXYEb6yJ8WLNQmcrPN1yWXXCKGDBliHnvxxRdLRnshChW1vRgwDj3QEDls2DAV4xNPPCHuuOMOobV56mSeeuop7RUwUey9r2/OnFmuTbdTp/RaoLfeet1YiWe9grY6Pu8xify8eeQ5CZAACZAACZAACZAACZAACZAACZAACZAACZAACZAACZAACZAACZBAsgkoAcOaNdcXK1etVjmFn44EvAT+p6RPXfZqBfOGrVNbNSvv5bTntdM8U11qRDx0vxbSrO0KFUeDuvlpo4f3bCGu+b+xSrDxn39Wi49HzhQH7lauoXDuAphHnmPKdcz+/uaREWCNZeVz3MRFot+N35jnvJ4x48u1+K1Zs047ojeM9zxp/LQwKPKZqb1Aq5zWLOctVz7Ov/15vhj/2yIxSWqLXCrr2etGfRfObHOfI9uI14ZMVY/DvPUt948Ttz44Xmy1ZX3Rvi3+Gogdt2kkoLUQprwzOdfxZUovyv1aUqtpkMtWo6mr+gjKTy7X435/c8lTnM9orWtIAwJ/6Zw22YowK1euTBfU3EtnurdKlSrinHPOEdOnT1fh/cJq4UMEaNiwoYnXz5Ppvt8zrq9VqxY8JsL0bRQ3YMAAcdddd5kobr31VrHPPvuY81Lw+LUBXa4w7UWHdXk84IADjCAszIOPGjUqRUPh0qVLU8wjn3TSSYHJ2+/byJEjxWWXXRYYFqbTtVu9uuJ4pe/ZxyTys/NHPwmQAAmQAAmQAAmQAAmQAAmQAAmQAAmQAAmQAAmQAAmQAAmQAAmQQPIJqFXvrbbcTPw+eYbKbZtW5QJUyc8+c1hZCDxxc9e8F7U5TBl3biK0gNlL7/6ZImAI88hakK6uFJLbrcuGofK4ePEqMeitKaHCugoUlt8u2zcVa1ZnFmrcqFluWvlclcdFPDDzfOGto6WQaDgBwkxpduvURFx1bnslVKjNZuM4bsIi9SfEOuHDBlJL45nHby7+c8rWAsKzQc51fEgnyfXruj6CuEa9Xoj3N2qei+35+++/v9iyXJD8wjTvxRdfbNLu3bt3WuE0E7DEPIVoL/Xr1xcHHXSQePvttxXNgQMHpggYwjyyFoRt3Lix2H777UNRnz17ttKGGCqwo0CF4Oco64yGBEiABEiABEiABEiABEiABEiABEiABEiABEiABEiABEiABEiABEggTwSUgOHGGzUV+KMjARJIJXDsgZsaAcMPh80US5etFnVqrdNG9cp76wTG8MSh+26SVljMjrW6NM3bsGE4rVUN64cLZ8cfxX/O8VsI/JW6mz1/uTjg9GFiwYJyjWsw792oUY0K5r8XLlwpoJEwjIPQ4F7dNxKPDJok3pWmpv/+u6JJ4EWLVoo7Hh4vRo6ZJ958YNe00bqOL6n1G1d9pIWb480kv785FqmoH9NCXEGFWLs23Lsb9HxSr7///vvixBNPNNmD1sKnn35aadUzF+mJlUDfvn2NgOEzzzwjHnjgAWOu2zaPfOaZZwpoWgzjatasKWD2O4yD4CIdCZAACZAACZAACZAACZAACZAACZAACZAACZAACZAACZAACZAACZAACeSDwDpJqXykxDRIoAgJHLzHJuLiW0YLmCqGkNm7n88QvfbdVMyR5pG1ZkMUK515ZG+xd+veTAy6exfvZZ7nkcA19/5ghAtr1qwq7rm2szhsr5a+QqKH/fsL8cXI2aFz16ldQ/HQtTuJtVeXickzloqJf/wtfpq0ULw0ZIr4Y/ISEw/ifPWDKeKofTY11/w8ruPzS6PQ1+KsD9dl4/vrmmj28dWoUcM8NGVKem2wf/zxhwlbKp5vvvlGHHjggaY4Xbp0EYMHDxZVqwabKjeBC+xZtaqi0HWBs5Rz8j179hQwfw1TxcuXLxeff/652GuvvcSSJUtUfeiIjz/+eO3NeDz66KMFtCHSkQAJkAAJkAAJkAAJkAAJkAAJkAAJkAAJkAAJkAAJkAAJkAAJkAAJkECSCASqVClVrT9Jgl9MeVnPsuS6dFl6AYF/pJa/UnEbSA2CPaRAoHYvD12ntfCdT8vNIzdqXEN0l+Zx07mq1pu2dNmadEFL4l61quUNZsk/6dsLtEL+NWeZ+ssXm4+HzzKcL+/XXgmNpjNXbAJn4YFGxDYt6or9dt1IXNxna/Hta/uKt5/oIQVSytl8Oiq84KLr+LIoSuxB81EfUQpR2d7f6tWrG1wLFy40fj+PfR/CVvlwm25aLpT7zz//iPnz5/smi3uZBBB9H0zwxYkTJ4rdd99dCr2vG0e22mor8fHHHwtb6DLB2Rfjxo0z2dtggw2Mvxg9tWrVEhAI1E5rLbTNI7ds2VK0b99eB/E92oKhixcv9g3DiyRAAiRAAiRAAiRAAiRAAiRAAiRAAiRAAiRAAiRAAiRAAiRAAiRAAiRQSAKW2FNqNpYuXWYu5EtowCRIT+IIbNSspsnTn1OWGr/Xs7ZMiKnT/vFeLurzYw4oF2b5fOQsZSZ58KczTJl67d9Smj8sFxozNyxPsyblGrd+nfy3dac0vW1a1DEFg9Y+tIsgd/ldY8Q2+72r/vpeOyooWNrrq6WGybBuvjRRbJtG3nWH9Obhp89015533q6pNKfdwmT1F6ndMIpzHV+UvOT6bCHrI2yeK93726aNQTNmzBjj9/P88MMP5vLWW29t/HF6mjVrlhJ9//79U871yR133KG9OR2hbe/bb78VS5cGj3k5RZzjQ9OnTxfdu3cXEJyEa9Gihfjyyy9F3bp1c4wx9bG4y7tixQrx3XffmUQhfFfsrk+fPqYIr7zyitR0vEq89NJL5lq/fv0ymq3ecMMNTfixY8caPz0kQAIkQAIkQAIkQAIkQAIkQAIkQAIkQAIkQAIkQAIkQAIkQAIkQAIkkBQCgQKGs2aXawSqWXP9pOSX+SgQgS02rWdSXr58jfhg+F/m3PYMGTZdmRK2rxW7/4AeG4vq1de9KqtXl4m3pfbCkd/MMcXqtV+5AKK56PG0bVnOb86c5eK7ceXvlyeoOOHSkaJLr/fV37ODi9O8Z7s29U2xYFr6lff+NOe2BxoLP/qyXJvg9luF02gFzZK2++zr8jjs637+enWqSVOi5QKh02eVC1N7w0+evlT8/ke5WWPvfX0+5a9/xL6nfSb27rPub8HilfpWheMWm5W3hfVEeT7sgK7js+NOmj+O+nBdxny8v9DC99BDD4m9995b3HjjjeL33393XYzQ8bVu3dqEhelXaMjzc3/99Zf48MMPza0OHToYf5webHo49dRTTRIDBgwQ559/vkB+IOCF4yWXXCJuuOEGEwaesrLwgsivvfaa2GSTTcSuu+4qmjdvLq677rqUuPJ9gvYB4UKtrRHa/0aOHCkaN27sJCv5KO+1116rTAkjw+tJtchdu3Z1kvdCRtKjRw9Rs+a6DRgrV64Un376qXjrrbdMlmwNh+aix9OqVStzBSa9f/vtN3Pu9fTt21fstNNO6u+dd97x3uY5CZAACZAACZAACZAACZAACZAACZAACZAACZAACZAACZAACZAACZAACcRCoMr4XyZXiBjX5s5bZK4337CR8dNTOQm0lqZea0vBLO0uuGW0+GlSqunMHycuFJfcll7blX6+mI51alUT++y+kcny9ff9ZIQoN964tth+68xCcdts0VC02qxcy1S/678VU3w04z35+u/ivY9niN9+X6L+mm5QrjnSZKAIPJs0qy21a5VrMbzs9rHi/S9ThVKhue60q0eJ2bOXmxL16JJem6AOWLd2NSn0U0ufiruemiA+GjFTrEmnKvF/oatXqyLatC6vi+vv/1Es+aeiWe/ps5eJo8770qSRzlOnVlXx7Zh54vux6/4uHzBGzF2wosIjY39ZKB54ZpK53m07/77VdXwmwQR64qgP18XMx/vbu3dvcdFFFymNdLfeeqvYZZddlLCc67KEia9hw4aic+fOJijy9vXXX5tzeKZNmyYOO+wwsXr1unenfv36omPHjilh4jyBdsL11y8XNL7vvvvExhtvrK7h+H//939KiK1BgwYmGxBqC+MgiHjFFVeIv/9ep2EUZUR6tjnoMPG4CgMhTwg6Tp06VUVZu3ZtJVwIDYYuXJzlhSnnP//8U6AN2RolTzvtNGHXjYtyFCIOmBM/+eSTTdJnnXWWEaKE+eo2ljZQE8jjgcnv7bbbzlw9/vjjjSCpuSg9b7zxhnj88ceVVk1o1mzaNNx4acdBPwmQAAmQAAmQAAmQAAmQAAmQAAmQAAmQAAmQAAmQAAmQAAmQAAmQAAnkQqDaL5OmCGgrbNBgncDNokVLxEL5p13jRvVFy03Kzbfp6zxWLgK1alQVV5zdXlzzf+vMYc6SWt/2OP4T0X2npqK5NP87a94KpdVvTRamal0S/O+gX8XVd46tEKVXYVXzrq9XCFO3bnUx+bNDKly3Lxy7/6ZiyIfT1SVoINTu2AMzay/UYe+/trM4qt9wsWLFGvHrb3+Lbkd8IHr2aC42k0KKE6Wp3K+lgNrixat0cLFF23pi33+VCzaaG0XggRzPY7fsJA445TOpNUxIQZ1V4vjzR4jN29QV0G64eMlq8f0P86Wpz3LBvn333Eh03bZJ6NKd1qu1uOX+cSo8BDKPOXe48ntliHbo1Fi8/8TuKfGi3m6692d1DRoKOx08VPTp1UY03qCGqCrNXY8eP1+8NmSqFJ6SmQ/hGjesIbbt0FD8+PM6odtX35kq8NeyZR3RaeuGYtXqtWLytKXil4mLTWzI56F7+QsIuY7PJJpQj+v6iKOYcb6/s2bNUprP7HxDmO2LL74Qe+65p305b/6XX35ZbLHFFkrr38yZM5W2OQhMtZLa1ubNk4K0338vIDym3VNPPSXq1CkXKtbX4zo2adJEjBgxQhx88MFKY6FfOq+++qqAdkOEy8bBFLEW5rOf++qrr8R+++1nX8qLf8aMGWLcuHV9HRKEieSw5qhRR5kEK12Xd6ON1o1ba9euFXPmzKmgOfKII44QDz/8cF7YIZFBgwaJ4447rkJ6Xo2WVatWrRAG7Wz27NkVrtsXIGD4yCOPqEvQQKjdOeeco70Zj88//7zo0qWLMscNYV4IHUIoc/PNNxc//fSTeO+991Ly0a1bt5LQAJkRDAOQAAmQAAmQAAmQAAmQAAmQAAmQAAmQAAmQAAmQAAmQAAmQAAmQAAkkgoBSSQeBQluoUOesSeMGoutO22RcnNbheSxtAmcc3VYM/ni6+Gb0PFXQtVJb3PBRqQvvO0sNdIv+Xil+Hl+uATMfVCDE5hUm9EvXL8xav4ueh/faubmoLbXm2QJxCHLUvi09IYNPd96uqXj94X+Jo875UiyTpoEhaKiFFr1PbbZpHfHWQz3ku+e9UzznXbZpLK69YBtx830/S0GkdYJ6WjOjtxTttqwvHrl+J+/ltOfnnbiV+OSrOSnmqvGAtzr9lBri2Q+HzxJffTtXpbFw4Upx12MTKqR33OGbiaVSCHLw++uESysEsC4MunsXsXvvj1M0Mk6dulQKKi21QpV7/3PGVmLHDv4aDBHKdXzlKSfPF0d9uC5lnO8vzNzC5O2CBQtSsu1KQ11KpCFPINj0wgsviFNOOUX2VSvUUxMmTBD487rLLrtMQGgs326HHXYQEydOFC+++KLSsPjdd9+JZs2aie23315AuAv8br/99qyzBdPIEJKDqWXb7bjjjvZpQf1e4bgomXFdXgikBjkIzQ0cOFBUqVIlKIjz62AVhpdfGFuINihjEAyENsZFi1J/92TzTrRv315pJoTZ6MWLFytBQy206E0XmkI/+OAD72WekwAJkAAJkAAJkAAJkAAJkAAJkAAJkAAJkAAJkAAJkAAJkAAJkAAJkEBsBKpUq5aqsaWK1N5Vv15tsdmmzUU3KVxY3XM/tpww4sQTqFZ1PfHuo7uJK85pL2pJk7C2q1ZtPXHqMW3ES3ftImBSWDtoPgzjaocMFxRXrRq5CyvUrJk5jzWqVxEH9dw4JfnN29QT7VrXT7mW6aRbpybi7cd2ExDE9BMe3HDDWqL/pZ3Ely/uLTZsHN48clR+mfKd6/3zercTI17dW/yrWzOBNuJ1jaX2ywFXby++fL6nqFenuvd22nO0x7cf7iHulpohu0ueG2xQbi7VfrCWT/3Kbk68+WAPcYtkXa9exXSh1fLcPluK/7u0sx1VWj/qa+TLe4vL+7UXDRv65wX963YdG4nBj/cQV57RIa/xpU0sy5s118/9ffNLKo76QDp+de+Xvn0tXV8S1/tbrVo1pWmvbt11moRxDlOrW265pZ21vPuPPfZYpckPQmEQgLQdzPT27NlT/Pzzz+K2226zb2X041lXDsz69u0rHnvsMaVVEZreYGI6inAmNP5B86Euc40aNcTll18uoM0ujLNNN4cJnylMrvGBcybthUg7zvJCqyUE4lBHw4cPF88880zWwoVR20utWrUyIQ68r9/JwADyBjQfony222mnnZTJbvtaJj80hI4ePVoJ6/rVW9u2bZU2RgjS1qtXL1N05n5UfiYiekiABEiABEiABEiABEiABEiABEiABEiABEiABEiABEiABEiABEiABCotgfWkxpayxX//IzWmLBHrSSmPpo03EOuvXy4gVixk5s5bpzkGWheT6JKev2yZQUvc1Jn/iHkLVwgIerXapE7WAmLZpllq4RcsXimmSYarpHY/mOVtIYULYRq3VN0aqUoQ5Z05d5mosX5V1WYa1vMXxMsnA7Tl2fOXy3wtFytWrRGNG6wvWjavI9aXQqVR3EKpyXPG7GViybLVqn6bN6klzYnXVP5c4nUdXy55yMczcdWH67zH8f5CWxrM1TZt2lQKcecuFOW6rDq+JUuktmNpuhlCVw0bNtSXE31s2bKlmDZtmsrju+++K/bff//Q+UV9wDwx6qNmzfAC36ETSFjAylbehOFPyc6yZcuUSWTUCbQ9QjMnBQVTEPGEBEiABEiABEiABEiABEiABEiABEiABEiABEiABEiABEiABEggzwRKTe4pz/iKPjklYFj0pZAFSHpDTnr+SqENsAwkQAIkQAIkoAnAnPPWW2+tT8VPP/0kOnRIrznUBKaHBEiABEiABEiABEiABEiABEiABEiABEiABEiABEiABEiABEiABEiABEjAEKDck0FRKT3Fp6qwUlYTC00CJEACJEACJOAl8Pvvv3sviZUrV4pPPvlEPPDAA+YeTM7CxCwdCZAACZAACZAACZAACZAACZAACZAACZAACZAACZAACZAACZAACZAACZAACZBAdgQoYJgdL4YmARIgARIgARJIAIG1a9eKzTffPFRO7rzzTlGjRumaoA8FgYFIgARIgARIgARIgARIgARIgARIgARIgARIgARIgARIgARIgARIgARIgARIIAcCVXJ4ho+QAAmQAAmQAAmQQFEQuOiii8SFF15YFHllJkmABEiABEiABEiABEiABEiABEiABEiABEiABEiABEiABEiABEiABEiABEggaQSowTBpNcL8kAAJkAAJkAAJZCQAs8eHH364b7gWLVqIDh06iL333lu0adPGNwwvkgAJkAAJkAAJkAAJkAAJkAAJkAAJkAAJkAAJkAAJkAAJkAAJkAAJkAAJkAAJZCZAAcPMjBiCBEiABEiABEggYQQgYPj6668nLFfMDgmQAAmQAAmQAAmQAAmQAAmQAAmQAAmQAAmQAAmQAAmQAAmQAAmQAAmQAAmUFgGaSC6t+mRpSIAESIAESIAESIAESIAESIAESIAESIAESIAESIAESIAESIAESIAESIAESIAESIAESIAESIAESMAJAQoYOsHISEiABEiABEiABEiABEiABEiABEiABEiABEiABEiABEiABEiABEiABEiABEiABEiABEiABEiABEigtAhQwLC06pOlIQESIAESIAESIAESIAESIAESIAESIAESIAESIAESIAESIAESIAESIAESIAESIAESIAESIAESIAEnBChg6AQjIyEBEiABEiABEiABEiABEiABEiABEiABEiABEiABEiABEiABEiABEiABEiABEiABEiABEiABEiCB0iJAAcPSqk+WhgRIgARIgARIgARIgARIgARIgARIgARIgARIgARIgARIgARIgARIgARIgARIgARIgARIgARIgAScEKCAoROMjIQESIAESIAESIAESIAESIAESIAESIAESIAESIAESIAESIAESIAESIAESIAESIAESIAESIAESIAESosABQxLqz5ZGhIgARIgARIgARIgARIgARIgARIgARIgARIgARIgARIgARIgARIgARIgARIgARIgARIgARIgARJwQoAChk4wMhISIAESIAESIAESIAESIAESIAESIAESIAESIAESIAESIAESIAESIAESIAESIAESIAESIAESIAESKC0CFDAsrfpkaUiABEiABEiABEiABEiABEiABEiABEiABEiABEiABEiABEiABEiABEiABEiABEiABEiABEiABEjACQEKGDrByEhIgARIgARIgARIgARIgARIgARIgARIgARIgARIgARIgARIgARIgARIgARIgARIgARIgARIgARIoLQIUMCwtOqTpSEBEiABEiABEiABEiABEiABEiABEiABEiABEiABEiABEiABEiABEiABEiABEiABEiABEiABEiABJwQoYOgEIyMhARIgARIgARIgARIgARIgARIgARIgARIgARIgARIgARIgARIgARIgARIgARIgARIgARIgARIggdIiQAHD0qpPloYESIAESIAESIAESIAESIAESIAESIAESIAESIAESIAESIAESIAESIAESIAESIAESIAESIAESIAEnBCggKETjIyEBEiABEiABEiABEiABEiABEiABEiABEiABEiABEiABEiABEiABEiABEiABEiABEiABEiABEiABEqLAAUMS6s+WRoSIAESIAESIAESIAESIAESIAESIAESIAESIAESIAESIAESIAESIAESIAESIAESIAESIAESIAEScEKAAoZOMDISEiABEiABEiABEiABEiABEiABEiABEiABEiABEiABEiABEiABEiABEiABEiABEiABEiABEiABEigtAhQwLK36ZGlIgARIgARIgARIgARIgARIgARIgARIgARIgARIgARIgARIgARIgARIgARIgARIgARIgARIgARIwAkBChg6wchISIAESIAESIAESIAESIAESIAESIAESIAESIAESIAESIAESIAESIAESIAESIAESIAESIAESIAESKC0CFDAsLTqk6UhARIgARIgARIgARIgARIgARIgARIgARIgARIgARIgARIgARIgARIgARIgARIgARIgARIgARIgAScEKGDoBCMjIQESIAESIAESIAESIAESIAESIAESIAESIAESIAESIAESIAESIAESIAESIAESIAESIAESIAESIIHSIkABw9KqT5aGBEiABEiABEiABEiABEiABEiABEiABEiABEiABEiABEiABEiABEiABEiABEiABEiABMTFF18sNt54Y/W3zTbbkAgJkAAJ5ESAAoY5YeNDJJB8An///bcYO3asKCsrS35mmUMSIIFYCCxdulQsWLAglrgZKQmQAAmQAAmQAAmQAAmQAAmQAAmQAAmQAAmQAAkUMwHOnxZz7THvJEACJEACYQgsX75cPP/882q9EGuGPXv2DPMYw5AACZBABQIUMKyAhBdIoPgJ3HTTTWLTTTcV3bp1E23bthXfffdd8ReKJVAE1q5dSxIkEIrAaaedJpo2bap2I+29995i9erVoZ5joOIhwP6geOoql5y6rl9MItCVLgHX7cU1Kdf5cx2f6/IyPhIgARKorATYP0er+crGr7KVN1rr4NMkQAIkQAJxEOD8aRxUGScJkAAJkEDSCLz99tti4cKFJlsnnXSS8dOTHwL8/s0PZ6YSP4H1pHazklBvNnfeIkWrSeMG8VPLIYWk5y+HIiXikT+mLxGX3DEmY16e6t9V1KtTPWO4UgiwePFisdlmmwlbkOD4448XTzzxhJPi3XrrrWLChAkqrnPPPVfsuOOOFeKdNWuWuPTSS9X1xo0bi7vuuqtCmFK6EGd5sYPy4YcfFiNHjhTffvutmD17thIe7dy5s+jRo4fAJMj6669fSjhZFotAmPfNCm68eEe33357cw7P4MGDBQQN8+3Qhvv162eSffTRR0WNGjXMeal57rvvvhSh7lNOOUXsscceFYo5efJkcd1115nr6LdvvPFGc+7nWbNmjXj22WfFhx9+qNL4888/RZMmTcQOO+wgdt55Z3HOOeeIOnXq+D1qrtn9lbn4P0/t2rVFy5YtBdTjYwcbzsO4Pn36COQtG9e9e3dx1llnZfNITmHjrI+cMpTmIfwkf+utt8Qbb7whxowZIyZNmqTqs1OnTup9Pv/880WLFi3SxJB6C5qMBwwYIL766is1bqPuGzZsKNq1ayc6duwoLrnkElXfqU9VPEO+0I7hqlatKu6///6M7UwFzsN/rtvzvHnzxH/+8x/fnK+33nqKP/htvfXW6r3DtUI5TEi8/PLLYujQoeL7778Xv/32m2jQoIFqK126dBHnnXeeaNSoUcbsxVW/LvorO/Ou3o8k91eu2zP4uS5vXO1F1/Wbb76p+kB9vvnmm4trr71Wn/oe8S6cfvrpZhzCb46uXbv6hrUvzpw5U1x22WXqUpUqVcSDDz4Yetyz40mS/9NPPxVPP/20yRL6qLvvvltssMEG5lq+PHG0Z2/ec2kviAN95r333uuNLvT5QQcdJHr16pUxfK75Q8T5GI+i5M8ufKn3z3G3F9fjpV03Ufxx9fdRyjtu3Dhx++23q2Lh97H9mw1jwamnnmqKDNNf2267rTn/+uuvVT+PC2eccYbYZZddzD14XI6X6fo/pIVvYXxz4ff4PvvsI2rVqoXLdJWYwM0336y+/bJBgPHe71vEO8+A77fHHntMfcd543/xxRfFe++9py5feOGFYrvttvMGUeeu8hd3f+qbeV4kgQwEkjR/miGrib79008/ic8++0z88ssvAmtTXnfDDTeIVq1aeS/z3DEBewzA740HHngg7+tGc+bMUSZYMxWt1NcHMpWf91MJ2L+fi309Ocx6XqHKe/DBB4uPPvpIwcf6zzfffJNaETmcJbm8YYsTZ32U8vq+a7mnfI4fSRgvw7bPxIaTk0Zls2bPL5sydab5mzd/ES4XlZszd2EZ/pLqkp6/pHLLlK+xvywoa9T51Yx/c+YvzxRVydyXH3FlckG5rGbNmubvqKOOclY+KaBk4n399dd94/31119NGOSj1F1c5R0yZEjZxhtvnMLSrlf4t9hii7IRI0aUOuJKW74w75sfnIkTJ1ZoN6+++qpf0NivzZ8/PyUvS5YsiT3NQiZw7LHHppR3v/32883OHXfckRKuWbNmvuH0RTlJVyaFRlOe8fYH6C/ef/99/Yjv0dtfeePQ53Xr1i177rnnfOPwXkRY/VzY4+677+6NJpbzuOrDdWalsGiZXOhMy1EuPpbJSdkyuYCaMfl33nmnrE2bNmnjkxM2ZVIAM2NcSM+u1z/++CPjM/kK4Lo9T5kyJaWsdrm9/l133bXsxx9/zFdRU9KRwoRlUkt12rxKgaKyZ555JuU5v5M46tdVf6Xz6/L9SHJ/5bo9g5/r8sbRXnQ944ixwX7XpNB82YoVK+wgvn65sck8t9NOO4XqJ+VCunkG/W8xO6mluuyqq64y5bEZFqqfiqM9e+so1/Yid+37srK5pfNfc8013qz4nueaP0SWj/EoSv50gStD/xxne3E9Xup6cXGMo7+PWl70Z/rdlBtdU4ophXLNPYQZOHBgyn0pRG7u+33juBwvw/Z/yGe9evXK3n333ZS85vtk2LBhZdICivqTWkzynTzTkwS8/bFu5+mOeEf9nBTiM21dPx80Z2j/fnryySf9olPXXOUvzv40MPO8QQIZCCRp/tSb1WLon+XGgTKp/KBCv6P7H31E30QXPwFpxSylLqSwRvyJelLAnKGu93THUl8f8GAp+dOo/ZX393MxAwuznleI8k6dOrVMKpMw7+c999zjBHNSy5tN4eKqj1Jf33ct95TP8SMJ42U2bTSJYat8N+YXMWLUjwJH/Td5yl+JFYhkxkiABNITkBOUAlqOtIaw5s2bp+zsTv807yaFwKhRo8SRRx4ppHBWSpZQv7aTPwyVVjpI3NORgCYgBU/FcccdZ3a0Q7sddijR5Z8AdvAuWrROy7Kdulz0sk/T+v/55x+lUXD8+PEp4apVq5Zyjv7isMMOy1r7QUok/zuBSW1ohPrvf//rd7tor7moD9eFR/3Kj/EUzZdIQy50pmiakB8SArsCM9XJ2LFjhRSsFDNmzEjJqlc7CnbQQdvwCy+8kBKuFE/iaM/Y5SmF/ISchMgrsmXLlom99tpLabm0E/b2BwgHDT16Z6odNk6/6/7K9fsRZ9nzFXcc7TlfeU+XDtosNK7aDpqupECJfcnXDy1WWosPwn/55Ze+4fRFjJfQmKDdLbfcor1Fd8RO6912201prC26zMsM59qeo7SXqJyg8TKTy2f+chmPXOSP/XOmVrDuflB7cT1ehstN4UK5KK/ckGUK4J3/gFZa23nvS6FdcxvaA5PiVq1aJY444ogU7b35zttff/2lLGXAWsaCBQvynTzTywOBbOYe8pCdnJMI6k9zjpAPkoAkkOT502Lon6EV/Pnnn8/Ylvj+ZkTEACRQ1ASKob8qasAOMo/5f7lBRcWEOWSsHdLFR4Dr+/GxZczJIFBt6rRZycgJc0ECORDYvGU98e5Tu1V4csacZeL0S7+ucL2yXIApMZi3+P3335XZFb3gVlnKX+zlhHnrE044wRQDJg7lbmJlZhXmkLEgBDOpMPuDCWksvvbu3Vt8/vnngh/sBlul96DNwJTpypUrC2Iar9JXgAVAahUURx99tLkCwWCYMw3rrrjiCgEV4XDoz6+++mrx73//W9SvX1/1B3I3lDj77LOF3P0pIIR24oknCqmlIFR/IHdrm3AQUvj555/F9ddfb4TTMJYgzTPPPDNUdl966SVlgjdT4LDmlzPFk8v9qPWRS5rpnoGpbHvRE/V9wQUXqPrFhz8EBvv27avqBvHAtDHMM/otjkJQA6ancYTDmADT2ajHjTbaSCxcuFBN/iJNCBjCYSyBSWx70VbdKML/XLbn6tWrK/YaA8ZbmCWXWgGF1AirLmP8xWYAuetNeAX89HOuj2gf9iL6RRddJPAHE6jo7/HuSw0C5h2GuUCYfcpkPt1VPl33Vy7fD28Zk95fuWzPKHvSywvT8H4OZn932GEHv1vm2oYbbqhMY+K3DxzGSbmD3tz3emCZ7E+tAABAAElEQVQqCu8vXIcOHUSPHj28QYri/MMPPxTHH3+8Gv91hvEbAN8JSXOu23OU9iI1MYnRo0dXQISxU2rANNcHDRokttxyS3OuPX7jr76nj1Hyp+PQxzjGIxf5qyz9c1ztxfV4qdtLUo8uymube8d3D373YH4Ebtq0aSlFl9oPUs7xG047qfVde32PrsdLmI2052kg5P7tt9+qsQrlgENfLjWQq00kvpnixZImAAFACOFqhzk/bBLVDuM6zNhph9/12czzok1LLTVCapLSUWR1dJW/uPrTrArDwCTgQ4Dzpz5QQl6SVjFMyG233VbNL3Xs2NFc05527dppL48lTmCTTTbx/dbCnLO08lPipWfxSCC5BOx5on333bck1gGSSpvr+7nVDMeP3LgV7Kk33h5W5v37bsyEJGpbTJsn16o40yaWw82k5y+HIiX6kSl/LU0xm1yZTCTHXTGloPLYNSPXKpQHDx5sVFXDJKYUFPXN8ltvvWXCQeU8TA7RlRaBMO9b0kssF1BS2mmpm0DQJnmlMFdZkyZNVNmlMFhKNT3yyCOGiZx4U/4gE8lSACLFxOXNN9+cEpc+kVrKTJzoD6TWDn0r5Rimv5IfQWUw7axNWaAc6UxU2ibFgvqrlEzk8cR1fcSRdSmoYFgH1S/eI7QRXSdyUsA3KyNHjjRhEPa2227zDQdT2jouHKWwjW84XIzDRF5gYlnecN2ebZOUDRo0CMzNE088kcJPLhwHhnV5A3WBfOm6kxtKfKOHSQH8ftDh0plOd1m/rvsrFM7l+4H4ktxfuW7PcZTXZXtB/mx34403mjZ71FFHGb8U/rODBfrt9xdt/+uvv/YN+/fff5c1bNjQxD906FDfcEm/iH5Hv+M4wsymFIhT2YaJdH0vKSaS/Xhm+3vDjiNqe7Hj0n6X7Ttq/uz2HMd4FDV/YFaZ+mfdRuxjlPYSx3hp582FP0r5vOm7LG+LFi1M/yYXqk1SUsO3uq7H+V133dXcg6dr167mObnhJuUeTvRz6Dujfs+EGc+R5ty5c8vs8nTv3h2X8+6k8JlhI60e5D19JliRgBSeNXWCNpnNXJ+fiWTEARNtXhfWRLL3uSj588aFc5f9jV/8vEYCxUog6f2ztNaS0ldJbfTFirpk8p1kk4+VbX2gZBpVyIJE7a/C/n4OmZ2CBguznpfv8srN6Cn9NdaVXbkkljfbsrmuj8qyvp8vuac4xo8kj5fZtt9Cha9StWoVsU371qJli3JTEwWTdmTCJCAJzF2wQnw/foH4btx88ffSVYliIic9BLQvYKd0qbvFixeLcePGCai31pqQopYZ/OQkqooX2rhkxxcpSpgdhVYe7FaHZqGoznX9yol0pWUI2spQ7rDlxW527WCitHXr1vo05XjIIYeIzTff3FxD28zGuSqvjsdbByiv/HGmyp5NvhAW7xjMe0KbGjR72bu5s40rjvwhDzpeF/1BHO9btpwyhc+1PWeKN6n3sdMIZhah8S0Xh+dg7goOJkpRx9pBAxrcdtttl3G3GExV2X3wueeeq6NJOcJkqq1RB+9erq5GjRriqaeeMloRoFlDCmrkGl0innNVH64Lg/rV2ikRN7QN+jlobIEmOu2gMc/P2aZEpWCogNlQP7fPPvsorbj6ntf8tr6er2PU9y1dPuNoz6gLW6tVvvhBc6EU9jXFheZCP9eqVSulWVHfg+acfDjX/ZXr9yMfDOJOI472HHeew8YvJzhN0Msvv9yYiMf4E+Z3IMZAmIfX7pprrtHelKMUEBboc+DatGkj0B8Wo7N/f6I/+uGHH1K0JbsqU1L756jtxRWfoHjylb9cx6Oo+WP/HFTz4a67Hi/DpVq4UC7L27ZtW1OQefPmGb/WDg9tHHBSIMvcg0ffr1q1qtISnnKzQCeNGzcWtuYnaFbN9duzQEXImCw0poM9vk3tcSvjgzEHcDnfpLMa53ip08j2KDcfmEfw+4cuGoGktmeUyuV8HeY65UKugKl5aH/F3HvY+ewgwq7n75FOkusDvLAOgHkCaG2Lyi+Ia6Gvo93Zzta0al/Pxe+yftE/Y21GbjTLJSvmGb0O4HL9w0TuyGNrTEaU3vNckonj/c0lH0HPQOsvfvehjqP+1nDd/7mODwxc9y8u+QXVUZTrLsc35EO/x1HbCuKKYz0P+XO5fo58wum1KPixXrD//vvDm5UrpvJmVbA0gXNtf/la30+T9axvue6v0F7wOwhr/PbaZtYZi+kB7/joPY8p2ZKKtsrOXbcVbdu0LKlCsTDuCXz2zSyxUfc31F/bvd9Jm8DRFww3YZ95K9Usif1gn6tGmXD9H/lZTJy8WBx09ueiXc93xN69PxH7nPipaNVjsOh06FDx/pd/2Y8WxP/aa68JubtYdOrUSQmEwPRWody7774rpOaN0H8QEgzj8AMVpi+wQAdTYzBHhoU3mE2866671ECQqwlAmBPEZDDiRrybbrqpaNq0qTIL4/0wS5dX/MCC6T8827x5c7H99tuLLbbYQk0SQ1gHpi9z+XB3Wb9I/9FHHxUwvQPhQCz6odyYQL7hhhsyCkN+8803BoHcaW/8fh7bjBeE8cK6XMuLDzaYbMYfzMvhx6l+L2B+8+6771ZZeOONN1TbgXkElP3AAw805jjT5RHChFgoQ/wQntxxxx2VuVWwO+CAA8SoUaPSPa4+KOPMn048V376eRxdvm/4KNDlDjqGfS+kxgYT11ZbbaXyGaU922XO5MeCCt4ZXYZ+/fqlPIL2pu+hDwgzOXTccceZZ2A+Pox77LHH1PvbpUsXdYT54WwdeP/rX/8yj8GMIRwWwrRw2CmnnGIWu0xAj8c27wWTyPgLcugDtctW4Fg/p4/oX9u3b69P1cSyOSlCj4v6iKP9eYVmIDwU5Hr37i1uvfVW9XfooYf6BsPGAO3Q/8KsYpDD+Kmd/Zy+lq+ji/ctU15dt2eYJLPHZ71onSkfUe9n0x/Y9WsLnkbNQ7rns8lfmP7K9fuRLu/FdM91e05C2THxpH/Hoh9E+7XfMT9ztn75vuqqq8xlmEiG0J3tIKDbv39/c0lqjXWy6GIiLIDn5JNPFvh2gGCxa5fU/tlVe3HNS8eXz/zlMh65yB/7Z13buR1dj5e55SJ/T7ksr73BEkIb2ulvH5hghUM71wuHOGpTxJtttpnZRKUCFvg/qbUwJQf2xqOUG45OpNZe822sv6uxqVU7bIzT171HjDdB7vzzzzfPPfzww2oh6eijj1YLmBA4wXeJ1MaqxvdMG9fGjh1r4rLr2y9tPXeEvMLEdCYXdb4pKP58jJdBaae73rNnTzX3ijCYR4aQCF1mAkluz3HN12G+5LPPPlNzWFKjq4CJuq233lpgThDfHpiHgin3bOYNXM3fu6wP1L7L+VMoPNB9JdY8sDj/5ptvqnlszIV37txZ/UZHmAsvvNBscvJrhXH1z35pJema6/rVZcPc61lnnaXmmLFhF2szWN/CeteRRx6pFIjosH7HuNc//NJ0cQ3rhbarXbu2fRra7+r9DZ1glgGRP6wZYN4a7xfml1DH+K2Ba2+//Xbo9UHX/Z+r+Fz2L168Ufnlo78CR9frUUlbz/PWi6v1c2+8ENhG2bU75phj0q4X6HA4oh6SLi9g59eVP2r7y8f6vouyuuqv7Ly88MILRr4Ev4PwPYfx984771TyJVCapH87oa8ulHM1XhYq/0lIt0rjRg2SkA/mIeEEytZCo9ja//2l7k7yZn3lah1OStsvWKcdwhsG5ytXlYf7beoSceAZn4uRX8+pEHTatH/E8eePEFfdk7pAVCFgjBcgqX7BBReIBQsWqFSwODVgwACl3S/GZAOjRsePPIT9Q/hMDmF69eqlPr7wI9N22MmCBTtoVsKO72wchBsef/xxceKJJ1bghR834IgFxDCCQi+//LISUsQgpSeI7bzg4++www5TkwXZCC26rl9pklLgAxmT2rYDR9zDwOpdlLHDSZXiaoc3dnlLE3H2rQp+W6ghbN1EKS/aCcqBPwgR4mNOvxeozyuvvFJNpvTp00dpb9QZ/uSTT8QZZ5yhT32PkyZNUm0B5Uceve7TTz9VGrfee+897y1zHmf+dCJR+Ok4XL9v2I2p6yXoqNPOdLQZYrdy1PacKT19H+ligQAaulAG7Bq5/vrr9W11lCab1IQc7qMPsD+OUgL+7wQCi5jc00yg5S+TA0tpKkg9g7DI19NPP11BC0ameHAfAop16tRRQfVOMS1oiIsQmkV50zm9MIYwEOJN5zDxqx3KHNVBoF47aB7JhwNv7GrK9g/PZXJR6yOO9ofJTdt9/vnn9mmKH4tz+C2CP714mhJAnthjI4Tc0zksGmjnHa/09biPLt+3THl13Z7tdzfTu5kpb2Hv279tMqWJBQy0B/zlS2OJ6/7K9fsRlnMxhHPdngtdZnvybbfddlO/AWzNgh9//HGoLGJh76CDDjJhr7vuOuOHB98Qur9DH4mJrSAX53gUlGY219GHP//880KaBRXrr79+No+GCpvk/tlVewkFIodA+c5ftuORi/yxf86hYViPuB4vragT6XVZXmyA1c7eSAvLFnAQ2NPzItDABWdrBcTic5KcNF2bkh2blb7hcjzCXIb+NtZHW6ME0tLXvUcI5wU55FuHx7xcjx491OK+NzzqCeM8FpiCHAR0dFw4pnN2upmEM13MN/nlJZ/jpV/66a6BHwRstCvkIp7Og+ujy/dD581uV0lrz/Y76nK+DvP9ELzDZlik4XXoJzAHDIUBL774ovd2hXOX8/cu6wMZxTtr9zF+/goFCrhg18f06dPFgw8+KLDJGZrUbIc08Zsd6wG29l07TFz9s51GFD/mIlAu+89rOQVrFPZ924969HOu6xdpaCEdCMXYv5NxD9+CELjG97T3WxH3tbPr1vX6h04jjqO9KR0bkdJtYg5K3+X7G5RGlOuYG+jQoYOyvGNvYtFx4ho2OUizrWpuWV8POrru/1zFZ7fBqP2LXXYX/PLRX7lej0riep6uF5fr5zpO+wjrBfba+0knnWTfDvSjDSZdXiAw8xFvRG1/ca/vRyyeedxVf6UjxIY0KIfyky+B4hfIB0CGQP/2sr9DdRz5OroYL/OV16SmUyWpGWO+KheBN4dOE/PnrZAa+dYXe++2kTjigJai3ZapWpr+++wk8dXYVMG3fFHCRJW3U0TaY8aMyVcWUtKxO7+UGxFO8PE1ZMgQEwM+QrCw9+9//1vAzAwmaSEggx3N2Th8gF588cXqEQh3QCANZkOxI1I7qMr1ChLpe/qISR1o+4JQpXbYTYkP9/322y8lPmgsgWm1sM51/d50000qaQgPQdMlBk7sltMOH+A33nijPq1wRP1i0RB/6T4EITRgLxC1a9euQlx+F1yVd8SIEUrgDwKke+yxh0kKdYKdCZg8sXe5v/7662onuwloeTDRvPPOO5vJ/1q1agkIKeLHHEzCakEY/LA9/PDDfSerreiU12X+7Lhd8IvrfbPz6cqv2zMEgfH+QuhVC80hjUztOWw+nn32WWELjz755JNqd4v9PN4jfNhopzVm6nPvEcKF2uFZW6Ogvu49YgIMk39el4uJUQhJYlcYHAQL8eMZ7wEc+i8ICKFNJ9XZ9ZyvfGIiC6acsv1L16dqvlHrI472h74OO9u1w/sWNOGsw4Q9YhxP5zLdT/esq3su37dMeXLZnrGTGBoetHNpCkjHGfWI+sVvN/wVq5r/ON+PqHwL/bzL9lzosiB9W/hem7fcddddTdYGDx5s/Jk89kIRflfgGwIOE1f2WAG/FkLxizPO8cgvvWyvYQcwvqnicknun122lzj45TN/uYxHLvLH/jmOlsM4wxCABkLtsNgKB4E0LfwG6wqwlgGnNRzi+10728SyvlbII7SR2c5vg1DSxyM7//A/8sgjAnWDzW/QeAZrALZWYoTBApMWCsV53C6O+Sad53yOlzrNsEcs4NmbljFHV2ou7vcjie3ZrkMX83WY53/qqafsaJX2UcxlYeOObWobgbBwDOHGIBfn/H3S6wObleGgjR19H94/ew0Hgk86TBC/pF6H8CCE9O0/CJPbDn29fd/2a231dniv30X9Yo4awjP2vC7m3FAnmIe158HuuOMOAcGbTC6u9YVM6eZy315vgxlUu7xh4ovz/Q2TfqYw33//veqX9KZBhEcfhXcN38b2+zZ8+HABiwXpnOv+z3V8dt513xGlf3HNz86fa78e33JdX/XmJ8nrea7Wz71l1uda6QXOoe2zY8eO+lbaY1zrl3GXN22hQt6M2v7iXt8PWYy0wVz3V5hnwu9y7TD+eOVLsEkFY2oSXNTxMgllKHge5IKxct+OHl/2xtvD1N93Yyboy0VznDN3YRn+kuqSnr9M3D75amZZo86vqr+WPd5MG/zQcz43YQc8NS4w7AmXjDDhEPdxFw8vW7xkZUr4wZ9OK2ve7XUTrkfvj1LuB51M+WupeQZxz5m/PCho6Oty10uZ3F1s/qTJ1jKphS70864Dyh1eZVLYzvdPmiww+USe5eRe2uTloF4mBV3MM1JQrUx+kKU8I3f7lklTxCYM4pWCMilh9AmetVnJzrpMDlj6tjrK3eRlUjAwJZxcIEkJY5/IH88mrJx0LZMfCfbtMilsVya1n5kwSF9+FKWESXcSpX695ZUfNmXS7EtKcvLDp8ybhtT8lxIm2xO5g86UF4yRRljnzUvY9iyFQU2acnG7TApMqSRxxLmudzmBa7Iif7ia61I7l7lue+QkhAkjtQ6UyR/99m3VzqXAoQkjVd6btO2AceXPTgP+XPnhWdfvG+KUiyoV/vDO6vrAEWHCOG97RtuSQrspj+L9lRrUUuIPas8Ia+cD76rXycnJMrw3Ohze5SCHd0uHw1GaPwwKWiZNbJuwUpAgMJx9A5ykOQXzHNJA2w77fh177LHmWWneqQxtXudXCjyact53331qDNH3pKCAnQ3jl0JM5nm5w9Zc9/NIYVwTVmqH9Qui+nadJo7pXJj48DzaiI5TLpKlizLjPbnDy8Sl4wxzlNrafON2XR9xtL9XXnklpczoj+UHl28f51tI66I0cWbigj+de+ihh0xYqYkgMCjeCbsO/vjjj8Cw2d6I+r55+6t06Ydpz3Jx2pQV44yfw3stJ2NMuG7duoXuX/3iy+ZaNv1B2Hhd1m82+QtTHyiDy/cD8bnsrxCfS+e6PSNvrsvrsr3Y7PDtofsZvGNw+L2gr+EozfrZj6T1Sw0s5lkp3KDCyslRc00KoJThWyqdcz0epUvL9T0pEG/KKk2k5xR90vpnuxCu24uO21X7dpG/OMcjF/kDs8rUP+s2Yh+jtJc4xks7by78UcrnTd9lefFdqseG8847TyWFuQN9DX271DquzqWGInUfc1H6vtQu5c2eOnc5XoYdz8FYmrA1eZMCeb6/KV2PR0jX/pPacE0epDBRyj07HPxBTmrJM3GAtdxkq+Zw7PBffvllmT0+YU7Fz8nFbxMX5inTOYzxum7lBsXAoK7mm/wSAJco8wd+caId63LhmM3cps1PaotU0eN7Rcdnz7tKYQVzPR0/bx6j5M8bF87BUOcPxz+y+N50/X4gP0luz97+BX1XlPk6lFcKDBr++M4Ff/t9hx/zblJYyYSTG4TxqK9zPX/vsj6QYZTH+5fr/Kn9e023YbkxKoUL5hKltSXDDuFQj37Omy8X/bNfOrlcs+fbdVmzOaJv8nOu69fu77F+9MUXX6Qki/Zth8FcrN88tV1el+sfKZmJ6UTPr2NOPFvn+v210w+zPmCH9/OffPLJ5l3COiW+dfHeaIe6lNoLTRi0UanJWt+ucHTd/7mMz3X/gsK75Oe6v/KOb3GsryZpPc9bXoznUdfPKzRweQF9ntwcaN6JBx54wC9YhWuu1y/zVd4KBQl5wZu/ONqfX1airO/7xZfNNRf9lS33JDcVmHbWqlWrMls+APnKRr7EWw4X44c3TpxHGS/94qts16oVXMKRGSABSaB2nWrioWt3FPXqVE/hcfDum4jz+rQT//ff8er6uAmLxKrVZaJ6tfRaeVIicXQCE1Raw5b8ga52Q2HnfqEcVCcHuXT3/J6Bunht5hb3sXMRGuhsh53ejz76qDKZYF8P48fuZK9pUmiCAk/Eq7USQkOY1lRnxwuTNvLDzlyCuVJou7Od/NhTGvMgAa93UkpBELVzzg4X5HdZv7fccovYaaedUpKSg5Uys2pzlT/w1A66lIAhT+QHkzJZrYPLHwQVdpXqe35HF+WFNjj5oaaixxFaDLHzAXWBXYraQePgrbfeqk5tM0b6vvxgEnIxWZ8qTthlZzuYfrv//vuVGQO0B7QZmF3GLqYg5yp/fvFH4RfH++a3I7FaNTdDPHb7eXel4v197rnn1Pur+eTanqFRCKYLsHsJDlob5MeOjrbCEf1v69atBdKDQ7+EtuF1UtBN2FoHYaY9jAPLoUOHKtMmH3zwgdrZBU2ueIezddAYICfz1XuC3bNyEcyUE+Z2dd+XbbxJDg+zOpnGxkMPPTRQay00MsmF76yLaJuHDnrYRX3E0f6wyxbtWE58qqwjnzAX3rdvX2W+E1phMYZm4hpU7iRfd/m+uS6nXDgTciHARIt3WE5eCvlRa65Biw40pfr1wSYQPZEIxPl+RO2vIhWsAA8ntbyzZ882v93x2wWaJeDwexK780ePHq3OobXb+z2hbvj8h93GWmsxNAdPnjw5xQQWvk0yfS/FOR75ZDlxl5LaP8fRXlzCjyN/Lscjl/lj/+yy5TCusASgAV47Pe+jzR+i30bfrs0oY54BbsaMGfoRo93QXPDx5GO8RJ7xbSiF7kwOoIHX7zel6/HIm4atzRf3vPdNBkN6GjZsKO655x6BORzb7bLLLmpe6IILLlCXMXcnF6dj17Qd13yTLht4uZo/0HG6Ouo5FinAY0wlQxvN+eef7yqJgsfj+v3wFihp7dmbPxfzddBopR00fLdq1UqfqiPa+LbbbiteeOEFgXk2OMyL+Lm45+9d1IdfH+dq/vSyyy4TmOuzHeYSsc6CsQlWTeCkwGaFdRdc9+bNdf+MNHJ1+DaDJiLbScUbKeOYFGoOtMRka5az47D9UesX7c9eXwB3/U2o00H7fu2119S8I0ymSgFQVR9S2YEOUuEY5/pChcQcXED7Qtn0mk3YKON+f8PmIygc6srWjoXxzGtNBO0UFpGwvqjn3KXgkDLv7hevy/4P8buOz85z1P7FNb+4+6s41leTtp5n12/U9XM7LtuPMkuhJ3UJv82xxhDGxbF+aacbV3ntNKL442h/3vxEXd/3xpftucv+Cia49bc38iGVWlRY34siX5Jt2cKGz3W8DBt/qYdzI31Q6pRYvtgJ7LxDE9GwXurkk070uAM2MwKGa9eWiakzl4o2LcrN6+pwcR+bNm0q/vOf/6i/uNPKd/x6Yhbp4od40EcVPhQxYasnqcLmE2ZR/ByEyCCUps2iQg27Notmh7eFC/FxJHd527eNHz+SjjzySHHXXXepa99++63o3bu3uZ/O47J+sdji5yA4BQFDmBWAwwcOFk6zdZiERbm0kAOEvbTa5rBxuSivV+AKEwFwEIKxPzLsSQT9g9bOp93+YM7IFk60w9WuXVsJ22i13mgv6QQMXeXPzoP2R+FnlzeO903n0dXRNqljx4mPdRftuX///ikTQFIbikBdBzm0LZhdP+ecc1SQgQMHittvv73CM5j81K5z584Ck0hhHdoh4sRfFIfJNvSZEKBEu8WiLhy4IT96MSxKGkl71m7fQXnr0qVL0C01JowZMybwfpQbLuojjvYH87VDhgwRJ5xwQor5dwjfQjAGf+grrrjiCmWmvNQEDV29b1Haht+zGK/ef/99v1vqGn7DjBo1SkhNh4FheCM6gTjfj6j9VfTS5TeGpJYX75F2MItsC/7hd54WMIS5jbAChlIrqzLHqOPG7wC9oIffh2E2HeAbJY7xCL/fIUieyWFBEd8OhXRJ7J91nYKLq/biknEc+XM5HrnMH/tnly2HcYUlgO9w7SA8DgdT4XB6k5L+7tP3YcJWO78NrfqeProeL6UWeh21OkLgEQtKtoPgySmnnGJfMv64xiOTgGNPOgFNzNdpAUMIP8ydO1dAQCxOZ9eny/kmO89JHC+RPz3/BoEnCBnCwQRpKQkYxv1+JK09q0q0/nMxX2d/z2KjPjaE+jmp+cnvcsq1uOfvk14fMM3r5zBfju8aCLbB5dNEvF9+crkGM8Nec8JQVmF/r6B8mLvK1UWtXy0Ai/SxfhTUZvFbYM899xT4voRDfQStheF+nOsLiN+107+Dso037vc32/x4w2N9CUIs2tkCuPoajmiDMAOrv3uwfoT5AT/nsv9D/K7js/MctX+Jg5+dP9f+ONZXk7yeF3X93I8/fgdCQYh2GIcaNWqkT9Me7d/PcaxfuipvXPNrcbQ/G7iL9X07vlz8LvsraUEzJQtBc7e5ypekRO7wJNfx0mEWijqqKkWde2a+ZAi02iT442OTDWtLYaXyos6at263V/kV+qISsHd0d+jQITA6CFZI0x+B94NupJswtOOzf7jYcdkTwtJcQ4rwmh0O/muuuUYgPP6iCgd54w57nq68WisL4vJOKoeN//LLL08ReoCAlfdjN2xcSQg3a9Yskw3sik3n9KIBwvhpQ0z3bFLuxf2+uS5nnO0ZO2W0dkvk+8orrxQQAsjkevXqJfQOYwg8SxMkKY/gRzomzrWTpji1N69HCLTBSTO9KelCOx0cNKJVRmd/wOSz/K7qI472B4GaQYMGKc2s+NjyOgijXH311WoSNIxgivd5nrsngAVRCMRLFf/uI2eMKQQK+X4Uqr9KAZDHk0KUV280QjGxqGQ7LBpr5x3r9fWgIzS6aKeFC3F+1VVXZa3NQcfj4ghhcfQdmf6w6EVXkUBc7aViSrldKUT+shmPXOeP/XNu7YRP5U4Ai6N6M6MWINRHaSpPRQwhCDgtaGBrUwij9Vw9nOG/bMbLiRMnCvvPOw8Eiw+ff/55QcemDMXN6ja0UwQ5LGrq+kOYefPmBQV1dr2yzTf5gQN3vVEbliCKUbjJr1z5uJa09uwts4v5OnsODhpnoPXNFuLxppnuPO75+6TXh61l18vJXg+wOXnDVebzqPWrx30wxPqWPd54udrrXxBAoxNqLU1zSOr6G4QK9Z/Oq9/R3lCiNRn6hXPZ/yF+1/HZeXbRv2h2QcKZOr2w/HT4OI4uxjeX+Yp7PS9decOsn/uVFZaS9HcS7ofZaKvjKZbyxjW/lq4+7PHc+12n+WU6JmF932V/pZWqoNz43vZqstc8cpUv0c/zmCwC1ZKVHeamshKoXTu4KcIc8qH7tRCz5q1QeBrU9dd0WFnZuSg3hHG0yzRRamuj089kOtqaSLxh7fT07lpvGPu6Hd4bDufYoZatCni/eKJcS1feoME1bHp33313ijnYG264IXBHXtg4Cx0OO9e1w25Z/DAMciNHjjS3oN2rGF3c75trJq7b85lnnmm0DdrawbC7EAKGYRwEaqHF82lpLh0OWkttIT7sUsRiKxwEEb0mStSNPPyn6xrmoOw8QEANzu7b8pCdvCTx3XffCb24F5SgFg4Nuh/XdVf1EVf7w0cWdk1j8X/OnDlqNzVMGXz66aemrUCbFnYcfvbZZ2knS+NiWJnirVGjRoogO9oPtI5iggZaVCHoCRMjeL8xIQ1twnTxEYjj/UhyfxUHySSWF+Pg22+/bYoLjXS2w28D7bAgjrEd2kPDOLyb2LgC0+baQQPs6aefrk95LDICcbYXFyjiyp+r8Siu/LF/dtF6GEdYAtCcCW1x2JyKBWNs2NIWIqAlHk4viupNIPbCWuPGjTMmlc/xEr8rg0yNZsxoQgPUrRtscQb1d8YZZxiz1enCuipeZZtvCuKG3z8fffSRug1rDzCFS5eZQLo2Woj27M2xi/m6vn37KlN2iBt9ar9+/QQ26Xbt2lUJy0DQCIvQEHDAmJ/O4beGdnHM3ye9PtLN+duKAWxOmhePQkStX7u/z6Sly56/WblyJfFLAna7jOP9dQkZVsEwD4cNHH4C0UOHDg2VnMv+Dwm6js8uhMv+xRU/O3+u/S7GN5d50msKiDPT+1GI9XO/smorcLi34YYbVjBz7/eMvlaM5dV5d3GMs/0lZX3fZX+VzfiRy/vhok4Zh3sCwVJd7tNijCSQM4Enbu6a87N8kARKhQAETWwBLAhUXXLJJaVSPFUOCNXcc889JVUmFiaVgDYJknpVKMHZTDvo7Gcw6akFDCE8gIkFreESO661O+aYYyKZ6NDxRDliEuDll1+OEkXRPAvhjXQfYUkoiIv6iLv9wWwDzAXgD4umUM2PiTM4CGJDwNDW7JUErqWYB685aixc4w9a1rDjHUKGmMy8//77xbXXXluKCBJZJlfvRzH0Vy4rIInlhVlL/PbTzt4JjGswxWILCX711VfioIMO0sHTHrEAesstt4hDDjnEhINwcBSzXSaiCJ7dd99dQPtyJgcBGrpUAnG2l9SUcjuLM38uxqM486eJsX/WJHiMkwA2M2nrFwsXLjS/kVu1aqWS1VoKtSYjfYSJynSLszrPrsdLmO7SQjnvvPNOivYQW+BEp1/qx0LO91Tm+SaYCsVGP2zUffzxx8X1119vrEKUepuLs3yFbM+uyrXVVlspAUMIFWoBLRxHjBih/nQ60OYDTeAQVoVwZRJdKdRHErkmJU+s36TUROHyAWtW6KuGDBniJBOu+z/X8TkppBWJa35W1PQmjADmqt98802Tq+OOO64kf/cV2/xaktb3k95fmcZLT2IJUMAwsVXDjJEACZBAOYEPPvggReMKzKY99thjZqK6PGRx+6B9EjtqwrhMuxHDxMEwySGASe5stDdA4ACCCOPHj1eFeOKJJ8Qdd9whYAbxpZdeMgXDbhy64iEAlerjxo3LOsMQ+tLm0LJ+OIcH8tn+ULZvvvlGCRTCrDjcvffeSwHDHOrN1SMYpwYMGCDOOussFSX6HwoYuqKbXTx8P7LjlbTQw4cPT8kShD/SOfweDitgiHi8ZoaPPvrodNGn3ItrPMLELv7osicQd3vJPkepTxQif9mMR/nOH/vn1PbBM3cE2rRpYyKDZlv9Pai/BbSmW2g4hLZpCNfCwTR9IZwtIAxzyBDS0WakbrrpJvHcc8+lzVZc41HaREv0ZmWeb6pdu7Y46qij1FzJggUL1Ka1MAK3SW8KfD/c1NCpp56q5hceeeQR1SdpiyB27GB9/vnni2HDhgkskNORAAmQQD4JQGAKVgogJKcdFBVAc7XeyKGvz5o1S2lk1efpjq77P9fxpct7Nvfi4pdNHhg2fwRef/11tSlep3jSSSdpb0kdi2l+LYnr+0ntr0qqkZZwYShgWMKVy6KRAAmUBgEIlkB7lXY77LCDgBa4QpkZ1fmI44gJ9yeffDKOqBlnQgiMHj3amDeESnCYN4YbOHCgMnv8r3/9K3ROocGzT58+KjwEFLFAA/OyWjMQtFd06dIldHwMmEpAc0y9Gu8ZzAGfcsopWSdy9tlnm7aU9cM5PpDP9ofFn9NOO01oAUOYbqPLjoDr9rzbbruZDGCxBWZ1SmGRzhSqiDyV8f1w3Z4LVd0Ys7NxMKd83333hX7Eq10lm9/OxTQehQaS0IBh23Pc7SUqnkLlL+x4VIj8Vcb+OWo74vOZCbRu3doEgnbCqVOnqvONNtpIHaGpVmtqw8YlbbKpbdu25rlCebAQDg1gENKBw7xO//79ldnnoDxxPAoik/31yj7fhO9svRkT8y9a62f2JJPzBN8Pd3WB9nDrrbeqPgnaPv/44w/x008/qc3tY8eONQlBaOGTTz6psJHHBKCHBEiABGIgcOONNxrhQpjTxngGyy7eb34kfcIJJwj0VWGd6/7PdXxhy5EuXJz80qXLe4UhYJtHhkIPr7WQwuSq8qaa5PX9JPZXlbelFFfJKWBYXPVVsNxWrbaeSXvlirVygk7InSHmUopnyT+rrfOAQFYIegtPwN7lgx3e6Rx2u2TrYIIjaEHPTs/Oh52G/eyiRYvsWxX8WOCHBjM47NBNuqnOCgXwXIDZ13333deYqcCu+6FDhwrsvC4VZ5vFzaV9FRsHu53b7d+vHKXIA5oltHnC6667Trzxxhtq4hLlx26qn3/+WdhaHvy46GuHHXaYgGAZtFPgvcfkMjR7avfvf/+7wi5Gfa9Yjvb7kU17sdtZrmWdMGGCeTSTVikTsBJ5XLQ/LCrCtBsczFalM4lpCxBAo4CfQFuNGjVMDUAzRTpn3y/2sTJdOfU91+0ZvzFs988//8QuYGj3B5l+D8EEnzYXf8ABBygBVTu/cfjt/Lnor1y/H3GUuVBxum7PhSjH2rVrU0wbYQPNBhtsUCErCIdFTLiZM2eK6dOnKy0FFQLyQtESCNOek95eCpm/MOOR6/yxf472urkeL6PlJv6nXZfX/r1sa+bUmgvxHdRKCsr8+uuv4quvvjIFtDUfmosF8PTu3VtcdtllRrPObbfdpsyTFiAriUzSnv/D7+t0zv69GfT9a7e/UpxfScfHew+anyCUsWTJEvHiiy+K//znP94gPHdMwHV7dpw93+jwLkHTKv66du2qviMhrN2tWzezmfejjz7yFTC0y5vpe7XU5u8BE2UKms/Ee6ddUH+l7/OYGwF7XkvPswXFZN+3221Q+Mpw3eaQxPcX3x/awVz2XnvtpU+dHaP0f36ZcBlf1P4lH/z8GJTKNbvftn9/+pUvl9+bUdfP7XzgG2jEiBHm0oknnmj8YT3FVN6wZSpUuGJZ34/SX8XdXgpVd0w3PQEKGKbnw7v/I7DZRnUMi1Wr1oqZc5eJjZrWMtdsz++Tyz+YWrcsf84Ok2//6jVSIpIukIDe6Y0AEO4Jctj5rc3PBIXxuw615FBX7ufs+LRJG284e4f6Dz/8oHag24OWHR67cWC2EA7CSjDvUKwOC6jYiaUFJjfeeGPx8ccfi3r16hVrkXzzjUkr7X788UftLdlj3O9bMYGDVhOYhMJENxzMHFx99dXmHc5UFkzcQavbQw89pILefPPNwtbslqsJwjVr1phdkToPaKeF0E7WokULnQWVJz+hMh0Au8u1g1m6KG758uVizJgxJoqg/tkEcOTBBDZ2zWfrtttuu2wfiRzeRfsbNGiQgEYuuFtuuSXtIs/SpUtNnjHxZ0/+6Ru26bdMpqbt+3a/pOPK1zEf71sc7XnSpEkGEYT+GzRoYM7j8tjvIQStIFxtC5Xa6X744Yfi3XffVZc6dOhg34rN77q/cv1+xFbwPEccR3vOcxFUcr/99pta4NZpo80GLchhQVNrTsFEaa9evfRjsR2LaTyKC0KS+uekt5dC5i/MeOQ6f+yfo711rsfLaLmJ/2nX5bXj++KLL1QBMEdib8KEtkIsrun7CAShwyQ4CAWfd9554o477lDZefrppwU23sHkuZ+rbOOR/V2C37oQcgj6nY35Qe3seUN9Dcd8zDflY7y0y5SrH9+PmCfF/AnYvvzyy7lGlZjnkv5+uG7PhQLfvn170bdvXzP3FjR3a7+HlWn+XtcLvtFtBvo6jvb6x2abbWbfot8RAZs92ijWsYLWj+z1r3bt2jnKQXFHY/PLx/uLsTOsw4YD2zTyzjvvnPZRaLh25cL2f2HTyzW+KP1LIfmF5ZL0cPZ4bvcf3nwXav3czgfW2rTD99ExxxyjT0Mfi6m8oQtVgIBxr+/DGgjmSqGhUit0cVnMsP2V/b2Fvhr5soX+dZ5yfT/08/qYzfihn+HRPQEKGLpnWpIxtmwOTXBVZMewVpVv0NA/xQUnbVWhrJ+OmiUnf1aa6x02j3+x1SRmeTaov751JsRnX88Sxx4Q7eNt/vz5SvU2tG3tuuuuypRnUnZApxQ2hxN7ohU76qCyd6eddqoQExb0MAmVrcOk1YUXXljhMTDVGklwM+iDzv7AwaIqhOx69uxZIT4MXLb6c78yVHjofxeSVr/ID7RVaQ1T0B42bNgwY1o2qBxhryepvHb7+/PPP9VCQJD5orPOOkvoSWSYFjrwwAPDFtlpuCj87PLG8b45LWgeIuvcubPo16+fmajEZDdMGeB6GHfmmWeaZ23hQphahlBuLu7LL78U++23X8qjWKAKEpROCej4xJvmkCFDBEw7eR0mT2wBw6D+1Ptc0PkNN9xgtGpgQi6b/jQozjDX8X5ccMEFYYImIkzU9gehGS1gCIF49HFeTUS6oA8++KD2qt8hfmZAbJMHMGn05ptvCmha9LqJEycKaLjTLmp70fHkcszH++a6PWNnqTZthzKjHoMmrnNhEvSMt09D/fpNFEEY1V4w3H777YOidHrddX/l+v1wWtgCRua6PReqKLbQB7QXBgkXIn/QwqkFDGHmNR8ChsU2HsVRj0nqn5PeXgqVv7Djkev8sX+O9sa5Hi+j5Sb+p12Xt3nz5ibTo0ePVv6ttkqdn9RzdRBe187eqKGvFep4zjnnGAFDLLTcdddd4vbbb/fNTtzjkT3+gic0nvp9Z/hmLoaLjRs3VsKimPuDe+utt5RQnDcp5HX27Nnmsr3RylyUHvDTLq75pnyMl7oMUY/QoKk3aEL4vNhd3O9HVD6u23PU/HifnzdvnujTp48xJY8NBHafYIe35xqCvn3zMX9v5ylp/ueff15tmvbmC9qu8A2jXVB/pe/ro10XSeifdb6SerT7e4whWHPy03IH4Qd7PQoCFHQiRTg2jvU3r/ALtEzvs88+odBDSApC8vj2gUsnbAeLL/aG+aAEXPd/ruPz5jtK/xIHP2/+iqG/SvJ6XtT1c10f+B2PtqLdwQcfHLhRR4fxO9r9aRzrl67K65f3pFyLe30fWklh2Q0aM9E/QjM55ovDONf9lXe94rPPPlOWurx5yVW+JMr44c0Dz90RqOIuKsZUygSqVFlPdN+pqSninY9MEB+NmGnO4flp0kJx7k3fmWtNmtQUbVoWRtNa3drVRPPm5RoW73pqXX7XrM1dkyEmYS666CKBiSNoV4LGLQi0lYLDjgTb/OUpp5wipkyZklI0TMRBU1gu7tprr1Xc7GfxcY109KQh7m2zzTZ2EOOHuTR7IuPUU08VX3/9tbkPD3biYECFQIV2EAQN65JUv2CCD2DscIDDD3SYfrV36octV1C4JJUXJo623XZbk1W0C/wA8zoIUgwcOFBgUgV/2gSSN1w+zqPwi/t9y0f5XacBzYP2zijwhaa+MA4Tc37CiDCPnKuzJ5oQB0zXehfGco072+ew28fuy7AYBSFw26GvOP74480l9Jn2xK65kcGD3T/o6/EOwtyEdtByYI8R+jqPQkRtf7vvvrvBiHH3qKOOMn2/voF3Ab87nnnmGX1JHHLIIcZve6DBwe4b8R5AKNV2ENI59thjUzYM4J0rlIvrfYujPeO3xqhRowQEmO0dqxCKzodDf2C3GdQvPtptB1M/eGe1yR8s/nTp0sUOEpvfdX9ll9XF+xFbwfMQcRztOQ/ZTpuE3TdBgDCds9sCNHNCGIMufgJJ6p+T3l7ynb9sxyPX+bPfycreP+fyJroeL3PJQz6fcV1e+7euLscWW2yhveqoF8XsOTvvwkfKA3k+gZYHW9s+BL705tI8Z0V9z+g0sSh/7733qvk1fS3fR/x2tTeSYh7W3kiI/KDfwe9d7TCnZAue6us45mO+Ka7x0i6HKz80/wexcpUG4ykn4Lo9l8fsxgehkw8++EBAGBt/mL+3LSfoVCZPnqw0repzbIj3c/mYv/dLNynXYPLeFmxHvsDz9NNPT9Hc3rFjx1BZtgURk9A/h8p0AQOh/dnWTSA8610/mjZtmtqspgXVoAE5bH0UsGh5STru9xdWgWxrO9dff70a38N822Pjg71xFoI0fusGmAc76KCDQvFy3f+5js9biCj9Sxz8vPkrhv4qyet5UdfPdX1gDRn9nHa5mEfGs3GvX7oqry5n0o5xr++j37ziiiuUcCHKjjEN2vH1WkAmHq77q/r16wt7Mx8UaNhyGshPFPmSKONHJha8nzuBah99um6ResXKckGpv2bOEx/NT128btN6Y9Gm1Sa5p8Qni57APVdsL7od+YH88bZWCoWtEcecO1xs26Gh2LJVPTFt5jLx7Zh5Yo1livjB63YQ1aquV7Byn9artbjl/nEq/d9+X6LyixM5V5XidujUWLz/xO4p17wnMPGLwdl26KyhCWDPPfe0LxelHxLud999t4DgHhw0YWH3FnY4YBIWO7ugYUl/fGVbSCyKQkAHExAwA4B4oDkJQobanXHGGSmDkL6ujy+99JL6SMTgiY9qxIUPC3w4oi6g1dCOD5ONYTUyJa1+ISw0YcIEXXRlItlPgMoEsDyYuAjaSaqDJa28yBfMAvXo0UNNvGDyGB8l0MoEzQMQ4vjoo4/EnDlzdBGUNjUI0hTCReXn+n3Djh8IhHmd9wPdu9MD4bGbeurUqd5H834OIdpnn33WaCbFD9D+/fsLTDaEcZdccknKAg1+JO+7775hHvUNAy0JtsOiRiHd448/rvpk9KVYeMK70qlTJ9WfYscRBJ7s/vmJJ54Ibc5Zm2bRfau33UCQ7YEHHghdfIwdmfogRHbooYeKF198MXS8SQ4Ypf2hb4cmPCzkweG3BhZIYe4DYxjGO+zuwlE7CGQHCfzjgw7juZ5AQPuA0CK0ukBIFsLbMBVjtxdoGM7GhC4E/sPUMcZ977uky2AfvWGivG8u2zM0NjdtWr65BszsTRG6DBCyyJeAIdJEf4D6RH6wi3T//fdX5+gTME6OHDlS/W7Q+bvxxhuzEpCOWr8u+yvX74dmoo9J769ctmeUOY7y5tpe0H7txTdbWEnXj320FxPwux+LnLkI0ttxFrsfWhmCTEPZYzk0EHv7bPzuPvroozMiSEr/nPT2Enf+oo5HceSvsvfPGV+eEAFcjpchkoscJNf+XifssrzQ9l2jRo2UzTL2gjXShFCZ19m/67z37PM4xks7fu2/9NJLzfcQ3lN8c11zzTX6dt6OYIffHFj0gbvyyivVn3fswLcbvuHy4bDZDRsKli1bpn7vYnMP5gDxzYLfABCIAjPtXnjhhQpjnb6HY9zzTVHHS2wwxm/4IIff+d76CDP35xcf4oGp25tuusnvtu+1fObPNwNFftF1e3aJA/OEeLdgMQcO/RD+8K51795dCfD88ssvas5Jp4s2lK4viHP+Xuch12Pc86eY28QcGn6jo28FK6x/2JvosTnYO2YFlSeJ/XNQXpNyHXPLEBjE9xC03KJ9Y40B4xzmx7DhFnOr2sGSiN98ub5f2Y5xv7+Y74MVIzgoj8D4Ducd4/zmEyGoqzfc41sYc6aYj8XGk6pVq4pvv/1WwPKLvblERR7wn+v+z3V83mxH7V9c8/PmL+n9VdLW87z8XKyfI05bOQHWAfy0uHrT9jt3vX7pTcNVeb3xJuU87vV9xO+3pgvNsF6rbH5M4uivsLZ1xBFHqORmzJihFAph0xiUJkWVL0GkUcYPPwa8Fp1AtSVLl1WIZdWq1XIgLv9QRwDveYWHeKHkCWy2cR1x19XbiwtvGi3bwzpTyT/+vFDgz3YQ4Du3TzvRc+dysyX2/Xz5zztxK/HJV3Kh9ZtyoSSk7VV4EUapIYRwsIvHu6MYnWMSnf2hFDZ/EObCR8T777+vHkEc0BhnO3wk42Ns+PDh9uWM/ltuuUVNUOoJC+8D+AGKBfB0Dh+Djz76qNJSqCcStSY773MQPLv//vu9lwPPi6F+7YXCwIKEvJHE8mISH9pBITgFtc6YLH3yySd9SwRNl7ZpT99AMV50wc/l+4a2EaZ9+IXJpa+ICy20wp588slKSyXSgIkoLH6jbWRyXs1HEDCGkGEuDoILmEDVDkLWtgZBfT2fRyyQYVEOCwG6/8OkmDYXaeflvPPOUwJH9rV0ftuslDcctNxBWDFbE1l+bc0bN8xZlIqL2v6gwRNCtYMHD1ZIwA/jrN9Yi7EQYzM0wQQ5CBRi0g3joK4LCK3bguv6WYzP2PmbrdPxpnsuTBjX75vr9gwBvnQOrDGB6Z0MTfdM1HuYIMKEETaFQOgELqh+8bsNAqTZujB1FxTGdX/l+v3wsggqhx2uUP2V6/aMMsVR3jBxesOMHz8+ZeIfC+fpHDRLYKFTaw7FJq/KLmAIpl6uQQy94bznfs8lqX9OenvJR/6ijEdx5a8y989+70y211yPl9mmn0v4MH1HUBjX5cVGRLRt7bxjgldbIRaesREnrAsqh/181N8H2DCChXXMg8DBTDJ+t9WtW9dOJnY/viswFwhhf/3bEol6GdgCMnFnCsICEGjE96je4IP5RO+cIn6DQ6PPDjvskDZLcc43uRgvYc7Oy9tboEz3veHTnWM+KhsBw3znL13ei/Ge6/bsmgGE7rp165aiaQa/ufXvbm966Kvatm3rvWzO45y/N4nk6MF7FOZd8gsTZv50wIAB4swzz1SbRLFR1OswFmKuM6xLYv8cNu+FCoe2+dRTT6l60GPaxIkTBf68DmPu4Ycf7r1cqc/jfn+hIAEbCLzrOt53znuOSsFGasybas3s+B3mt0EZc5xYW3rssccy1qXr/s91fHYBovYvcfCz85f0/ipp63k2O/hdrJ8vWrTIrC0gTgi0Z7umg+e0c7l+qePURxfl1XEVy9GvX8s171gbgJZJCO7Zbscdd7RP0/pd91cQbMQ6hF7fwu8m7dcZOfLIIwXaKZQJZeuijB/ZpsXw4QhUCRdMROqIwqbBcMkncNyBrcRXr+0jdu3eTNp1l5KEloNg4TbtG4oPnt1TXNdvG+tOZm/tGlUzB8oyBLQnvv1wD3H3tZ1F9y5NpYDg+r4x1KqZOW1I7ONHnJ7owznUvOJHdxKd3nms84ZFuUwOE3NvvPGG2qnoDY8fiNjF/Nxzzwn7HnbO+DmorLXdBRdcIP773/+KRo0a2ZeVgATM+33//feiQYMGKff8TqDGetKkSerjD3nyOqjhHTRokNIA5c2DN6x9HrV+s0nLTjfIn2t8qI8wQg5Ry6vzncsOv6A2gzgxwY5dFvgh4lcOLCJAqAKTNGEWB1znT5fbBT+X71s6pjrPQUfdp9n3c21/dhxBfpQb/IIc+lnb5BUE6sI47IqxHcxg5Or0bkj9PHZD5voxFqVudPr6iMUVCD5CmM2PIbQ74d3INFmZrn7xzkCAFz/YoRUWQr5hyu7XjnS+k3R0WR92uaK2P9Qnxi4IzEBA3q//gxmrhx9+WI2X3gVTOy/aj3YAbYj4sMSCqp+DAG8uwoV+cfldC9MHR33fXLdnaMNJ5/AbCALH+O0CvtgdH2Y8ShdnLvcwCY4JcnyY+/0ewqQ6JmzRroLqP5d07WfS1a+r/grpuX4/ktxfuW7P4JeU8nrbi23qENrIvfeRd6+zzSX6Ldh5w5f6ea4bKcAlzHiYpP456e0ljvy5HI/iyB/aUWXqn1HeOJzL8TKO/OUSZ7r+3GV5vSaRIbRhO68J2FatWvn+xtbPuBwv043nOj19tDUWQpDutdde07fyesRYjLk2CMbgezDK70domHThYJEAeYImDO/vXXwv4Tc5NLNjg10Y53q+SacZdbzU8WRzTPcbwL4X9D5ik3dYiy/Z5EuHtfOgrxXrMWntOZv+JSxzfM9iXh4bFL19p44DfQIsOEFDGNZDMrm45u+j1keY38BBZQszTqDc0KjqnbPBbyZsEITWNXvOMygt+7rL/tmO17U/03xvmPSi1q9OA0IxmC/B746GDRvqy+qINrDHHnso07ywnBPGBfWl6Z6N0tbSxZuPe3G9v8g72skrr7yi/mA5DQIyfs6POZ6FQMzAgQN93yOsO2LTQSYlJnZ6rvs/1/HZeY3av8TBz84f/FH6qzjGNzt/6Iejru+DYZLXz/Fu6Y05KDsUcERxM4qx/QAAQABJREFUSS9vlLJ5n3Xd/nKND2MHuGdyCIP2DKVYcJg/uvzyy337xqC4XPdXyBM2rUETti1DovOH715sAAizYcMvz4g/1/HDLz5ei05gPSk1WxY9msLHMHfeIpWJJo0zCykVIrdJz18uTFavKRN/zlgi5sxfITaov75o1aKuqFE9tMxqLkkW/Bl0flA/C9MqSf5QuOqqq9TuZwDTJmazhQdNhZAmxyQCfuznOija6YIf1FEjXggUYuIijPCKHYf2o+tCHmE2EgMo8hh1EqtY6lcziHpMcnlhCgeae6CtDW0Q75zfx2VUBlGed8kvjvctStmK7VnsvtcTQ9BegZ3WYX6M+5UTpqq0BlS0PQiP4Qd3khw0CKDvgzYb9M3oS/GhTFcYAi7bH0qg6xdaQlyMbytXrlSLcxh7IRintb1ggvyHH34InNDLB81ieN9y5YBxDJsrUJ+5OAhTYSE0k7N/D+F3EBYzXPxmy5Ru2Pu6Pbvqr3R8rt6PsOXwhstX/XrT5TkJ5ItAKffP+WJY2dJh/xytxjW/bMfLYh2Pci1vNMp8ulgJ4PfunDlzlJlRLFjh+xff6rk6l/NNHC9zrYXK+5zr9uyaJIQT8L7hPcGcPQTiMIef6xyb/b3qYn7DdXmjxAfzhLbyCYzh6JswxmFOG2sg0JqFb/Rc1z+i5I/PriOAeoG2WawrQOAw17ZcGXkm+f1dvHix+l2AOU/UK/qqqO+Z6/4vSnxx9y9x8CuGdyTp63nIX67r57AMpze+dO/eXXzyySdOqySO9cso5XVauCKNDPywdom186iyEbn0V+nknoLayz777KOUbAA5NmVQk3CRNj6ZbQoY5qnu0r1oecoCk6kkBKABDjt98eMaDub7oGGHjgRIgARKkQB+SENjhTbZBHMtZ599ds5FxU7+KVOmqOdPkZr8oDWOjgSCCLhuf0HpuLr++eefq98IOj5owIN24kK5Un7fYLYYmkVzdU8//bTAznu6ZBJg/SazXpgrdwRKuX92R4kxJZFAZeufK1t5k9jmmKfKTYDjZWnW/6o1q8Rvs34R85fMFY3qNhGbb9hOVK9a0ZKOLj3DV04+QQJASWsPup3ySAIkUDwEgvqX4ikBc5pPAlAm0LlzZ5PkQw89pDTnmgv0kEAMBHKRe6KAYQwVUaAoqe6mQOCZLAlEIQABAWh20w474yAQA+HC559/3mjLgRmRiy66SAfjkQRIgARKjsDw4cONcCEK16tXr5zLiF3aWrgQkUDbGx0JpCPgsv2lS8fVPexmhNAaTOfCwQwbTIrD3FG+Hd+39MSj7rxOHzvvFpoA67fQNcD00xFg/5yODu+VOoHK1j9XtvKWevtl+fJLgONlfnnnK7Xlq5aJUb9+IZatXKqSXLxsgZi1aIbo2nZXUbN6rQrZYPjKy6dCY5AXktYe/PLIayRAAiRAAqVFwFYeAHPzUDpERwIkQAJxEqCAYZx0GTcJxEQAPxD+/vvvjLHDVPJ2222XMRwDkAAJkECxEnjkkUdM1qG9FSYRcnWjRo0yj3bq1El06NDBnNNDAn4EXLY/v/jjuHbbbbeJoUOHCpjDgLvwwguVCYV8m9Ut9fetbdu24tdff825CmHegC65BFi/ya0b5iw6gVLvn6MTYgxJJlDZ+ufKVt4ktz3mrfIR4HhZenUOc6Df/zHKCBeut15VUVa2Rp3jevctdksxr8rwlZtPi5ptUl6CpLWHlMzxhARIgARIoGQJtG/fXlx66aWqfPg+rFevXsmWlQUjARJIBgEKGCajHpgLEnBKYMMNNxS33347Tes5pcrISIAEkkYAAlJvvPGGyVa/fv2MPxfPsGHDzGOXXXaZ8dNDAn4EXLc/vzTiuNa8eXNx9dVXm4mHiRMninvuucecx5GmX5yl/r5Vq1ZNbLLJJn5F57USIMD6LYFKZBECCZR6/xxYcN4oCQKVrX+ubOUtiUbKQpQMAY6XJVOVpiCT5/wqoLEQrnG9ZmL7Vl3F6MmjxLy/Z6vruN+62RYMTz6qPUxb9qdpC/D8Oee3RLWflMzxhARIgARIoGQJnHDCCSVbNhaMBEggmQTWkztrypKZtexylYut7+xSiBY66fmLVjo+nW8CMG84b968lGQbN24sttxyS9GuXTtx6KGHcpdCCh2ekAAJlCKBn376Sdx4442qaFWrVhXPPPOMgGn4XN3KlSvFihUr1ON169ZN2Zmea5x8rnQJuG5/+SS1evVqceKJJwqY9YJr2LChePXVV/OZBcH3La+4mRgJkAAJhCbA/jk0KgYkARIgARKoxAQ4XpZW5S9etlB89evnYu3aNaJq1epit616ivWr1RQrVy8XwyZ8JNasWSWqVKkqurXtIerXaigFyRi+svNZ/s8KMfD/Bonqsr2sku3jrGtPFmXyXxLaT2m9nSwNCVQ+AtjUfvrpp5uCv/TSS3IMqmLO6SEBEiCBQhPIRe7pzjvvVJa0kPcrr7ySFjgLXYkR0qeAYQR42Tyay4uWTfwMSwIkQAIkQAIkQAIkQAIkQAIkQAIkQAIkQAIkQAIkQAIkQAIkEI7AyEmfSYHBxcocMp5ov0lHsWmTzc3DU+b+JsZN/0Gdw2xy/Vr1GZ58Etse9u14iGm79JAACZAACZAACZBAHAQo9xQH1eKJs+r10hVPdoNz+s+ydRqHateuGRyogHeSnr8ComHSJEACJEACJEACJEACJEACJEACJEACJEACJEACJEACJEACJJBXAj9PGy3TW2fkq0WjVmKLjdqnpN+gdiOxfNVypbUQ4VZIP8OXIyKfZLWHts23Lq8c+kiABEiABEiABEggBgKUe4oBahFFSQ2GeaosSvLmCTSTIQESIAESIAESIAESIAESIAESIAESIAESIAESIAESIAESIIEMBIaN/0BUk2ZuWzZuJTZt3Dow9JR5f4ip8yaL1dIcLsNXxEQ+yWg/u2y5R8XK4RUSIAESIAESIAEScEiAck8OYRZhVBQwzFOl8UXLE2gmQwIkQAIkQAIkQAIkQAIkQAIkQAIkQAIkQAIkQAIkQAIkQAIkQAIkQAIkQAIkQAIkQAIk4IwA5Z6coSzKiKoUZa6ZaRIgARIgARIgARIgARIgARIgARIgARIgARIgARIgARIgARIgARIgARIgARIgARIgARIgARIgARIggVgJUMAwVryMnARIgARIgARIgARIgARIgARIgARIgARIgARIgARIgARIgARIgARIgARIgARIgARIgARIgARIgASKkwAFDIuz3phrEiABEiABEiABEiABEiABEiABEiABEiABEiABEiABEiABEiABEiABEiABEiABEiABEiABEiABEoiVAAUMY8XLyEmABEiABEiABEiABEiABEiABEiABEiABEiABEiABEiABEiABEiABEiABEiABEiABEiABEiABEigOAlQwLA46425JgESIAESIAESIAESIAESIAESIAESIAESIAESIAESIAESIAESIAESIAESIAESIAESIIH/b+++w6Mq2gYOP6RXkpCEEkoSelVAiiKon4ooghVU7IKIRLF3VFBQbIAFUVRQBH1tCK/lVRRFpQkoSDPUhBAINZX0xnfmLHu2ZDcJsLuw4TfXte7MnDkzc+6zwX+e6xkEEEAAAbcKEGDoVl4mRwABBBBAAAEEEEAAAQQQQAABBBBAAAEEEEAAAQQQQAABBBBAAAEEEEAAAQQQQMA7BQgw9M73xq4RQAABBBBAAAEEEEAAAQQQQAABBBBAAAEEEEAAAQQQQAABBBBAAAEEEEAAAQQQcKsAAYZu5WVyBBBAAAEEEEAAAQQQQAABBBBAAAEEEEAAAQQQQAABBBBAAAEEEEAAAQQQQAABBLxTgABD73xv7BoBBBBAAAEEEEAAAQQQQAABBBBAAAEEEEAAAQQQQAABBBBAAAEEEEAAAQQQQAABtwoQYOhWXiZHAAEEEEAAAQQQQAABBBBAAAEEEEAAAQQQQAABBBBAAAEEEEAAAQQQQAABBBBAwDsFCDD0zvfGrhFAAAEEEEAAAQQQQAABBBBAAAEEEEAAAQQQQAABBBBAAAEEEEAAAQQQQAABBBBwqwABhm7lZXIEEEAAAQQQQAABBBBAAAEEEEAAAQQQQAABBBBAAAEEEEAAAQQQQAABBBBAAAEEvFOAAEPvfG/sGgEEEEAAAQQQQAABBBBAAAEEEEAAAQQQQAABBBBAAAEEEEAAAQQQQAABBBBAAAG3ChBg6FZeJkcAAQQQQAABBBBAAAEEEEAAAQQQQAABBBBAAAEEEEAAAQQQQAABBBBAAAEEEEDAOwUIMPTO98auEUAAAQQQQAABBBBAAAEEEEAAAQQQQAABBBBAAAEEEEAAAQQQQAABBBBAAAEEEHCrAAGGbuVlcgQQQAABBBBAAAEEEEAAAQQQQAABBBBAAAEEEEAAAQQQQAABBBBAAAEEEEAAAQS8U4AAQ+98b+waAQQQQAABBBBAAAEEEEAAAQQQQAABBBBAAAEEEEAAAQQQQAABBBBAAAEEEEAAAbcKEGDoVl4mRwABBBBAAAEEEEAAAQQQQAABBBBAAAEEEEAAAQQQQAABBBBAAAEEEEAAAQQQQMA7BQgw9M73xq4RQOA0FSgoKJDs7OzT9Ol5bAQQQAABBBBAAAEEEEAAAQQQQAABBBBAAAEEEEAAAQQQQAABBBBAAAFPChBg6Elt1kIAAQROQGDEiBESGxsrcXFx0r9/fykvLz+B2bgVAQQQQAABBBBAAAEEEEAAAQQQQAABBBBAAAEEEEAAAQQQQAABBBBAAIHqBfyqv8xVBBBAAAFXCkyaNEk2b96sTzlmzBjp0aNHraZX93z66afG2KVLl8rixYv1QEOj00MVlUUxKSnJWO29996TwMBAo00FAQQQQAABBBBAAAEEEEAAAQQQQAABBBBAAAEEEEAAAQQQQAABBBBAoG4I+O3dd0gO5xdKfkGR+Pn6SmhosERGhEl0g4i68YQ8BQIIIHAKCaigwCVLlug7uuqqq2odYOir/ftsX/Ly8uy7PNIuLS2VL774wlhr+vTpBBgaGlQQQAABBBBAAAEEEEAAAQQQQAABBBBAAAEEEEAAAQQQQAABBBBAAIG6I+C38q9/HT5Nw9go6dyxpdQPD3V4nU4EEEAAAc8JtGnTRoYNGyafffaZHDlyRPr06SODBw/23AZYCQEEEEAAAQQQQAABBBBAAAEEEEAAAQQQQAABBBBAAAEEEEAAAQQQQOC0E/Bx9sQHDmbLkmXrJDevwNkQ+hFAAAEEPCgwa9YsOXjwoGRkZMgvv/wiAQEBHlydpRBAAAEEEEAAAQQQQAABBBBAAAEEEEAAAQQQQAABBBBAAAEEEEAAAQRONwEfPz9fSYhvImd2aS2dOiSKylxoLmXl5bJuwzZzk28EEEAAgZMsEBoaKlFRln+nT/J2WB4BBBBAAAEEEEAAAQQQQAABBBBAAAEEEEAAAQQQQAABBBBAAAEEEECgDgv49etzpkTUDzMesU2r5rJ5607ts0vvy8rOk737M6VJo2hjDBUE3CFQVn5E9h4qkpy8UqmnLRATFSiNooPEx0e1jr3kF5ZLxoFCOZhdIhFh/hLXMFgaRAQe+0R2dxzS5tu1r1A/prZtfLiEh/rbjah9s6SsUtL3FkhJaaWEhfhJ8yahcpyPqy+ac7hUtuzMk7Bgf4mPC9XnrP1uLCPLyitl7eZs6dQqUkKDfY0LFZVH5B+tPyYyUJ/fuFCLijveR2VlpWzfvl0SEhJOuWx+eXl5snv3bj0YMDY2Vvz8/Gqh5NkhFRUVekbEsrIyCQ4OlujoaKlX7/j+3jy7c1ZDAAEEEEAAAQQQQAABBBBAAAEEEEAAAQQQQAABBBBAAAEEEEAAAQQQ8ISAn3VwoXnB9m0TZE/GITmcX6h35eXlE2BoxjlNv39bvV+G3bdcf/pQLVhv+8+DnEpc98AyWbLygH795Se6yq1XJjodq8WryYJf0uXl95JlR8phLWjPdqivbz05p2esPD6yvfTpGmt70Ulr47Ycef7tTbJ42X6pVAtYlTO7NJDHRrSXS/s1sep1XB0+dqX88GuGfnHM7W1lyIDm8tDL/8iKVQdtbmjWLEReebSrDOjrfM61ydkycPhv+n0REQGy6X8D5bVZyTJt9jYp1AIhzSUgwEeGXRkvE+4/0yawz3zd0XdaRoE8/cZ6+Wt9lhw4UGwzpGHDIHliVAe55YpEp4GaKzcckqvuWqLfl3RrGy1g0k+mzNwiBfnlEhjoK3cOayXPj+kiM+ftkBen/ys5OaX62K5nNJDPp/TRA0FtFrVruOp92E0r8+bNkzFjxkh2dra2z0C59957ZeLEifbDPNo+ov2AP/74Y3n66afl0KFDxtoqeE/13XfffbUONLzssstk5cqVxhyOKpmZmbUKCExJSZEePXroUzRs2FCSk5Pl/fffl2eeeUZUIKS5qH3ef//98tRTT4m///EHzprnU985OTnSrVs3yc3N1btvuOEGmT59ujFEeT3wwAN629fXV9Rew8PDjeuOKsOGDZOFCxfql9R7f/755x0Now8BBBBAAAEEEEAAAQQQQAABBBBAAAEEEEAAAQQQQAABBBBAAAEEEEDgBAV8nN1fv36ocSm/oMioUzk9BY5UipRqWfZMn4pqEUq17HfmsYeybQPe7G+87YkVMvLxVbJ9R9XgQjW2ouKILP3zgAwe8Ye8/WnNx3Wv3pgpl434XX5Zsq9KcKGab92GLLn5weXy6Xc7VbPaUqplFzQ/x470fLn8rj+qBBeqCXbvLpQb718uY19f73Q+FeZonuvgwWIZO3W9vPJOsk1wobpZjZn9Zar0HrpQsnJNgXxOJ9UufPHjLul7/SL536KMKsGF6j4VcPjQhLVywa2/SHGJ9hIdFOt3+9PSffLCW//qwYVqaElJhbz90VaZ9XWKjH11vRFcqK79owU03vnMKlV1Wlz5PqwXUZn3VFCaCi5UpaSkRCZPnix79+61HubRugouHDp0qNx99902wYVqE0VFRTJ27Fi55557RAXR1aYUFxfr96l7nX1qM48ao/ZmniMtLU1eeuklPZDQOrhQjVNj1LXu3btrv01TgLnqP96i1r3jjjtk3759+tw+Pj4yfvx4m+kGDx4s5mfNz8/XA0dtBtg1VMDiggULjOe56KKL7EbQRAABBBBAAAEEEEAAAQQQQAABBBBAAAEEEEAAAQQQQAABBBBAAAEEEHCVgNMAw9LSMmMNLUaEgoDLBT7/IU0PjLOeODzcXy7s11jPWhhsdTSvGjNuynrZsDXHerhNfeV6LRPfqCVSWGDKCKiyAV7ev6mMGd5Whg5uIQ2iTccjq9/zmHF/y+wFKTb3V9dY8MNuycoskcjIAOl/fhO5ZmBzade2vs0t787ZJn+us2Sts7lo1/jgP9v1HjXHtZc3l/PPbaRnCzQP27tXC0h7fZ256fD71z/3yeixq22CFJWZmqvfOQ0lRDty2Vw2JefKE1PWmptOv//dnCtndomS8Q910b4bGOMefWGtNG6sZeG7r5NcelGc0b9kxQHZqh3J7Ki4830cPHiwShCf2sM///zjaCse6fvqq6/k+++/N9ZSRw1fcsklembFAQMG6IGFKlvfokWLjDEnqzJhwgR96d69e0tSUpIMGTJEQkMtQeXq2GlXZAWcM2eO/Pjjj8Zjzpo1S1QGResSFRWlB2aa+6ZOnWquOvxWwYXmou7t27evuck3AggggAACCCCAAAIIIIAAAggggAACCCCAAAIIIIAAAggggAACCCCAgIsFLBFIVhOrrFM5uflGT2hIkFGngoCrBOYv2mNMFRcXInNfO0e6tI0Un3qmbnW88dK1B/WjmYuLK/Tjkxev2q+PMW60qtzz3N9aJjRTdsVWLcPkyzf6SnycJWjqcEGZjHxmtfz8uynL3eMvrZMrL2omkeEBVrM4rw64sInMGN9TO0LYcnTst7/tkbueXKVnHlR3Pv7aOvl9Ts0Z1Xy0h3zvpZ5y1YXNjQV37y+UGx5cJslbTAF7X3yzS54Z3VniGgYbY6wr73y2w2hGxwTKrEm95OwzY8VPO1ZalcycErn9yZWy/OiRznO+2imP39lRmsQ6nk/do/b11Rvn6ia3XJEgbS78zsgEOWNCD+ndJUYNkzOv/EHP3Kjqyal50jbBNthS9bvzfTRu3Fj69esnS5YsUUvpRQXIXXDBBUdbnv0qLy/XMwKaV42Pj9eDDVu1amXuEhW0N3DgQElPTzf6qqv8+uuvVS7v2LFDunTpUqX/WDtUFkUVDHneeecZt6pskNdcc438+eefet8bb7whTzzxhBZUG2mMOZbKrl279OBK8z3qWOMrrrjC3LT5Vsccf/HFF3rf1q1bZcOGDU6f8+233zbuHT16dK0zQho3UUEAAQQQQAABBBBAAAEEEEAAAQQQQAABBBBAAAEEEEAAAQQQQAABBBCotYDDDIZp6fukrMyUBU5l4WoaZ5txqtazMxCBagSSt1sy3z10Rzs5s50luFDdpoLdzjuroUwe200eubuD/ul9RrTDGTduy5HUnZag2GnjetgEF6qbVGDgdK0/JNQUV1umHYH83WJLkKPDiY92qnumP9vDJrhQXRp8QVO5b3g741aVAbCsvOaUn0m3tbEJLlQTNGsUIh9M7GXMpSpbtOA9R2V/ZrEs1o4zNpf3X+glfbs3NIILVX90ZKB8+GJv8fe3/Jlv2pZrvsXhd6cOEUbApQq8VNkMVQkM9JWenSz2F/dpbNy/VzuG2b64+32o9T755BN54YUX9EDDBx98UJYuXSrBwc6DJ+336Mq2OgLYfFyzmvfDDz8U6+BC1de6dWt57733VLVWRf3ba//x83MYE16r+awHTZw40Sa4UF1T2QDnzp1rPUxSU1Nt2rVtqIDL6667Tvv/iCkTblxcnEybNs3p7T169JDExETjujOnlJQU2bhxozHulltuMepUEEAAAQQQQAABBBBAAAEEEEAAAQQQQAABBBBAAAEEEEAAAQQQQAABBFwvYIk8Ojp3cXGpbN6aZqzUqGGU1A8PMdpUEHCVQHiorzHV3/9mGXX7yg0D4+XJkR31T+8zTBn07Mfs2G0JLoyJCZJenS3BcNZjG0QESL/esUbX1jTLfUang0qfs2KMwDv7y8O0/ZmLyrqYvq/A3HT6bX2P9aD2LSP0o4jNfVt3HjZXbb4bNgiSPSuulow/TZ/zezgOAo6JCpSWiWHGvZudBCyaB4SFWLIzqr76Yaa2Om5aBXyaS9jRIE3VdnSEurvfh1o3NjZWHnroIfnpp5/kxRdflPbt26vuk1LS0iz/ZqpMiuecc47DfZx//vlawKetscOBbu5URyI7Kk2bNrUJjFRZF4+nqPexbp3liO8vv/xSO7Lb+f9HVCDlI488Yiw1e/Zs7ejvQqNtrnz66afmqnTv3l0SEhKMNhUEEEAAAQQQQAABBBBAAAEEEEAAAQQQQAABBBBAAAEEEEAAAQQQQAAB1wvYBBhWVlbK6jXJ2jGzpfpK/v5+0rmj5YhP1y/PjKezQMfWEcbjf/Vdukz5KFkOaJn5jqfsP2i5r3WCJaDO0Vytmocb3bVdL6Gp5ahl4+ajlaZa5kEtPsoo+zOLjLqzSvMmzudLbG7Zf0GRKQOc/TxqvUAtM6H5Y3/dut0w2nLEeWmZ6Qhp6+vuqLv7fbhjzycyZ0ZGhnF7p06djLp9RQXSdezY0b7b4+2GDR0HpKqNdOjQwdhPfn7tAnCNG7TKmjVrZNKkSUbXU089pQcDGh1OKkOHDhVzhkaV+fCbb76xGan+/zRjxgyjb8yYMUadCgIIIIAAAggggAACCCCAAAIIIIAAAggggAACCCCAAAIIIIAAAggggIB7BGzO2/z7ny2SmWU6QlXFS3VsnyBhoSfnyFH3PC6znkoCw69tKfO+T9e3pI4rfuGtf2XS28nSvm196dhafSKkR+cGorIW+vlaRfA5eIiKSkvnv1tzJen51ZYOu9o/yTlGT0VFzccZq8EhITZ/Ksb9quLvV0+uvLSZ7M8s0fsjwgJsrjtqBGtHDjsrftp8x1L+2pQlyTtyZZuWjbGg0HS0ufX9K/8+ZN30SN3d78MjD3EMi6jgN3OJiLAEzpr7rL/r169v3Twp9eqyKAYE1Pz7td/0qFGjjAyFCxcuNC537dpVVIBhbUp4eLjcfPPN8tFHH+nDp0yZIjfccINx68qVK+XQIdNvWQUiDh482LhGBQEEEEAAAQQQQAABBBBAAAEEEEAAAQQQQAABBBBAAAEEEEAAAQQQQMA9AkbU1PqN22VPxkFjlVYtm0pifJzRpoKAqwXOPjNGxo7pqAcVqqOFVVHf/27O1T8ipuDDCO1Y41E3tpKHbu+gB/PVtI+8vDL5/L+7ahrm0uszJ/Z26Xy1mWzrzjx5cNJa+fMvzwcQ1mZ/5jEn432Y1+bbMwLz5s1zuNBbb70lvr7Og2ntb0pKSjICDDds2CBbtmyRdu3a6cM+/PBDY/j1118v6ihqCgIIIIAAAggggAACCCCAAAIIIIAAAggggAACCCCAAAIIIIAAAggggIB7BfQAw81bd0rKTssRn00aR3M0snvdmf2ogAoavOicJjLj823yv1/3yuHDVY8Ezs0tlVfeSZYV/2TKgmn9arTz144OjoysXRa2yPq1G1fjoh4ecCCrWAbe+btkZ5uOM1fL+/jUkwYNAm2Oa1b9OTmlojJEnqxyOryPk2V7qq/7wQcfSI8ePWq9zS5duuhHNCcnJ+v3zJw5U1555RUpKiqSzz77zJhn5MiRRp0KAggggAACCCCAAAIIIIAAAggggAACCCCAAAIIIIAAAggggAACCCCAgPsE/Hak7pYt2yzZ3mJjIqVn9w7uW5GZEbATOLNdpEx/tqdUPn1EdmYUyNbUw7JxW4589v0uSd2Zb4xesuKAfPXTLhlySQujz1Hl/HMayudTz3V0qc70PfPGeiO4MCjIV15/trtcdVFzhxker7p3iSi7k1VOh/dxsmxPlXXXrl0rMTEx+namTp0q6nhjVWbPnq0fe9y3b1+9XZv/PProozJ8+HB9qApQnDBhgvz4449akKwp+Lhx48bSq1ev2kzFGAQQQAABBBBAAAEEEEAAAQQQQAABBBBAAAEEEEAAAQQQQAABBBBAAIETFPDZlJwqR0yn00pUZLj0OqujlgnN5wSn5fa6JuDrV894pNKSSuM3Y3RaVfILy61alvusOh1WVQa+ls3C5NJ+TeSR4R3kr3kD5NuZ54mf1dqLVzoOlPO1+skWFFU4nL8udf6ybL/xOE8kdZShA1o4DC40Bnm4crq9j3r1LL/zvLy8arUPHz5c7XVvvNi8eXM9wFAFGY4bN04SExONx7j11lv1DIRGRw2Vq666SgIDA/VRKnPh4sWL5f333zfuuvfee7UsnRZv4wIVBBBAAAEEEEAAAQQQQAABBBBAAAEEEEAAAQQQQAABBBBAAAEEEEAAAZcL+FRWmqILw8NCpHePTuLvr5+a7PKFmNC7BeKbhBoPoI7b3XeoyGjbV1Kssg4mNrfcZz+uNu0+XWPlygHNjKFbtOyGjkrDGFNAkrq2fafjMY7u88a+LO3IaOujkfudFVvtY+zZV1jtdXdcPJ3eh/Jr0qSJwbhp0yajbl85okVzm4//tb9WV9oBAQEyd+5c43H27t0rTz/9tNGuqRIcHCwjRowwhk2cOFEPMjR3DBs2zFzlGwEEEEAAAQQQQAABBBBAAAEEEEAAAQQQQAABBBBAAAEEEEAAAQQQQMDNAnret5DgQOnds5MEBQW4eTmm91aB5o1DtOBTS5rAz39Ic/goi1ful1wtAM5cOrWKMFdtvnftLZQBI36T/sNNn+w8yz02A7VGm/hwo6ueOM5c1rq5ZczBg8Xy979Zxj32lZseWyG9hi7UP3O+SbW/fMq3w0P9xNfX4rBnv/Ngz517CiQl1XLMtKcezhPvIysrS6ZPny79+/eX559/XlJSUjz1eFXWSUhIMPry8/Nl9erVRtu6snz5cikpKbHuqpP17t27S1JSkvFs6j2tWbPGaNdUGTVqlDHk77//NurqqOW4uDijTQUBBBBAAAEEEEAAAQQQQAABBBBAAAEEEEAAAQQQQAABBBBAAAEEEEDAvQI+gYH+0kvLXBgWGuzelZjdqwXU8cXn9LRkynt1xmZZtHyfzTNt3JYjYyZYgoFiYoKkpVXgn/Xg0GBf+eufTFmzzvR5YvI/cii7auDVui05Mu3jbcatZ3dtYNStK53bREpCfJjRlTT+L9nlIHPfrK9T5MdfMmRHSr7+iY0KMu7xloq/n4+0TLQ86/i3NojtsdSmJ9lzoEiG3Lf0pDyWJ97HzTffLA8//LAsXbpUJk2aJOeee66UlZWdlOdVGQwjIyONtW+//XbZtWuX0VaVtLQ0m8x8NhfrYENlHrTO7KjeV2mp80Bia4K2bduKClK0L+p4ZAoCCCCAAAIIIIAAAggggAACCCCAAAIIIIAAAggggAACCCCAAAIIIICA5wT8yssq5K81ydWuGBDgJ+ed263aMVys+wKvP9lNzr72Jy1IqFKKiyvk+jHLpEunSGmbEC679xXpAYMVFaYjt5XG2+POEj+rTHvWQtGRgfq9Gzbl6N1ffZcu6tNcO1L5zA6RUlZeKTt3F8iWrXnGbfW0pH1XXmQ5Ltm4cLTy1rPdZUjSMi1DXIVs33FYzr7mJ7n4vMYSHxciW7WjlVdpAY15eZYAtDatw2VAX8vRtvbzncrtGy5vIRPeMB3FqzIUnjn4Bxk+tKVERwWKrxYMujY5S+Z9ny7l5Zb34enncef72L9/v82xuerZcnJyZMmSJXLhhRd6+lHFz89Ppk6dKnfccYe+tsqm2LFjRxk8eLCecU8dE/ztt99q76O8Vnv74osvRAUp2hd1xLJ1CQ2tegR5dHS0pKenWw87KXV11PGcOXPk4osv1tdPTU2VF198UcaPH1+r/Tz66KNifRxyUFCQDBgwoFb3MggBBBBAAAEEEEAAAQQQQAABBBBAAAEEEEAAAQQQQAABBBBAAAEEEEDANQJ+FZWVkl/g/IhVtYxvkeVoXNcsyyzeKBAfFypTnu4mD05Yq2WKq9QfQQUImoMEzc+kAgHHDG8nF/dpbO5y+P351HPlgpt/kQMHio3r6ekFWnBUgdG2rjx0V3vp0clxBkM1rk/XWPn6nb4y5J6lUlRUoQcafv/zHuspjHp8i1D57/TzRO3VG8t9t7SXn5ftlz//OqRvPyenVKa8v7nKowy7Ol4KCsvlm4WOHarc4MIOd74PFUQXFRUl2dnZNjtu1sx5AKrNQDc0rr/+evnss89k4cKF+uwVFRWyYMECm5WuuOIKyczMlGXLltn02zdUIKF9MKH9GNV2NEate6oUlVXytttuk9mzZ+tbevnll+W6667Tgy9r2uPAgQNthtx6662iggwpCCCAAAIIIIAAAggggAACCCCAAAIIIIAAAggggAACCCCAAAIIIIAAAp4TIHLQc9Z1YqVhlyfIn/MukX7nNNSyttlG56lgvc4dI+WnORfKuKTONT5vo+ggWfFFf3kiqaN2vGyAw/HqaOauZzSQbz44T566q5PDMdadZ58ZI9++f7706RXrMHiwUaNgefGxM2Xpf/qLWr+2JSTQt7ZDHY4LCnDtn5rGIgvePk9e0J4lPNy/ypphYf5akGdbee2xqsfMVhls1REcdOzPGRzo/Nnc9T5UxsDJkydLWJjpqGjVvvvuu0UdrXuySj3tD2D+/Pkybdo07Z2E22zD399fnnrqKZk7d67NNZXlz1Fx1u9orH2f2cS6PyDA8d+X9ZjjravnVv7OinpPMTExxuWRI0ca9eoqGRkZNpeHDx9u06aBAAIIIIAAAggggAACCCCAAAIIIIAAAggggAACCCCAAAIIIIAAAggg4H6BeloGLNszN92/pltWOJSZq88bEx3hlvlPdNJTfX/H83zl2nHIaRn5cjCrRKLqB0hCszAJ9HcebFbTGjmHSyXjQJHkF5Xrx/w2jgmWxjFBer2mex1dz84r1Y5uLpQybZ/q2OBmWnChOpq5rhX1F3wgq1j2HSqWEu3I8+iIAGneOFQCTuBduMPIHe9DZevbs2ePxMbGyokE5bnjeVWmwtzcXPH19ZUmTZqIO4P83LH/kz3nhAkT9COV1T4SExNl06ZNWtCwbVDzyd4j6yOAAAIIIIAAAggggAACCCCAAAIIIIAAAggggAACCCCAAAIIIHA6CNTFuKfT4b256hkJMHSVZA3z8IdWAxCXEUAAgaMCKnC0RYsWkpWVpfdMmTJFRo8ejQ8CCCCAAAIIIIAAAggggAACCCCAAAIIIIAAAggggAACCCCAAAIInAQB4p5OAvoptOTxp5s7hR6CrSCAAAII1B2BZcuWGcGF6qmGDh1adx6OJ0EAAQQQQAABBBBAAAEEEEAAAQQQQAABBBBAAAEEEEAAAQQQQAABBLxIgABDL3pZbBUBBBA4HQRmzJhhPOaAAQMkJibGaFNBAAEEEEAAAQQQQAABBBBAAAEEEEAAAQQQQAABBBBAAAEEEEAAAQQQ8JwAAYaes2YlBBBAAIEaBPLy8mT+/PnGqKSkJKNOBQEEEEAAAQQQQAABBBBAAAEEEEAAAQQQQAABBBBAAAEEEEAAAQQQQMCzAn6eXY7VEEAAAQQQcC6wa9cuGTRokD7A19dX/u///s/5YK4ggAACCCCAAAIIIIAAAggggAACCCCAAAIIIIAAAggggAACCCCAAAIIuFWg3hGtuHUFD01+KDNXXykmOsJDKx7bMqf6/o7taRiNAAIIIIAAAggggAACCCCAAAIIIIAAAggggAACCCCAAAIIIIAAAggggAACp4MAcU+nw1t2/owckezchisIIIAAAggggAACCCCAAAIIIIAAAggggAACCCCAAAIIIIAAAggggAACCCCAAAIInLYCBBietq+eB0cAAQQQQAABBBBAAAEEEEAAAQQQQAABBBBAAAEEEEAAAQQQQAABBBBAAAEEEEDAuQABhs5tuIIAAggggAACCCCAAAIIIIAAAggggAACCCCAAAIIIIAAAggggAACCCCAAAIIIIDAaStAgOFp++p5cAQQQAABBBBAAAEEEEAAAQQQQAABBBBAAAEEEEAAAQQQQAABBBBAAAEEEEAAAQScCxBg6NyGKwgggAACCCCAAAIIIIAAAggggAACCCCAAAIIIIAAAggggAACCCCAAAIIIIAAAgictgIEGJ62r54HRwABBBBAAAEEEEAAAQQQQAABBBBAAAEEEEAAAQQQQAABBBBAAAEEEEAAAQQQQMC5AAGGzm24ggACCCCAAAIIIIAAAggggAACCCCAAAIIIIAAAggggAACCCCAAAIIIIAAAggggMBpK+BXVFJZpx7+VH+eU31/derHwMMggAACCCCAAAIIIIAAAggggAACCCCAAAIIIIAAAggggAACCCCAAAIIIICASwSIe3IJo9dNQgZDr3tlbBgBBBBAAAEEEEAAAQQQQAABBBBAAAEEEEAAAQQQQAABBBBAAAEEEEAAAQQQQAAB9wsQYOh+Y1ZAAAEEEEAAAQQQQAABBBBAAAEEEEAAAQQQQAABBBBAAAEEEEAAAQQQQAABBBBAwOsECDD0ulfGhhFAAAEEEEAAAQQQQAABBBBAAAEEEEAAAQQQQAABBBBAAAEEEEAAAQQQQAABBBBwvwABhu43ZgUEEEAAAQQQQAABBBBAAAEEEEAAAQQQQAABBBBAAAEEEEAAAQQQQAABBBBAAAEEvE6AAEOve2VsGAEEEEAAAQQQQAABBBBAAAEEEEAAAQQQQAABBBBAAAEEEEAAAQQQQAABBBBAAAH3C/i5fwlWQAABBBBAwL0CIUG+NgsUFlfYtGkggAACCCCAAAIIIIAAAggggAACCCCAAAIIIIAAAggggAACCCCAAAIIHLsAGQyP3Yw7EEAAAQQQQAABBBBAAAEEEEAAAQQQQAABBBBAAAEEEEAAAQQQQAABBBBAAAEEEKjzAgQY1vlXzAMigAACCCCAAAIIIIAAAggggAACCCCAAAIIIIAAAggggAACCCCAAAIIIIAAAgggcOwCBBgeuxl3IIAAAggggAACCCCAAAIIIIAAAggggAACCCCAAAIIIIAAAggggAACCCCAAAIIIFDnBQgwrPOvmAdEAAEEEEAAAQQQQAABBBBAAAEEEEAAAQQQQAABBBBAAAEEEEAAAQQQQAABBBBA4NgFCDA8djPuQAABBBBAAAEEEEAAAQQQQAABBBBAAAEEEEAAAQQQQAABBBBAAAEEEEAAAQQQQKDOCxBgWOdfMQ+IAAIIIIAAAggggAACCCCAAAIIIIAAAggggAACCCCAAAIIIIAAAggggAACCCCAwLELEGB47GbcgQACCCCAAAIIIIAAAggggAACCCCAAAIIIIAAAggggAACCCCAAAIIIIAAAggggECdFyDAsM6/Yh4QAQTqkkB+QYFkZWfXpUfiWRBAAAEEEEAAAQQQQAABBBBAAAEEEEAAAQQQQAABBBBAAAEEEEAAAQROUQECDE/RF8O2EEAAAXuB0XePlPhmjaR1YjMZNHCAlJeX2w+hjQACCCCAAAIIIIAAAggggAACCCCAAAIIIIAAAggggAACCCCAAAIIIICAywT8XDYTEyGAAALHIfDMG+tlR3q+fueIa1vKRec0Po5ZvOeWV199WbZsTtY3PDrpXjnrrB612vzmLVvk888+NcYuX75Ufv/9N7nooouNPk9VVBbFB+67x1hu2vQZEhQYaLSpIIAAAggggAACCCCAAAIIIIAAAggggAACCCCAAAIIIIAAAggggAACCNQNAb+UlLRqnyQwMECaNm1S7RguIoAAAscrsGr9IdmUnKvffknfuv9vzR+/L5ZlS5fozzv4iqtqHWDo5+tbhTgvL69Knyc6SktL5et5XxpLvf7m2yIEGBoeVBBAAAEEEEAAAQQQQAABBBBAAAEEEEAAAQQQQAABBBBAAAEEEEAAgboi4DdnriVIxNFDxcU1kpF33uLoEn0IIIAAAh4SaN26tQy9fph89cVncuTIEel99jky8PJBHlqdZRBAAAEEEEAAAQQQQAABBBBAAAEEEEAAAQQQQAABBBBAAAEEEEAAAQRORwGOSD4d3zrPjAACXikwY8YHMnnKG1JWVipRkVFe+QxsGgEEEEAAAQQQQAABBBBAAAEEEEAAAQQQQAABBBBAAAEEEEAAAQQQQMB7BPx69uxqs9uiohLZuDHZ6AsKCjLqVBBAAAEETq5AWGiotgH1oSCAAAIIIIAAAggggAACCCCAAAIIIIAAAggggAACCCCAAAIIIIAAAggg4F4Bv4GXXWysUFJaJnPnfGG069cPl8GDBxhtKgjYC5RXHJGMA0WyV/vERgdKfFyo+PrUsx9W63bO4TLZlpYnocH+0qJJiISFHH+SzfLyI7LvUJFkHy6VevXqSUxkgDRsECQ+x7k/V89Xa5RjGJibX6a/j+ioQGmofVxRDuWUSvq+Av1Y3jbx9SX8ON/J/sxiSU3PF7W35o1DJSjQ54S3V1lZKTt27JAW8fESGBBwwvO5coLcvDzJ2LNHoqIiJSYmVvz8jv+37Mp9Wc9VUVEhhw4dlFLt3/7gkBCJbtBA/1uxHkMdAQQQQAABBBBAAAEEEEAAAQQQQAABBBBAAAEEEEAAAQQQQAABBBBA4PQVMCJeKioq5auvvpHde/bqGiEhwXLTTddKZET901eHJzcEklPz5PI7Fuvt0DB/WbvgMvnku50yeWayZGWWGOP8/X3k0gvj5OWHu0n9MOPnZVx3VNm1t1Cee3uDrNmQJQcPFtsMiY0Nkofv7CA3Xh5fq8DAyiMi3y3eLZNnbZaU1MNaUJzNdOLrW096nRUrD9/eTs7uGmN70UHrROcrLauUDpd8pwfnNWsaKn98crGxSlZuqfS48gejPXtyH+mn7c1cXp2VLO98vFUP+Prlk4skQQvedFTS9xXKs2+ul1VrMyVXm9NcgoP9pFP7CHk6qbP06NTA3O30e9S4VfLz76a//7tvaStXXdxMnpy8Tlb+ddDmnqZNQ2TiQ2dI/3Oa2PQ7aii/tz/dKtO15zisBY+aS0CAj9x+XSt5bETHWr1X833W3/Pnfy0PP3Sf5GRnS0BAoIxOulfGjX/eeojH60e0H9wnn8yR58Y9I5mZh4z1g4OD5fEnxkrSPWO032Dt/i6uvOJy+Wv1SmMOR5XdGQdrFRCYmpoqffv01KeIjW0oa9dtklmzPpAJzz0reVogpLmofSbde5889tiT4u/vb+4+oe+c3Bw5p1d3Y50hQ2+QN96cZsypvB575EG97ePjK5s2b5f64eHGdUeVW2+5UX5Z9JN+adTd98iz455zNIw+BBBAAAEEEEAAAQQQQAABBBBAAAEEEEAAAQQQQAABBBBAAAEEEEAAgRMU0FOIqaCYBf/9n2zfnqpPF6BlAht2w9XSMLbmAKwTXJ/bvUVACxQrLa3UP9lZJaKC38a+8o9NcKF6lDItoO7bhbvl/Jt+1rLeFdb4dF//nC4X3fyLLPw1o0pwobpZBRw+MWmtDBixWIpLKmucb+QzKyXp6dWyI6VqcKG6uULLuLhi1QEZkrREZny+ze3zBWgBl1FRAbpb2q58qVARd0dLyu58w1TZbt1pCfRSQ7ZoQZ2qv6SkQhrUd5yNcOa8HXLe9T/Lz7/ttQkuVPcXFZXLX1rQ4VUjf5dHX11bJdhSjbEuZVrGR/M7TtEyDV57z5IqwYVq/J49hXLHw3/K+GkbrG+vUlfZLa8d84e8/PYmm+BCNVCt897cbTJ6/CotwPDYMxmqzHsqKE0FF5rmK5E3Xp8s+/aZAiT1Tg//R/07etON18l99462CS5U2ygqKpLx456WB+6/VwswrN3zlpQU6/epe519avuIam/mOXbtSpPXXntFHn34ASPozzyPGjP51Zelz9k9pFCrn2hR644aOUL279+vr1+vno+MfeZZm2kHXj5IiotNz1pQkC//XfC1zXX7RnZOjnz37X+N5/m/Cy+yH0IbAQQQQAABBBBAAAEEEEAAAQQQQAABBBBAAAEEEEAAAQQQQAABBBBAwEUCeqTLjwsXy8aNm/UpfX19ZeiQwdKsWZyLlmCauijw9kdb9MdKTAiTKy5tJv3OaSQqY565qMDAsVPXmZsOv3/TAv3uG/eXFihUblwPDvbV5zq3d0Ob+ZK35Mozb1Y/37yf0vVARWMyrRIe7i/nn9tIy1oYo83na31JJr65UTZuz7Xps264ar52rUxZQFVwozpK2ly2px02V/XvrTtt2zvS8vX+qAaBDrNBrknOkvFT1utBneaJGmjHVKt30lTLlqidCm2U/8zfKXO+MQUQG53VVL77abeoQNKIiAC5sF9j/R23bWObzfSDT7fLqvWZTmf5aH6KrF5jua720+3MaLnqsubSvWu0nrlQZUxcp2WuPNaijvW1zhBovn/duup/I+Zx7vie//U8+fGH/xlTq2O5L7r4Ehk1+h65uP8ALbDQVz7VsvUt/vUXY8zJqrz04gR96Z69estdo5Lk6muGSEiIJUPmjh3b5cUXTGNOZI+ffjpXfv7pR2OKd9+bqQWuNzTaqhIVGaWvb+58682p5qrDbxVcaC6RUVHSp8+55ibfCCCAAAIIIIAAAggggAACCCCAAAIIIIAAAggggAACCCCAAAIIIIAAAi4W8PtjyQpZtWqNMe0VVwyQ1q0TjTYVBJwJvPRkN7l5cIJx+UBWsYx8epX8/Y8pqOzXJftk7eZs6dY+yhhjXXn/y+1GUwXGvft8L+l1RrT4accYq5KpHfc76tlV8udq0xG9Kkju4TvaS+OYYOM+68o3v+42mk2aBMvMSWdL5zaR4nM00K5Syx64fO0huf3RFVrGtAo9o98fqw9I59YRxn3WFVfN1y6xvvy+bL8+9c49BdKscYhetw8o3KplLDQXLfGbqIyHqrR3sr8xz/9tZCUM046tnjy2m1x+flPzFLJ+a46MHrda0o4GKk7QAioHatdjIgOMMdVV+p/fRN58poeEh1gCR7//fY+M0YJCVQZCVZ55Y50snHlhlWlUtslXZ/xr9Kujrme9fLbNb0EFSN7+2J9VsmAaN1VTadSosZzbt58sW7rEGKUC5M47/wKj7clKeXm5PPLIA8aSLVrEy9cLvpOWLVsafTt2pMjVVw6U3bvTjb7qKj/8uKjK5ZSUFOl51hlV+o+1QwU7qv311QzNJTsnW4ZdP0RWrfxT75o+7Q155NHHJDIi0jzkmL7T03fJQw+MMe4Zev0wGTRosNG2rtytBWF+Pe9LvWv7tm2yYeNG6dK5s/UQoz7j3elGfeRdo/XATaODCgIIIIAAAggggAACCCCAAAIIIIAAAggggAACCCCAAAIIIIAAAggggIBLBXzWrbMEAamZF2rZDD/7fIHs3LnLpQsxWd0SGHZ1gk1woXq6hg2C5N3nekpAgJ4YU3/gdZtzHD74/sxi+WO5KehODXh7fE/p0y3GCC5UfdFa9rx3n+slfn6W+f7dbgnCU2Osy+YdlgyAY25tJ2e0tQQXqnE+WqRh37Ni5aXHu8r9d7bXPz07N7CewqbuqvnaJYYb86ZqAYbmsjXVtN+ztGx+qmzTjnU2FxWsaQ7i69TaNnOgGpOhZUI0Bw6q9oSHzrAJLlR96vlnvni2/tyqrR+ZvPGQqtZYQrSgwqlPnWUTXKhuUgGMo29ta9yfvCVPyrWjle1Laka+FBRYMlNOevRMm+BCNb57hwYy8cHjD5ab9dEcGf/cRD3QcMx9D8ovvy2V4KAg+614pL1//z7juGa14Iz3Z9kEF6q+Vq1ayrTpM1S1VkVlQLT/+PlZgj1rNYmTQePGT7QJLlTDVCbBWR9+bHPHzp07bdq1baiAy5tvvF7Lrlmm39KkSZxMmfqm09vPOquHxCckGNdnzXzPqFtXUlNT5d9NG42uG2+82ahTQQABBBBAAAEEEEAAAQQQQAABBBBAAAEEEEAAAQQQQAABBBBAAAEEEHC9gCVy6+jchYVFsmXLdvl4zpfyyy9/uH5FZqwTAjddkeDwOZrEBkuv7jHGtR12xwCbL6hgxO2/XSk7fjd9+mmBf46KyrbXMjHMuLR1p/MAw7BQX2PcP8nZRt2+MmRAC3l0eAf907OLKbjPfoxqu2q+NglWAYbppqyEan5zxsLLzmuimpKTUyp5+aagvFSrce1bVg0w3GKV7dDf30eu1Z7JUWmvBTee0dmSQXLL0aBGR2Ot+3pr7zBSO17aUbnuMstaKitk+v7CKsNSdlmCJQMDfWXAuY6PXB90QVMtA93RFJNVZqm+IzYmVu67/0H59rsf5bnnJ0q7tpbAx+rvdP3VtLQ0Y1KVSbF377ONtnWlX7/zxN/fsav1OHfXr77mWodLxMU11QIjWxnXUrZvN+rHUnnllZdkw4b1xi1zP/1cQkNMmTuNTquKCqR84MFHjJ5P534shUWW48TNFz7//D/mqnTt1l3i4+ONNhUEEEAAAQQQQAABBBBAAAEEEEAAAQQQQAABBBBAAAEEEEAAAQQQQAAB1wv4dOzQRrp27SxdunSUFs2bGsEvR7QzWpcuWyXr1m9y/arM6PUCCXGWoD/7h2nZwnIt42DVICE1XosnkkAtMM78sZ/Duh2rBSOaS0mZ6Whec9v6u30ry1HH839IlzfmbBGVCfB4i6vma9nMEmC4I90UeFeiHTG8d68pMO/iPk2MILuUPabrKbstgYhtrTIgmp/F+nqL5qHGMdDm69bfreMt7yPFKnDReox9vUWc82CwprEh+vsz33PgUFXjvQctfWp/6n07KiqrZLNmoY4ueVXfvr17jf127NTJqNtXVCBd+/Yd7Ls93m7YsKHTNdtZ7QwQ8I0AABqOSURBVC+/wPI7dHqD3YW1a9fIa69MMnofffwp6aYFA9ZUrrl2qJat1JShUWU+/P67b2xuqayslJnvWzJAjk661+Y6DQQQQAABBBBAAAEEEEAAAQQQQAABBBBAAAEEEEAAAQQQQAABBBBAAAHXC/hddNF5NrPm5ObJ/Pnfy65de/T+RYv+0AJi2kpgwMnPumWzURonVSA4yJIt0H4jYcGWY1y1ONUay5rkLNm8I092aMFv+YWWY3XNN65ee8hcrfb7tisT5b9aYKEqZVog4qvv/CuTZyRLW+2I4fat6ksH7dO9YwNRWQv9apE1z1XzqUyAEdpxz7m5pbJjlylgK21vgSgblb0vUQuwU0F4qTvzZUdavnRtF6VbmB+2dYuqGQxV5kBzCQ+r/m+zfliAeaiUlTsP0DQGaZVQq3do3a/qfn715PL+zeRgVol+qb6DTIcqQNlcQrXjlqsrYSHOf0vV3XcqXas8YnGtX7/q+7Lea/0ISyCsdb8n6+ZAPkdrBgRYfi+Orjvqu+/e0RIcHKxfWrToJ2PIGWd0lccee8JoV1cJDwuTG4bdLHPnfKQPe/ONqTJ06PXGLatXr5LMTNO/BWr/AwcOMq5RQQABBBBAAAEEEEAAAQQQQAABBBBAAAEEEEAAAQQQQAABBBBAAAEEEHCPQJXIn8iI+nL11ZfLO+98JKWlpZKfXyAH9h+Q5lp2QwoCrhTYph2f/Nira2X1mkyXTNvrjGh5dHRHPajQHICnvjdvzdU/C46uUl8L9htxXUu5/5b2erCcs8VdOV+bluHy19pM2b27UFRs4PajR0cnJoSJr5bFr612DLIKMNy605TB0Hy9QXSg1A+t8mfqbMse6393fE+PrcVCp77AgvnzHG5y8tQ3tCDa2geQjhw12ggw3LRxg2zdulXaHj36+uPZHxprDNECD0NDvT/zpfFAVBBAAAEEEEAAAQQQQAABBBBAAAEEEEAAAQQQQAABBBBAAAEEEEAAgVNUwMfRvlSQYVxcY+PSgYOuCQAzJqRy2gscyC6Rq0f/YRNcqI7LjYkJkthY24+/dpRybcv9t7ST72ZdIEMGt5BwB5n11Dx5WibBqe9vlpseXV7jtK6ar50WQKhKuZZBcJ92bLQKrlTF3N8u0XR9a2qe3r9dy2SoSofWJz/bnb4R/oPAcQh89OGsY7qrS+fONkdIf/TRTP3+wqIi+erLz425bh9+p1GnggACCCCAAAIIIIAAAggggAACCCCAAAIIIIAAAggggAACCCCAAAIIIOA+Aaep0SIjLcd8qiyGFARcKfD8tA2Sk1OqTxmkHbf86pPdZPD/NXOYUfD6B5fJspUHar38GW0j5fUnz5LKx49I2t5CLZgvTzZty5WvfkyXtKOBe2oyNeeCRbvlqoubVTu3K+YzBxCqhdIyCoxMhe2PBh62jQ/X97BFCzCs0FIc7t5t+ptTxzpTEDjVBZavXKMFB8fo25z25uvy5htT9Ponc2fLsBtvkj59zq31Izzw4CNy96gR+vjZH86UZ8c9Lz//tFA79rxM72vUqJH07EEGzVqDMhABBBBAAAEEEEAAAQQQQAABBBBAAAEEEEAAAQQQQAABBBBAAAEEEDgBAaep4Xx8rC4d0c50pSBgJVBUXGHVsq0WFJUbHfXqGVWbym8r9hvth+/qIFf3b+4wuNAYdBwVlRExsWmoXNKniTx4W3tZ9p/+8tX0ftqRrZZN/b7aso+aljiR+cwBhGqN1N3aUcgppkyF5sDDli3C9OXVEcoqALGiwvQ35yzA0M/P8veZX2AKvHK2/8P5pkBOdV0dx+yJYv3eC61+D47WLihy/ltyNP5U7Ktn9cCHD5uyUzrb5+G86q87u+9U7m/WrJnEREfrn7FPPyvxCQnGdu8cfpsUFRcb7Zoqg664UgICAvVhRVrmwj9+/00+nPWBcdvdo+8Va2/jAhUEEEAAAQQQQAABBBBAAAEEEEAAAQQQQAABBBBAAAEEEEAAAQQQQAABlwtYopTsps7JyTV6AgNNwR5GB5XTXiBtr+kIX0cQKemWjJdNG4ZUGZKVV2ZkL1QX+3Q3ZT6rMvBox579hc4uHXP/2V1jZNAlloyFW3c6f47aTF7b+VrHmwII1Zzbd+VLytF12yaYMhQmNjNdr9SyFy5avs9Yuu3Ro5ONjqOVlk0t86XtKhDtNqdlu3bdXFo2t9xn7nPHd+OYYGPaXVa/B6PzaEXtWwVVentp3LiJ8Qj/btpk1O0rR7Rg7c2bk+2761Tb399fZn04x3imffv2ynPjnjHaNVVCgoPl9jtMGQzV2JdfekELMlxs3Hbd9TcYdSoIIIAAAggggAACCCCAAAIIIIAAAggggAACCCCAAAIIIIAAAggggAAC7hVwGGCYX1AoGRmWIKcIq+OS3bsdZvcWgc++T3O41f2ZxbJ67SHjmjkzn9GhVcJDfG2yCGbsL7K+bFNP21sgO2sRBJi+r1AGj/5DBt39u/7JPuw8q1/ro9kC1UJWieds1nX1fI2ig0UdBa3Ksr8PSElJhaiMiPFxpgDM8BA/iWpgCuT94Y8MYy+tmpuOTjY6jlZaJ1j6y8oq5b+L0u2H6O1taYdl/cYs45qzjIjGABdVWrWw7K9Yy3a5aMVehzP/8MceKS+vdHitps6srCyZMeMdGTRwgLz44kRJTU2t6Ra3XY+PjzfmLijIl7/+Wm20rSsrViyX0tIS6646We/WrbvcNSrJeLb3ZkyXtWvXGO2aKiPuvMsYsnbN30a9T5++0qRJnNGmggACCCCAAAIIIIAAAggggAACCCCAAAIIIIAAAggggAACCCCAAAIIIOBeAZ89e2wDf4qKS+Tbb36UYu1bFZW9sGXLBL3OfxAwC3wyb6d8tXCXual/Z+aWStJzf2m/HcuRt2e2j7QZoxr+2vG+iQmWTHovvLNJ8gstxyqbb8g4UCQ3PrTc3Kz2OyTYT9auy5R/1mfpn2deXyeHcixHA5tvXr81R2Z8st3clF5doo26dcXV86lAxlaJpmfelGzKDtqsWYhuYV63bUtTNsPVazL1rpiYIKkf6me+bPMdFxssCVaGY6esl5/tgviSU/PkzrErjeOWg4N9pUfn6rNF2ixyAo0E7WjqEC1o0lwee3mdbNpuyYqq+jdq7ae1fR9vGX7HrfLk44/I8uVL5bVXJsmFF/TVghWr/o6Od/5juU9lMIyIsPzWR40cLunptn8fu3btkqS7Rx7LtF49dtxzE8Q6s+PwO26RsjLngb/WD9umTRvpqgUp2pdRo++x76KNAAIIIIAAAggggAACCCCAAAIIIIAAAggggAACCCCAAAIIIIAAAggg4EYBv5mzPpU2bVpKaGiIVFZWSkpKmhw+bDk29oIL+khggL8bt8DU3igQEOAjDzz3t7z7n+3SrEmIaPFzsuLvQ5KfbwkgurBfY+nWPsrh4w25tIW89LbpKFmVobD3tQvl1msTJToyQMvs5yPrt2TL/P+lG8FxDiex6oyOCJDOHSNl4785eu+CH9JFfZo1C5UuWpBjuZblLy2jQLZuyzPuUkF/gy50nA3N1fOpRdtpAYTm4ELVbt8qQn0ZpY0WMLjyr4NGu31rU8Ch0WFVUXt/85mz5Mo7fxft1F3J04I773j4Ty27W7A00oIP87QMjjvT8rW/ae3i0TJ2TBeJ0Xw9UYIDfeWRuzrI869v0Jc7oAWLXnb7YundI0YaRgfJgcwSWfX3wVq/X/s97z+w3+bYXHU9NzdHli5dKhdccIH9cLe3/fz85JXXpogKLFQlNTVFunftLJcNHCRxcU1l374M+d/339U6AHLevC/lrjvvqLJvdcSydYlpYMkUae5v0CBatu1IMzdP2ndwUJB8MGu2lmHyEn0PaTt3ascdvyhPPzOuVnt64MFH5PZbbzTGBmnz9b9kgNGmggACCCCAAAIIIIAAAggggAACCCCAAAIIIIAAAggggAACCCCAAAIIIOB+AT8VsLJ1644qK9XTIpguvfRC6dWzW5VrdCDwwIj2eoDg5q25oj72RWXfm/jAmfbdRjvpxrbyy4p9Ys7Wl6sFyL01a4tx3Vy57op4Pbvh/xbtMXc5/Z798jly6fDFcvBgsTFm9+4CUR9HZczw9tK9QwNHl/Q+V8/XLtE2YLD90YyF5g20TbC93tEuANE8zvyt9v7sA13khbc2GccM791bJOpjX4YObiG3XZlo3+3W9vBrW8l3v2XImn9MGRlVsOOKVZYASrX42T1jJTevVJK3VP0NVbe5aC2ILjIqSnKys22GNW3a1KbtycaQIdfJl198Lot+XqgvW1FRId99+1+bLVw+6ArJysyUFSuW2fTbN9S/y/bBhPZjVNvRmIpKSwZRR/d4sq9Pn3Plpptvk0/mztaXnTL5FblWc+rQoUON2xhw6WU2Y2686VYJ0jLqUhBAAAEEEEAAAQQQQAABBBBAAAEEEEAAAQQQQAABBBBAAAEEEEAAAQQ8J+DToEGUzWrBwUHSpnWiXHvtIIILbWRoWAvcfX0bmfhYV4mKss2I5+tbTwZoWQF/++RiaaFlNnRWfOqJfPl6Pxn/UBcJD6+aITMszF9G39pWJj3U1dkUVfobaZnx1LoPj+qgHVdruy/zYB9t4TM6R8mX0/vJYyOqD3Jy9XxtE22zzbW3a7eJt7tuF4Bofgbr75FDW8vi/1wsF5zb2OZIYjVGZZns0ilSvtKedeqTZ4nKeljbEhzkW9uhTsf5ab+FBdP66e9DHc9sXdTv5OYhifKxFhSqjqM2l+BAH3O12m+VMfCll17TMq+ajp1W7TtH3q1lY21T7X3uvKiCsj//Yp5Mef0t7Tdt+y79/f3l0cefklkffixhVteCg4MdbikoyHG/w8F2nWFHTay7A9yYhVY9t/J3Via9/KpER1uO5r4n6S5nQ2369+3da9O+9bbbbdo0EEAAAQQQQAABBBBAAAEEEEAAAQQQQAABBBBAAAEEEEAAAQQQQAABBNwvUK+wuOJIfkGhHDxwUELDQqVhrCUQxP3Lu26FgvzD+mShYbaBPa5b4cRmOtX3V9PTJafkSf+bfzGG7fj9Sgn095Gy8krZtbdQMvYXSUx0oLRuHib+frULEjNPpk59PZBVLPszi6VUO8o4OiJQmjYKlgBt/hMpudpxzRna0bwFReXascsijaO144O1zIq+KrrxOIqr5zuOLdR4y8HsEjmUUyL1Q/2liXZU8nE+ao3rHOsA9Y537y+UzNwS8fP1kfi4UAkPcR6UVtv5VZbAjIw9Eh0TqwUqHn9QXm3XO5ZxmVmZ2tHVeeLr6yuNGjfWjpp3HPR6LHOeTmMnTXpBXn35Rf2R4xMSZM3ajVqQrPO/3RC7oFjt/22nExfPigACCCCAAAIIIIAAAggggAACCCCAAAIIIIAAAggggAACCCCAgNsEvD3uyW0wp8nEeoRPWGiIhCXGnyaPzGO6UkAFE7bSggrV53iLihlS2QLVx5UlQsuCqD6uKq6ez1X7sp4nNipQ1OdUK+odN28con9cuTcVvNe8eQtXTumyudQxzupDOXYBFTg68/13jRtHJ42pNrjQGEgFAQQQQAABBBBAAAEEEEAAAQQQQAABBBBAAAEEEEAAAQQQQAABBBBAwKUCJ5YizqVbYTIEEEAAAQREVqxYLllZWQbFNdcMMepUEEAAAQQQQAABBBBAAAEEEEAAAQQQQAABBBBAAAEEEEAAAQQQQAABBDwnQICh56xZCQEEEECgFgIzP3jPGHVx/wESExNjtKkggAACCCCAAAIIIIAAAggggAACCCCAAAIIIIAAAggggAACCCCAAAIIeE6AAEPPWbMSAggggEANArl5efLNf+cbo+4aNdqoU0EAAQQQQAABBBBAAAEEEEAAAQQQQAABBBBAAAEEEEAAAQQQQAABBBDwrICfZ5djNW8VaBARIL17xBrb96lnVKkggAACLhPYvXu3XDZwkD6fj4+PXHDB/7lsbiZCAAEEEEAAAQQQQAABBBBAAAEEEEAAAQQQQAABBBBAAAEEEEAAAQQQODaBeoXFFUeO7ZZTc3RB/mF9Y6Fh4afkBk/1/Z2SaGwKAQQQqKVASJCvzUjt/202bRoIIIAAAggggAACCCCAAAIIIIAAAggggAACCCCAAAIIIIAAAgggcHwCxD0dn1tduYsjkuvKm+Q5EEAAAQQQQAABBBBAAAEEEEAAAQQQQAABBBBAAAEEEEAAAQQQQAABBBBAAAEEEHChAAGGLsRkKgQQQAABBBBAAAEEEEAAAQQQQAABBBBAAAEEEEAAAQQQQAABBBBAAAEEEEAAAQTqigABhnXlTfIcCCCAAAIIIIAAAggggAACCCCAAAIIIIAAAggggAACCCCAAAIIIIAAAggggAACCLhQwM+FczEVAggggAACJ0WgsLjipKzLoggggAACCCCAAAIIIIAAAggggAACCCCAAAIIIIAAAggggAACCCCAQF0WIINhXX67PBsCCCCAAAIIIIAAAggggAACCCCAAAIIIIAAAggggAACCCCAAAIIIIAAAggggAACxylAgOFxwnEbAggggAACCCCAAAIIIIAAAggggAACCCCAAAIIIIAAAggggAACCCCAAAIIIIAAAnVZgADDuvx2eTYEEEAAAQQQQAABBBBAAAEEEEAAAQQQQAABBBBAAAEEEEAAAQQQQAABBBBAAAEEjlPALziwbsQYFuSbBE7V5wkOjDjOV8RtCCCAAAIIIIAAAggggAACCCCAAAIIIIAAAggggAACCCCAAAIIIIAAAggggMDJETjV47JOjsrps2rdiC48fd4XT4oAAggggAACCCCAAAIIIIAAAggggAACCCCAAAIIIIAAAggggAACCCCAAAIIIICARwQIMPQIM4sggAACCCCAAAIIIIAAAggggAACCCCAAAIIIIAAAggggAACCCCAAAIIIIAAAggg4F0CBBh61/titwgggAACCCCAAAIIIIAAAggggAACCCCAAAIIIIAAAggggAACCCCAAAIIIIAAAgh4RIAAQ48wswgCCCCAAAIIIIAAAggggAACCCCAAAIIIIAAAggggAACCCCAAAIIIIAAAggggAAC3iVAgKF3vS92iwACCCCAAAIIIIAAAggggAACCCCAAAIIIIAAAggggAACCCCAAAIIIIAAAggggIBHBAgw9AgziyCAAAIIIIAAAggggAACCCCAAAIIIIAAAggggAACCCCAAAIIIIAAAggggAACCCDgXQIEGHrX+2K3CCCAAAIIIIAAAggggAACCCCAAAIIIIAAAggggAACCCCAAAIIIIAAAggggAACCHhEgABDjzCzCAIIIIAAAggggAACCCCAAAIIIIAAAggggAACCCCAAAIIIIAAAggggAACCCCAAALeJUCAoXe9L3aLAAIIIIAAAggggAACCCCAAAIIIIAAAggggAACCCCAAAIIIIAAAggggAACCCCAgEcECDD0CDOLIIAAAggggAACCCCAAAIIIIAAAggggAACCCCAAAIIIIAAAggggAACCCCAAAIIIOBdAgQYetf7YrcIIIAAAggggAACCCCAAAIIIIAAAggggAACCCCAAAIIIIAAAggggAACCCCAAAIIeESAAEOPMLMIAggggAACCCCAAAIIIIAAAggggAACCCCAAAIIIIAAAggggAACCCCAAAIIIIAAAt4lQIChd70vdosAAggggAACCCCAAAIIIIAAAggggAACCCCAAAIIIIAAAggggAACCCCAAAIIIICARwQIMPQIM4sggAACCCCAAAIIIIAAAggggAACCCCAAAIIIIAAAggggAACCCCAAAIIIIAAAggg4F0CBBh61/titwgggAACCCCAAAIIIIAAAggggAACCCCAAAIIIIAAAggggAACCCCAAAIIIIAAAgh4RIAAQ48wswgCCCCAAAIIIIAAAggggAACCCCAAAIIIIAAAggggAACCCCAAAIIIIAAAggggAAC3iVAgKF3vS92iwACCCCAAAIIIIAAAggggAACCCCAAAIIIIAAAggggAACCCCAAAIIIIAAAggggIBHBAgw9AgziyCAAAIIIIAAAggggAACCCCAAAIIIIAAAggggAACCCCAAAIIIIAAAggggAACCCDgXQIEGHrX+2K3CCCAAAIIIIAAAggggAACCCCAAAIIIIAAAggggAACCCCAAAIIIIAAAggggAACCHhEgABDjzCzCAIIIIAAAggggAACCCCAAAIIIIAAAggggAACCCCAAAIIIIAAAggggAACCCCAAALeJUCAoXe9L3aLAAIIIIAAAggggAACCCCAAAIIIIAAAggggAACCCCAAAIIIIAAAggggAACCCCAgEcECDD0CDOLIIAAAggggAACCCCAAAIIIIAAAggggAACCCCAAAIIIIAAAggggAACCCCAAAIIIOBdAgQYetf7YrcIIIAAAggggAACCCCAAAIIIIAAAggggAACCCCAAAIIIIAAAggggAACCCCAAAIIeESAAEOPMLMIAggggAACCCCAAAIIIIAAAggggAACCCCAAAIIIIAAAggggAACCCCAAAIIIIAAAt4lQIChd70vdosAAggggAACCCCAAAIIIIAAAggggAACCCCAAAIIIIAAAggggAACCCCAAAIIIICARwQIMPQIM4sggAACCCCAAAIIIIAAAggggAACCCCAAAIIIIAAAggggAACCCCAAAIIIIAAAggg4F0CBBh61/titwgggAACCCCAAAIIIIAAAggggAACCCCAAAIIIIAAAggggAACCCCAAAIIIIAAAgh4RIAAQ48wswgCCCCAAAIIIIAAAggggAACCCCAAAIIIIAAAggggAACCCCAAAIIIIAAAggggAAC3iVAgKF3vS92iwACCCCAAAIIIIAAAggggAACCCCAAAIIIIAAAggggAACCCCAAAIIIIAAAggggIBHBAgw9AgziyCAAAIIIIAAAggggAACCCCAAAIIIIAAAggggAACCCCAAAIIIIAAAggggAACCCDgXQIEGHrX+2K3CCCAAAIIIIAAAggggAACCCCAAAIIIIAAAggggAACCCCAAAIIIIAAAggggAACCHhE4P8BqDJZf1SwtLoAAAAASUVORK5CYII=;fontFamily=Comic Sans MS;fontSize=13;" vertex="1" parent="1">
          <mxGeometry x="-340" y="80" width="821.05" height="120" as="geometry" />
        </mxCell>
        <mxCell id="XbV55jV9nf3fcCRUYuJB-3" value="application-h2.yml" style="text;html=1;strokeColor=#82b366;fillColor=#d5e8d4;align=center;verticalAlign=middle;whiteSpace=wrap;rounded=0;fontFamily=Comic Sans MS;fontSize=13;" vertex="1" parent="1">
          <mxGeometry x="-380" y="40" width="190" height="40" as="geometry" />
        </mxCell>
        <mxCell id="XbV55jV9nf3fcCRUYuJB-5" value="SQL&amp;nbsp; MySQL 转&amp;nbsp; H2 （db-h2.sql）" style="rounded=0;whiteSpace=wrap;html=1;fontFamily=Comic Sans MS;fontSize=13;" vertex="1" parent="1">
          <mxGeometry x="-378.95" y="250" width="860" height="60" as="geometry" />
        </mxCell>
        <mxCell id="XbV55jV9nf3fcCRUYuJB-6" value="&lt;div style=&quot;color: rgb(8, 8, 8); font-size: 13px;&quot;&gt;&amp;lt;dependency&amp;gt;&lt;br style=&quot;font-size: 13px;&quot;&gt;&amp;nbsp; &amp;lt;&lt;span style=&quot;color: rgb(0, 51, 179); font-size: 13px;&quot;&gt;groupId&lt;/span&gt;&amp;gt;com.h2database&amp;lt;/&lt;span style=&quot;color: rgb(0, 51, 179); font-size: 13px;&quot;&gt;groupId&lt;/span&gt;&amp;gt;&lt;br style=&quot;font-size: 13px;&quot;&gt;&amp;nbsp; &amp;lt;&lt;span style=&quot;color: rgb(0, 51, 179); font-size: 13px;&quot;&gt;artifactId&lt;/span&gt;&amp;gt;h2&amp;lt;/&lt;span style=&quot;color: rgb(0, 51, 179); font-size: 13px;&quot;&gt;artifactId&lt;/span&gt;&amp;gt;&lt;br style=&quot;font-size: 13px;&quot;&gt;&amp;nbsp; &amp;lt;&lt;span style=&quot;color: rgb(0, 51, 179); font-size: 13px;&quot;&gt;version&lt;/span&gt;&amp;gt;${h2database.version}&amp;lt;/&lt;span style=&quot;color: rgb(0, 51, 179); font-size: 13px;&quot;&gt;version&lt;/span&gt;&amp;gt;&lt;br style=&quot;font-size: 13px;&quot;&gt;&amp;lt;/&lt;span style=&quot;color: rgb(0, 51, 179); font-size: 13px;&quot;&gt;dependency&lt;/span&gt;&amp;gt;&lt;/div&gt;" style="text;html=1;strokeColor=none;fillColor=none;align=left;verticalAlign=middle;whiteSpace=wrap;rounded=0;fontFamily=Comic Sans MS;fontSize=13;" vertex="1" parent="1">
          <mxGeometry x="-300" y="-140" width="468.95" height="170" as="geometry" />
        </mxCell>
        <mxCell id="XbV55jV9nf3fcCRUYuJB-7" value="dependency" style="text;html=1;strokeColor=#82b366;fillColor=#d5e8d4;align=center;verticalAlign=middle;whiteSpace=wrap;rounded=0;fontFamily=Comic Sans MS;fontSize=13;" vertex="1" parent="1">
          <mxGeometry x="-390" y="-160" width="190" height="40" as="geometry" />
        </mxCell>
        <mxCell id="XbV55jV9nf3fcCRUYuJB-8" value="需注意&amp;nbsp; INIT参数指定 dh-h2.sql的数据库初始化" style="text;html=1;strokeColor=#b85450;fillColor=#f8cecc;align=center;verticalAlign=middle;whiteSpace=wrap;rounded=0;fontFamily=Comic Sans MS;fontSize=13;" vertex="1" parent="1">
          <mxGeometry x="-140" y="40" width="340" height="40" as="geometry" />
        </mxCell>
      </root>
    </mxGraphModel>
  </diagram>
</mxfile>
